<svg version="1.1" viewBox="0.0 0.0 465.0 226.0" fill="none" stroke="none" stroke-linecap="square" stroke-miterlimit="10" width="465" height="226" xmlns:xlink="http://www.w3.org/1999/xlink" xmlns="http://www.w3.org/2000/svg"><path fill="#ffffff" d="M0 0L465.0 0L465.0 226.0L0 226.0L0 0Z" fill-rule="nonzero"/><path stroke="#cccccc" stroke-width="1.0" stroke-linecap="butt" d="M66.5 49.5L66.5 194.5" fill-rule="nonzero"/><path stroke="#cccccc" stroke-width="1.0" stroke-linecap="butt" d="M143.5 49.5L143.5 194.5" fill-rule="nonzero"/><path stroke="#cccccc" stroke-width="1.0" stroke-linecap="butt" d="M221.5 49.5L221.5 194.5" fill-rule="nonzero"/><path stroke="#cccccc" stroke-width="1.0" stroke-linecap="butt" d="M298.5 49.5L298.5 194.5" fill-rule="nonzero"/><path stroke="#cccccc" stroke-width="1.0" stroke-linecap="butt" d="M376.5 49.5L376.5 194.5" fill-rule="nonzero"/><path stroke="#cccccc" stroke-width="1.0" stroke-linecap="butt" d="M453.5 49.5L453.5 194.5" fill-rule="nonzero"/><path stroke="#333333" stroke-width="1.0" stroke-linecap="butt" d="M66.5 194.5L453.5 194.5" fill-rule="nonzero"/><path stroke="#f3f3f3" stroke-width="1.0" stroke-linecap="butt" d="M66.5 165.5L453.5 165.5" fill-rule="nonzero"/><path stroke="#f3f3f3" stroke-width="1.0" stroke-linecap="butt" d="M66.5 136.5L453.5 136.5" fill-rule="nonzero"/><path stroke="#f3f3f3" stroke-width="1.0" stroke-linecap="butt" d="M66.5 107.5L453.5 107.5" fill-rule="nonzero"/><path stroke="#f3f3f3" stroke-width="1.0" stroke-linecap="butt" d="M66.5 78.5L453.5 78.5" fill-rule="nonzero"/><path stroke="#f3f3f3" stroke-width="1.0" stroke-linecap="butt" d="M66.5 49.5L453.5 49.5" fill-rule="nonzero"/><clipPath id="id_0"><path d="M66.3 49.833332L453.7 49.833332L453.7 194.7L66.3 194.7L66.3 49.833332Z" clip-rule="nonzero"/></clipPath><path stroke="#4285f4" stroke-width="2.0" stroke-linecap="butt" clip-path="url(#id_0)" d="M66.3 75.42458L85.67 77.30081L105.04 75.699455L124.41 78.494804L143.78 78.74655L163.15 78.229965L182.52 75.275154L201.89 74.56167L221.26 74.77612L240.63 77.69684L260.0 77.974594L279.37 74.557106L298.74 78.69633L318.11 74.17723L337.48 73.21151L356.85 76.42646L376.22 74.92776L395.59 73.1829L414.96 76.73678L434.33 75.3841L453.7 75.955" fill-rule="nonzero"/><path fill="#000000" fill-opacity="0.0" clip-path="url(#id_0)" d="M69.3 75.42458C69.3 77.081436 67.956856 78.42458 66.3 78.42458C64.64314 78.42458 63.3 77.081436 63.3 75.42458C63.3 73.76773 64.64314 72.42458 66.3 72.42458C67.956856 72.42458 69.3 73.76773 69.3 75.42458Z" fill-rule="nonzero"/><path fill="#000000" fill-opacity="0.0" clip-path="url(#id_0)" d="M88.67 77.30081C88.67 78.957664 87.32685 80.30081 85.67 80.30081C84.013145 80.30081 82.67 78.957664 82.67 77.30081C82.67 75.64395 84.013145 74.30081 85.67 74.30081C87.32685 74.30081 88.67 75.64395 88.67 77.30081Z" fill-rule="nonzero"/><path fill="#000000" fill-opacity="0.0" clip-path="url(#id_0)" d="M108.04 75.699455C108.04 77.35631 106.69685 78.699455 105.04 78.699455C103.38315 78.699455 102.04 77.35631 102.04 75.699455C102.04 74.0426 103.38315 72.699455 105.04 72.699455C106.69685 72.699455 108.04 74.0426 108.04 75.699455Z" fill-rule="nonzero"/><path fill="#000000" fill-opacity="0.0" clip-path="url(#id_0)" d="M127.41 78.494804C127.41 80.15166 126.06686 81.494804 124.41 81.494804C122.75314 81.494804 121.41 80.15166 121.41 78.494804C121.41 76.83795 122.75314 75.494804 124.41 75.494804C126.06686 75.494804 127.41 76.83795 127.41 78.494804Z" fill-rule="nonzero"/><path fill="#000000" fill-opacity="0.0" clip-path="url(#id_0)" d="M146.78 78.74655C146.78 80.403404 145.43686 81.74655 143.78 81.74655C142.12314 81.74655 140.78 80.403404 140.78 78.74655C140.78 77.0897 142.12314 75.74655 143.78 75.74655C145.43686 75.74655 146.78 77.0897 146.78 78.74655Z" fill-rule="nonzero"/><path fill="#000000" fill-opacity="0.0" clip-path="url(#id_0)" d="M166.15 78.229965C166.15 79.886826 164.80685 81.229965 163.15 81.229965C161.49315 81.229965 160.15 79.886826 160.15 78.229965C160.15 76.57311 161.49315 75.229965 163.15 75.229965C164.80685 75.229965 166.15 76.57311 166.15 78.229965Z" fill-rule="nonzero"/><path fill="#000000" fill-opacity="0.0" clip-path="url(#id_0)" d="M185.52 75.275154C185.52 76.93201 184.17685 78.275154 182.52 78.275154C180.86314 78.275154 179.52 76.93201 179.52 75.275154C179.52 73.61829 180.86314 72.275154 182.52 72.275154C184.17685 72.275154 185.52 73.61829 185.52 75.275154Z" fill-rule="nonzero"/><path fill="#000000" fill-opacity="0.0" clip-path="url(#id_0)" d="M204.89 74.56167C204.89 76.21852 203.54686 77.56167 201.89 77.56167C200.23314 77.56167 198.89 76.21852 198.89 74.56167C198.89 72.904816 200.23314 71.56167 201.89 71.56167C203.54686 71.56167 204.89 72.904816 204.89 74.56167Z" fill-rule="nonzero"/><path fill="#000000" fill-opacity="0.0" clip-path="url(#id_0)" d="M224.26 74.77612C224.26 76.432976 222.91685 77.77612 221.26 77.77612C219.60315 77.77612 218.26 76.432976 218.26 74.77612C218.26 73.11927 219.60315 71.77612 221.26 71.77612C222.91685 71.77612 224.26 73.11927 224.26 74.77612Z" fill-rule="nonzero"/><path fill="#000000" fill-opacity="0.0" clip-path="url(#id_0)" d="M243.63 77.69684C243.63 79.35369 242.28685 80.69684 240.63 80.69684C238.97314 80.69684 237.63 79.35369 237.63 77.69684C237.63 76.039986 238.97314 74.69684 240.63 74.69684C242.28685 74.69684 243.63 76.039986 243.63 77.69684Z" fill-rule="nonzero"/><path fill="#000000" fill-opacity="0.0" clip-path="url(#id_0)" d="M263.0 77.974594C263.0 79.63145 261.65686 80.974594 260.0 80.974594C258.34314 80.974594 257.0 79.63145 257.0 77.974594C257.0 76.31773 258.34314 74.974594 260.0 74.974594C261.65686 74.974594 263.0 76.31773 263.0 77.974594Z" fill-rule="nonzero"/><path fill="#000000" fill-opacity="0.0" clip-path="url(#id_0)" d="M282.37 74.557106C282.37 76.21397 281.02686 77.557106 279.37 77.557106C277.71313 77.557106 276.37 76.21397 276.37 74.557106C276.37 72.90025 277.71313 71.557106 279.37 71.557106C281.02686 71.557106 282.37 72.90025 282.37 74.557106Z" fill-rule="nonzero"/><path fill="#000000" fill-opacity="0.0" clip-path="url(#id_0)" d="M301.74 78.69633C301.74 80.35318 300.39685 81.69633 298.74 81.69633C297.08316 81.69633 295.74 80.35318 295.74 78.69633C295.74 77.039474 297.08316 75.69633 298.74 75.69633C300.39685 75.69633 301.74 77.039474 301.74 78.69633Z" fill-rule="nonzero"/><path fill="#000000" fill-opacity="0.0" clip-path="url(#id_0)" d="M321.11 74.17723C321.11 75.83408 319.76685 77.17723 318.11 77.17723C316.45316 77.17723 315.11 75.83408 315.11 74.17723C315.11 72.52038 316.45316 71.17723 318.11 71.17723C319.76685 71.17723 321.11 72.52038 321.11 74.17723Z" fill-rule="nonzero"/><path fill="#000000" fill-opacity="0.0" clip-path="url(#id_0)" d="M340.48 73.21151C340.48 74.86836 339.13684 76.21151 337.48 76.21151C335.82315 76.21151 334.48 74.86836 334.48 73.21151C334.48 71.55466 335.82315 70.21151 337.48 70.21151C339.13684 70.21151 340.48 71.55466 340.48 73.21151Z" fill-rule="nonzero"/><path fill="#000000" fill-opacity="0.0" clip-path="url(#id_0)" d="M359.85 76.42646C359.85 78.08331 358.50687 79.42646 356.85 79.42646C355.19315 79.42646 353.85 78.08331 353.85 76.42646C353.85 74.76961 355.19315 73.42646 356.85 73.42646C358.50687 73.42646 359.85 74.76961 359.85 76.42646Z" fill-rule="nonzero"/><path fill="#000000" fill-opacity="0.0" clip-path="url(#id_0)" d="M379.22 74.92776C379.22 76.58462 377.87686 77.92776 376.22 77.92776C374.56314 77.92776 373.22 76.58462 373.22 74.92776C373.22 73.270905 374.56314 71.92776 376.22 71.92776C377.87686 71.92776 379.22 73.270905 379.22 74.92776Z" fill-rule="nonzero"/><path fill="#000000" fill-opacity="0.0" clip-path="url(#id_0)" d="M398.59 73.1829C398.59 74.83975 397.24686 76.1829 395.59 76.1829C393.93314 76.1829 392.59 74.83975 392.59 73.1829C392.59 71.52605 393.93314 70.1829 395.59 70.1829C397.24686 70.1829 398.59 71.52605 398.59 73.1829Z" fill-rule="nonzero"/><path fill="#000000" fill-opacity="0.0" clip-path="url(#id_0)" d="M417.96 76.73678C417.96 78.39363 416.61685 79.73678 414.96 79.73678C413.30313 79.73678 411.96 78.39363 411.96 76.73678C411.96 75.07992 413.30313 73.73678 414.96 73.73678C416.61685 73.73678 417.96 75.07992 417.96 76.73678Z" fill-rule="nonzero"/><path fill="#000000" fill-opacity="0.0" clip-path="url(#id_0)" d="M437.33 75.3841C437.33 77.040955 435.98685 78.3841 434.33 78.3841C432.67316 78.3841 431.33 77.040955 431.33 75.3841C431.33 73.72725 432.67316 72.3841 434.33 72.3841C435.98685 72.3841 437.33 73.72725 437.33 75.3841Z" fill-rule="nonzero"/><path fill="#000000" fill-opacity="0.0" clip-path="url(#id_0)" d="M456.7 75.955C456.7 77.61186 455.35684 78.955 453.7 78.955C452.04315 78.955 450.7 77.61186 450.7 75.955C450.7 74.29815 452.04315 72.955 453.7 72.955C455.35684 72.955 456.7 74.29815 456.7 75.955Z" fill-rule="nonzero"/><path fill="#000000" d="M25.8 194.46562Q25.8 192.93437 26.1125 192.0125Q26.425 191.075 27.034374 190.575Q27.659374 190.075 28.596874 190.075Q29.284374 190.075 29.8 190.35625Q30.33125 190.6375 30.675 191.16875Q31.01875 191.68437 31.20625 192.43437Q31.39375 193.18437 31.39375 194.46562Q31.39375 195.98125 31.08125 196.90312Q30.784374 197.825 30.159374 198.34062Q29.55 198.84062 28.596874 198.84062Q27.3625 198.84062 26.64375 197.95Q25.8 196.8875 25.8 194.46562ZM26.878124 194.46562Q26.878124 196.575 27.378124 197.27812Q27.878124 197.98125 28.596874 197.98125Q29.33125 197.98125 29.815624 197.27812Q30.315624 196.575 30.315624 194.46562Q30.315624 192.34062 29.815624 191.65312Q29.33125 190.95 28.58125 190.95Q27.8625 190.95 27.425 191.55937Q26.878124 192.34062 26.878124 194.46562ZM33.39375 198.7L33.39375 197.49687L34.596874 197.49687L34.596874 198.7L33.39375 198.7ZM35.8 194.46562Q35.8 192.93437 36.1125 192.0125Q36.425 191.075 37.034374 190.575Q37.659374 190.075 38.596874 190.075Q39.284374 190.075 39.8 190.35625Q40.33125 190.6375 40.675 191.16875Q41.01875 191.68437 41.20625 192.43437Q41.39375 193.18437 41.39375 194.46562Q41.39375 195.98125 41.08125 196.90312Q40.784374 197.825 40.159374 198.34062Q39.55 198.84062 38.596874 198.84062Q37.3625 198.84062 36.64375 197.95Q35.8 196.8875 35.8 194.46562ZM36.878124 194.46562Q36.878124 196.575 37.378124 197.27812Q37.878124 197.98125 38.596874 197.98125Q39.33125 197.98125 39.815624 197.27812Q40.315624 196.575 40.315624 194.46562Q40.315624 192.34062 39.815624 191.65312Q39.33125 190.95 38.58125 190.95Q37.8625 190.95 37.425 191.55937Q36.878124 192.34062 36.878124 194.46562ZM42.8 194.46562Q42.8 192.93437 43.1125 192.0125Q43.425 191.075 44.034374 190.575Q44.659374 190.075 45.596874 190.075Q46.284374 190.075 46.8 190.35625Q47.33125 190.6375 47.675 191.16875Q48.01875 191.68437 48.20625 192.43437Q48.39375 193.18437 48.39375 194.46562Q48.39375 195.98125 48.08125 196.90312Q47.784374 197.825 47.159374 198.34062Q46.55 198.84062 45.596874 198.84062Q44.3625 198.84062 43.64375 197.95Q42.8 196.8875 42.8 194.46562ZM43.878124 194.46562Q43.878124 196.575 44.378124 197.27812Q44.878124 197.98125 45.596874 197.98125Q46.33125 197.98125 46.815624 197.27812Q47.315624 196.575 47.315624 194.46562Q47.315624 192.34062 46.815624 191.65312Q46.33125 190.95 45.58125 190.95Q44.8625 190.95 44.425 191.55937Q43.878124 192.34062 43.878124 194.46562ZM50.003124 192.16875Q50.003124 191.24687 50.45625 190.60625Q50.925 189.96562 51.8 189.96562Q52.6125 189.96562 53.14375 190.54375Q53.675 191.12187 53.675 192.23125Q53.675 193.325 53.128124 193.91875Q52.596874 194.49687 51.815624 194.49687Q51.034374 194.49687 50.51875 193.91875Q50.003124 193.34062 50.003124 192.16875ZM51.83125 190.68437Q51.440624 190.68437 51.175 191.02812Q50.925 191.37187 50.925 192.27812Q50.925 193.10625 51.175 193.45Q51.440624 193.77812 51.83125 193.77812Q52.2375 193.77812 52.4875 193.43437Q52.753124 193.09062 52.753124 192.2Q52.753124 191.35625 52.4875 191.02812Q52.221874 190.68437 51.83125 190.68437ZM51.83125 199.0125L56.534374 189.96562L57.39375 189.96562L52.70625 199.0125L51.83125 199.0125ZM55.55 196.68437Q55.55 195.7625 56.003124 195.12187Q56.471874 194.48125 57.3625 194.48125Q58.175 194.48125 58.70625 195.05937Q59.2375 195.62187 59.2375 196.74687Q59.2375 197.84062 58.690624 198.43437Q58.159374 199.0125 57.3625 199.0125Q56.596874 199.0125 56.065624 198.43437Q55.55 197.85625 55.55 196.68437ZM57.39375 195.2Q56.9875 195.2 56.721874 195.54375Q56.471874 195.8875 56.471874 196.79375Q56.471874 197.60625 56.7375 197.95Q57.003124 198.29375 57.39375 198.29375Q57.784374 198.29375 58.05 197.95Q58.315624 197.60625 58.315624 196.7Q58.315624 195.87187 58.05 195.54375Q57.784374 195.2 57.39375 195.2Z" fill-rule="nonzero"/><path fill="#000000" d="M24.346874 168.71104L24.346874 169.72667L18.659374 169.72667Q18.659374 169.35167 18.784374 168.9923Q19.003124 168.41417 19.471874 167.85167Q19.95625 167.28917 20.8625 166.5548Q22.26875 165.39854 22.753124 164.72667Q23.253124 164.0548 23.253124 163.46104Q23.253124 162.83604 22.8 162.41417Q22.346874 161.97667 21.628124 161.97667Q20.8625 161.97667 20.409374 162.4298Q19.95625 162.88292 19.940624 163.69542L18.8625 163.58604Q18.971874 162.3673 19.690624 161.7423Q20.425 161.10167 21.659374 161.10167Q22.89375 161.10167 23.6125 161.78917Q24.33125 162.47667 24.33125 163.4923Q24.33125 164.00792 24.1125 164.50792Q23.909374 164.9923 23.409374 165.5548Q22.925 166.10167 21.8 167.0548Q20.846874 167.85167 20.565624 168.14854Q20.3 168.4298 20.128124 168.71104L24.346874 168.71104ZM25.8 165.4923Q25.8 163.96104 26.1125 163.03917Q26.425 162.10167 27.034374 161.60167Q27.659374 161.10167 28.596874 161.10167Q29.284374 161.10167 29.8 161.38292Q30.33125 161.66417 30.675 162.19542Q31.01875 162.71104 31.20625 163.46104Q31.39375 164.21104 31.39375 165.4923Q31.39375 167.00792 31.08125 167.9298Q30.784374 168.85167 30.159374 169.3673Q29.55 169.8673 28.596874 169.8673Q27.3625 169.8673 26.64375 168.97667Q25.8 167.91417 25.8 165.4923ZM26.878124 165.4923Q26.878124 167.60167 27.378124 168.3048Q27.878124 169.00792 28.596874 169.00792Q29.33125 169.00792 29.815624 168.3048Q30.315624 167.60167 30.315624 165.4923Q30.315624 163.3673 29.815624 162.6798Q29.33125 161.97667 28.58125 161.97667Q27.8625 161.97667 27.425 162.58604Q26.878124 163.3673 26.878124 165.4923ZM33.39375 169.72667L33.39375 168.52354L34.596874 168.52354L34.596874 169.72667L33.39375 169.72667ZM35.8 165.4923Q35.8 163.96104 36.1125 163.03917Q36.425 162.10167 37.034374 161.60167Q37.659374 161.10167 38.596874 161.10167Q39.284374 161.10167 39.8 161.38292Q40.33125 161.66417 40.675 162.19542Q41.01875 162.71104 41.20625 163.46104Q41.39375 164.21104 41.39375 165.4923Q41.39375 167.00792 41.08125 167.9298Q40.784374 168.85167 40.159374 169.3673Q39.55 169.8673 38.596874 169.8673Q37.3625 169.8673 36.64375 168.97667Q35.8 167.91417 35.8 165.4923ZM36.878124 165.4923Q36.878124 167.60167 37.378124 168.3048Q37.878124 169.00792 38.596874 169.00792Q39.33125 169.00792 39.815624 168.3048Q40.315624 167.60167 40.315624 165.4923Q40.315624 163.3673 39.815624 162.6798Q39.33125 161.97667 38.58125 161.97667Q37.8625 161.97667 37.425 162.58604Q36.878124 163.3673 36.878124 165.4923ZM42.8 165.4923Q42.8 163.96104 43.1125 163.03917Q43.425 162.10167 44.034374 161.60167Q44.659374 161.10167 45.596874 161.10167Q46.284374 161.10167 46.8 161.38292Q47.33125 161.66417 47.675 162.19542Q48.01875 162.71104 48.20625 163.46104Q48.39375 164.21104 48.39375 165.4923Q48.39375 167.00792 48.08125 167.9298Q47.784374 168.85167 47.159374 169.3673Q46.55 169.8673 45.596874 169.8673Q44.3625 169.8673 43.64375 168.97667Q42.8 167.91417 42.8 165.4923ZM43.878124 165.4923Q43.878124 167.60167 44.378124 168.3048Q44.878124 169.00792 45.596874 169.00792Q46.33125 169.00792 46.815624 168.3048Q47.315624 167.60167 47.315624 165.4923Q47.315624 163.3673 46.815624 162.6798Q46.33125 161.97667 45.58125 161.97667Q44.8625 161.97667 44.425 162.58604Q43.878124 163.3673 43.878124 165.4923ZM50.003124 163.19542Q50.003124 162.27354 50.45625 161.63292Q50.925 160.9923 51.8 160.9923Q52.6125 160.9923 53.14375 161.57042Q53.675 162.14854 53.675 163.25792Q53.675 164.35167 53.128124 164.94542Q52.596874 165.52354 51.815624 165.52354Q51.034374 165.52354 50.51875 164.94542Q50.003124 164.3673 50.003124 163.19542ZM51.83125 161.71104Q51.440624 161.71104 51.175 162.0548Q50.925 162.39854 50.925 163.3048Q50.925 164.13292 51.175 164.47667Q51.440624 164.8048 51.83125 164.8048Q52.2375 164.8048 52.4875 164.46104Q52.753124 164.1173 52.753124 163.22667Q52.753124 162.38292 52.4875 162.0548Q52.221874 161.71104 51.83125 161.71104ZM51.83125 170.03917L56.534374 160.9923L57.39375 160.9923L52.70625 170.03917L51.83125 170.03917ZM55.55 167.71104Q55.55 166.78917 56.003124 166.14854Q56.471874 165.50792 57.3625 165.50792Q58.175 165.50792 58.70625 166.08604Q59.2375 166.64854 59.2375 167.77354Q59.2375 168.8673 58.690624 169.46104Q58.159374 170.03917 57.3625 170.03917Q56.596874 170.03917 56.065624 169.46104Q55.55 168.88292 55.55 167.71104ZM57.39375 166.22667Q56.9875 166.22667 56.721874 166.57042Q56.471874 166.91417 56.471874 167.82042Q56.471874 168.63292 56.7375 168.97667Q57.003124 169.32042 57.39375 169.32042Q57.784374 169.32042 58.05 168.97667Q58.315624 168.63292 58.315624 167.72667Q58.315624 166.89854 58.05 166.57042Q57.784374 166.22667 57.39375 166.22667Z" fill-rule="nonzero"/><path fill="#000000" d="M22.175 140.75333L22.175 138.69083L18.45625 138.69083L18.45625 137.72208L22.378124 132.15958L23.2375 132.15958L23.2375 137.72208L24.39375 137.72208L24.39375 138.69083L23.2375 138.69083L23.2375 140.75333L22.175 140.75333ZM22.175 137.72208L22.175 133.8627L19.4875 137.72208L22.175 137.72208ZM25.8 136.51895Q25.8 134.9877 26.1125 134.06583Q26.425 133.12833 27.034374 132.62833Q27.659374 132.12833 28.596874 132.12833Q29.284374 132.12833 29.8 132.40958Q30.33125 132.69083 30.675 133.22208Q31.01875 133.7377 31.20625 134.4877Q31.39375 135.2377 31.39375 136.51895Q31.39375 138.03458 31.08125 138.95645Q30.784374 139.87833 30.159374 140.39395Q29.55 140.89395 28.596874 140.89395Q27.3625 140.89395 26.64375 140.00333Q25.8 138.94083 25.8 136.51895ZM26.878124 136.51895Q26.878124 138.62833 27.378124 139.33145Q27.878124 140.03458 28.596874 140.03458Q29.33125 140.03458 29.815624 139.33145Q30.315624 138.62833 30.315624 136.51895Q30.315624 134.39395 29.815624 133.70645Q29.33125 133.00333 28.58125 133.00333Q27.8625 133.00333 27.425 133.6127Q26.878124 134.39395 26.878124 136.51895ZM33.39375 140.75333L33.39375 139.5502L34.596874 139.5502L34.596874 140.75333L33.39375 140.75333ZM35.8 136.51895Q35.8 134.9877 36.1125 134.06583Q36.425 133.12833 37.034374 132.62833Q37.659374 132.12833 38.596874 132.12833Q39.284374 132.12833 39.8 132.40958Q40.33125 132.69083 40.675 133.22208Q41.01875 133.7377 41.20625 134.4877Q41.39375 135.2377 41.39375 136.51895Q41.39375 138.03458 41.08125 138.95645Q40.784374 139.87833 40.159374 140.39395Q39.55 140.89395 38.596874 140.89395Q37.3625 140.89395 36.64375 140.00333Q35.8 138.94083 35.8 136.51895ZM36.878124 136.51895Q36.878124 138.62833 37.378124 139.33145Q37.878124 140.03458 38.596874 140.03458Q39.33125 140.03458 39.815624 139.33145Q40.315624 138.62833 40.315624 136.51895Q40.315624 134.39395 39.815624 133.70645Q39.33125 133.00333 38.58125 133.00333Q37.8625 133.00333 37.425 133.6127Q36.878124 134.39395 36.878124 136.51895ZM42.8 136.51895Q42.8 134.9877 43.1125 134.06583Q43.425 133.12833 44.034374 132.62833Q44.659374 132.12833 45.596874 132.12833Q46.284374 132.12833 46.8 132.40958Q47.33125 132.69083 47.675 133.22208Q48.01875 133.7377 48.20625 134.4877Q48.39375 135.2377 48.39375 136.51895Q48.39375 138.03458 48.08125 138.95645Q47.784374 139.87833 47.159374 140.39395Q46.55 140.89395 45.596874 140.89395Q44.3625 140.89395 43.64375 140.00333Q42.8 138.94083 42.8 136.51895ZM43.878124 136.51895Q43.878124 138.62833 44.378124 139.33145Q44.878124 140.03458 45.596874 140.03458Q46.33125 140.03458 46.815624 139.33145Q47.315624 138.62833 47.315624 136.51895Q47.315624 134.39395 46.815624 133.70645Q46.33125 133.00333 45.58125 133.00333Q44.8625 133.00333 44.425 133.6127Q43.878124 134.39395 43.878124 136.51895ZM50.003124 134.22208Q50.003124 133.3002 50.45625 132.65958Q50.925 132.01895 51.8 132.01895Q52.6125 132.01895 53.14375 132.59708Q53.675 133.1752 53.675 134.28458Q53.675 135.37833 53.128124 135.97208Q52.596874 136.5502 51.815624 136.5502Q51.034374 136.5502 50.51875 135.97208Q50.003124 135.39395 50.003124 134.22208ZM51.83125 132.7377Q51.440624 132.7377 51.175 133.08145Q50.925 133.4252 50.925 134.33145Q50.925 135.15958 51.175 135.50333Q51.440624 135.83145 51.83125 135.83145Q52.2375 135.83145 52.4875 135.4877Q52.753124 135.14395 52.753124 134.25333Q52.753124 133.40958 52.4875 133.08145Q52.221874 132.7377 51.83125 132.7377ZM51.83125 141.06583L56.534374 132.01895L57.39375 132.01895L52.70625 141.06583L51.83125 141.06583ZM55.55 138.7377Q55.55 137.81583 56.003124 137.1752Q56.471874 136.53458 57.3625 136.53458Q58.175 136.53458 58.70625 137.1127Q59.2375 137.6752 59.2375 138.8002Q59.2375 139.89395 58.690624 140.4877Q58.159374 141.06583 57.3625 141.06583Q56.596874 141.06583 56.065624 140.4877Q55.55 139.90958 55.55 138.7377ZM57.39375 137.25333Q56.9875 137.25333 56.721874 137.59708Q56.471874 137.94083 56.471874 138.84708Q56.471874 139.65958 56.7375 140.00333Q57.003124 140.34708 57.39375 140.34708Q57.784374 140.34708 58.05 140.00333Q58.315624 139.65958 58.315624 138.75333Q58.315624 137.9252 58.05 137.59708Q57.784374 137.25333 57.39375 137.25333Z" fill-rule="nonzero"/><path fill="#000000" d="M24.26875 105.29562L23.221874 105.37375Q23.08125 104.74875 22.83125 104.4675Q22.39375 104.01437 21.76875 104.01437Q21.26875 104.01437 20.878124 104.29562Q20.39375 104.67062 20.096874 105.37375Q19.815624 106.06125 19.8 107.3425Q20.175 106.76437 20.721874 106.48312Q21.284374 106.20187 21.89375 106.20187Q22.940624 106.20187 23.675 106.98312Q24.425 107.76437 24.425 108.98312Q24.425 109.79562 24.065624 110.49875Q23.721874 111.18625 23.1125 111.56125Q22.503124 111.92062 21.7375 111.92062Q20.409374 111.92062 19.58125 110.95187Q18.753124 109.98312 18.753124 107.76437Q18.753124 105.26437 19.675 104.13937Q20.471874 103.155 21.83125 103.155Q22.846874 103.155 23.4875 103.73312Q24.14375 104.29562 24.26875 105.29562ZM19.971874 108.99875Q19.971874 109.54562 20.190624 110.04562Q20.425 110.53 20.83125 110.79562Q21.253124 111.06125 21.721874 111.06125Q22.378124 111.06125 22.8625 110.53Q23.346874 109.98312 23.346874 109.06125Q23.346874 108.17062 22.8625 107.655Q22.39375 107.13937 21.675 107.13937Q20.95625 107.13937 20.45625 107.655Q19.971874 108.17062 19.971874 108.99875ZM25.8 107.54562Q25.8 106.01437 26.1125 105.0925Q26.425 104.155 27.034374 103.655Q27.659374 103.155 28.596874 103.155Q29.284374 103.155 29.8 103.43625Q30.33125 103.7175 30.675 104.24875Q31.01875 104.76437 31.20625 105.51437Q31.39375 106.26437 31.39375 107.54562Q31.39375 109.06125 31.08125 109.98312Q30.784374 110.905 30.159374 111.42062Q29.55 111.92062 28.596874 111.92062Q27.3625 111.92062 26.64375 111.03Q25.8 109.9675 25.8 107.54562ZM26.878124 107.54562Q26.878124 109.655 27.378124 110.35812Q27.878124 111.06125 28.596874 111.06125Q29.33125 111.06125 29.815624 110.35812Q30.315624 109.655 30.315624 107.54562Q30.315624 105.42062 29.815624 104.73312Q29.33125 104.03 28.58125 104.03Q27.8625 104.03 27.425 104.63937Q26.878124 105.42062 26.878124 107.54562ZM33.39375 111.78L33.39375 110.57687L34.596874 110.57687L34.596874 111.78L33.39375 111.78ZM35.8 107.54562Q35.8 106.01437 36.1125 105.0925Q36.425 104.155 37.034374 103.655Q37.659374 103.155 38.596874 103.155Q39.284374 103.155 39.8 103.43625Q40.33125 103.7175 40.675 104.24875Q41.01875 104.76437 41.20625 105.51437Q41.39375 106.26437 41.39375 107.54562Q41.39375 109.06125 41.08125 109.98312Q40.784374 110.905 40.159374 111.42062Q39.55 111.92062 38.596874 111.92062Q37.3625 111.92062 36.64375 111.03Q35.8 109.9675 35.8 107.54562ZM36.878124 107.54562Q36.878124 109.655 37.378124 110.35812Q37.878124 111.06125 38.596874 111.06125Q39.33125 111.06125 39.815624 110.35812Q40.315624 109.655 40.315624 107.54562Q40.315624 105.42062 39.815624 104.73312Q39.33125 104.03 38.58125 104.03Q37.8625 104.03 37.425 104.63937Q36.878124 105.42062 36.878124 107.54562ZM42.8 107.54562Q42.8 106.01437 43.1125 105.0925Q43.425 104.155 44.034374 103.655Q44.659374 103.155 45.596874 103.155Q46.284374 103.155 46.8 103.43625Q47.33125 103.7175 47.675 104.24875Q48.01875 104.76437 48.20625 105.51437Q48.39375 106.26437 48.39375 107.54562Q48.39375 109.06125 48.08125 109.98312Q47.784374 110.905 47.159374 111.42062Q46.55 111.92062 45.596874 111.92062Q44.3625 111.92062 43.64375 111.03Q42.8 109.9675 42.8 107.54562ZM43.878124 107.54562Q43.878124 109.655 44.378124 110.35812Q44.878124 111.06125 45.596874 111.06125Q46.33125 111.06125 46.815624 110.35812Q47.315624 109.655 47.315624 107.54562Q47.315624 105.42062 46.815624 104.73312Q46.33125 104.03 45.58125 104.03Q44.8625 104.03 44.425 104.63937Q43.878124 105.42062 43.878124 107.54562ZM50.003124 105.24875Q50.003124 104.32687 50.45625 103.68625Q50.925 103.04562 51.8 103.04562Q52.6125 103.04562 53.14375 103.62375Q53.675 104.20187 53.675 105.31125Q53.675 106.405 53.128124 106.99875Q52.596874 107.57687 51.815624 107.57687Q51.034374 107.57687 50.51875 106.99875Q50.003124 106.42062 50.003124 105.24875ZM51.83125 103.76437Q51.440624 103.76437 51.175 104.10812Q50.925 104.45187 50.925 105.35812Q50.925 106.18625 51.175 106.53Q51.440624 106.85812 51.83125 106.85812Q52.2375 106.85812 52.4875 106.51437Q52.753124 106.17062 52.753124 105.28Q52.753124 104.43625 52.4875 104.10812Q52.221874 103.76437 51.83125 103.76437ZM51.83125 112.0925L56.534374 103.04562L57.39375 103.04562L52.70625 112.0925L51.83125 112.0925ZM55.55 109.76437Q55.55 108.8425 56.003124 108.20187Q56.471874 107.56125 57.3625 107.56125Q58.175 107.56125 58.70625 108.13937Q59.2375 108.70187 59.2375 109.82687Q59.2375 110.92062 58.690624 111.51437Q58.159374 112.0925 57.3625 112.0925Q56.596874 112.0925 56.065624 111.51437Q55.55 110.93625 55.55 109.76437ZM57.39375 108.28Q56.9875 108.28 56.721874 108.62375Q56.471874 108.9675 56.471874 109.87375Q56.471874 110.68625 56.7375 111.03Q57.003124 111.37375 57.39375 111.37375Q57.784374 111.37375 58.05 111.03Q58.315624 110.68625 58.315624 109.78Q58.315624 108.95187 58.05 108.62375Q57.784374 108.28 57.39375 108.28Z" fill-rule="nonzero"/><path fill="#000000" d="M20.425 78.15041Q19.76875 77.90041 19.440624 77.46291Q19.128124 77.00979 19.128124 76.40041Q19.128124 75.46291 19.8 74.82229Q20.4875 74.18166 21.596874 74.18166Q22.721874 74.18166 23.409374 74.83791Q24.096874 75.49416 24.096874 76.43166Q24.096874 77.02541 23.784374 77.46291Q23.471874 77.90041 22.83125 78.15041Q23.628124 78.40041 24.034374 78.97854Q24.440624 79.55666 24.440624 80.35354Q24.440624 81.44729 23.659374 82.19729Q22.89375 82.94729 21.6125 82.94729Q20.346874 82.94729 19.565624 82.19729Q18.784374 81.44729 18.784374 80.32229Q18.784374 79.47854 19.20625 78.91604Q19.64375 78.35354 20.425 78.15041ZM20.20625 76.35354Q20.20625 76.96291 20.596874 77.35354Q21.003124 77.74416 21.628124 77.74416Q22.2375 77.74416 22.628124 77.36916Q23.01875 76.97854 23.01875 76.41604Q23.01875 75.83791 22.6125 75.44729Q22.20625 75.04104 21.6125 75.04104Q21.003124 75.04104 20.596874 75.43166Q20.20625 75.82229 20.20625 76.35354ZM19.878124 80.32229Q19.878124 80.77541 20.08125 81.19729Q20.3 81.61916 20.721874 81.85354Q21.14375 82.08791 21.628124 82.08791Q22.378124 82.08791 22.8625 81.60354Q23.3625 81.11916 23.3625 80.36916Q23.3625 79.60354 22.8625 79.10354Q22.3625 78.60354 21.596874 78.60354Q20.846874 78.60354 20.3625 79.10354Q19.878124 79.58791 19.878124 80.32229ZM25.8 78.57229Q25.8 77.04104 26.1125 76.11916Q26.425 75.18166 27.034374 74.68166Q27.659374 74.18166 28.596874 74.18166Q29.284374 74.18166 29.8 74.46291Q30.33125 74.74416 30.675 75.27541Q31.01875 75.79104 31.20625 76.54104Q31.39375 77.29104 31.39375 78.57229Q31.39375 80.08791 31.08125 81.00979Q30.784374 81.93166 30.159374 82.44729Q29.55 82.94729 28.596874 82.94729Q27.3625 82.94729 26.64375 82.05666Q25.8 80.99416 25.8 78.57229ZM26.878124 78.57229Q26.878124 80.68166 27.378124 81.38479Q27.878124 82.08791 28.596874 82.08791Q29.33125 82.08791 29.815624 81.38479Q30.315624 80.68166 30.315624 78.57229Q30.315624 76.44729 29.815624 75.75979Q29.33125 75.05666 28.58125 75.05666Q27.8625 75.05666 27.425 75.66604Q26.878124 76.44729 26.878124 78.57229ZM33.39375 82.80666L33.39375 81.60354L34.596874 81.60354L34.596874 82.80666L33.39375 82.80666ZM35.8 78.57229Q35.8 77.04104 36.1125 76.11916Q36.425 75.18166 37.034374 74.68166Q37.659374 74.18166 38.596874 74.18166Q39.284374 74.18166 39.8 74.46291Q40.33125 74.74416 40.675 75.27541Q41.01875 75.79104 41.20625 76.54104Q41.39375 77.29104 41.39375 78.57229Q41.39375 80.08791 41.08125 81.00979Q40.784374 81.93166 40.159374 82.44729Q39.55 82.94729 38.596874 82.94729Q37.3625 82.94729 36.64375 82.05666Q35.8 80.99416 35.8 78.57229ZM36.878124 78.57229Q36.878124 80.68166 37.378124 81.38479Q37.878124 82.08791 38.596874 82.08791Q39.33125 82.08791 39.815624 81.38479Q40.315624 80.68166 40.315624 78.57229Q40.315624 76.44729 39.815624 75.75979Q39.33125 75.05666 38.58125 75.05666Q37.8625 75.05666 37.425 75.66604Q36.878124 76.44729 36.878124 78.57229ZM42.8 78.57229Q42.8 77.04104 43.1125 76.11916Q43.425 75.18166 44.034374 74.68166Q44.659374 74.18166 45.596874 74.18166Q46.284374 74.18166 46.8 74.46291Q47.33125 74.74416 47.675 75.27541Q48.01875 75.79104 48.20625 76.54104Q48.39375 77.29104 48.39375 78.57229Q48.39375 80.08791 48.08125 81.00979Q47.784374 81.93166 47.159374 82.44729Q46.55 82.94729 45.596874 82.94729Q44.3625 82.94729 43.64375 82.05666Q42.8 80.99416 42.8 78.57229ZM43.878124 78.57229Q43.878124 80.68166 44.378124 81.38479Q44.878124 82.08791 45.596874 82.08791Q46.33125 82.08791 46.815624 81.38479Q47.315624 80.68166 47.315624 78.57229Q47.315624 76.44729 46.815624 75.75979Q46.33125 75.05666 45.58125 75.05666Q44.8625 75.05666 44.425 75.66604Q43.878124 76.44729 43.878124 78.57229ZM50.003124 76.27541Q50.003124 75.35354 50.45625 74.71291Q50.925 74.07229 51.8 74.07229Q52.6125 74.07229 53.14375 74.65041Q53.675 75.22854 53.675 76.33791Q53.675 77.43166 53.128124 78.02541Q52.596874 78.60354 51.815624 78.60354Q51.034374 78.60354 50.51875 78.02541Q50.003124 77.44729 50.003124 76.27541ZM51.83125 74.79104Q51.440624 74.79104 51.175 75.13479Q50.925 75.47854 50.925 76.38479Q50.925 77.21291 51.175 77.55666Q51.440624 77.88479 51.83125 77.88479Q52.2375 77.88479 52.4875 77.54104Q52.753124 77.19729 52.753124 76.30666Q52.753124 75.46291 52.4875 75.13479Q52.221874 74.79104 51.83125 74.79104ZM51.83125 83.11916L56.534374 74.07229L57.39375 74.07229L52.70625 83.11916L51.83125 83.11916ZM55.55 80.79104Q55.55 79.86916 56.003124 79.22854Q56.471874 78.58791 57.3625 78.58791Q58.175 78.58791 58.70625 79.16604Q59.2375 79.72854 59.2375 80.85354Q59.2375 81.94729 58.690624 82.54104Q58.159374 83.11916 57.3625 83.11916Q56.596874 83.11916 56.065624 82.54104Q55.55 81.96291 55.55 80.79104ZM57.39375 79.30666Q56.9875 79.30666 56.721874 79.65041Q56.471874 79.99416 56.471874 80.90041Q56.471874 81.71291 56.7375 82.05666Q57.003124 82.40041 57.39375 82.40041Q57.784374 82.40041 58.05 82.05666Q58.315624 81.71291 58.315624 80.80666Q58.315624 79.97854 58.05 79.65041Q57.784374 79.30666 57.39375 79.30666Z" fill-rule="nonzero"/><path fill="#000000" d="M15.76875 53.833332L14.721875 53.833332L14.721875 47.114582Q14.33125 47.473957 13.70625 47.848957Q13.096875 48.208332 12.6125 48.380207L12.6125 47.364582Q13.4875 46.942707 14.14375 46.364582Q14.815625 45.770832 15.096875 45.208332L15.76875 45.208332L15.76875 53.833332ZM18.8 49.598957Q18.8 48.067707 19.1125 47.145832Q19.425 46.208332 20.034374 45.708332Q20.659374 45.208332 21.596874 45.208332Q22.284374 45.208332 22.8 45.489582Q23.33125 45.770832 23.675 46.302082Q24.01875 46.817707 24.20625 47.567707Q24.39375 48.317707 24.39375 49.598957Q24.39375 51.114582 24.08125 52.036457Q23.784374 52.958332 23.159374 53.473957Q22.55 53.973957 21.596874 53.973957Q20.3625 53.973957 19.64375 53.083332Q18.8 52.020832 18.8 49.598957ZM19.878124 49.598957Q19.878124 51.708332 20.378124 52.411457Q20.878124 53.114582 21.596874 53.114582Q22.33125 53.114582 22.815624 52.411457Q23.315624 51.708332 23.315624 49.598957Q23.315624 47.473957 22.815624 46.786457Q22.33125 46.083332 21.58125 46.083332Q20.8625 46.083332 20.425 46.692707Q19.878124 47.473957 19.878124 49.598957ZM25.8 49.598957Q25.8 48.067707 26.1125 47.145832Q26.425 46.208332 27.034374 45.708332Q27.659374 45.208332 28.596874 45.208332Q29.284374 45.208332 29.8 45.489582Q30.33125 45.770832 30.675 46.302082Q31.01875 46.817707 31.20625 47.567707Q31.39375 48.317707 31.39375 49.598957Q31.39375 51.114582 31.08125 52.036457Q30.784374 52.958332 30.159374 53.473957Q29.55 53.973957 28.596874 53.973957Q27.3625 53.973957 26.64375 53.083332Q25.8 52.020832 25.8 49.598957ZM26.878124 49.598957Q26.878124 51.708332 27.378124 52.411457Q27.878124 53.114582 28.596874 53.114582Q29.33125 53.114582 29.815624 52.411457Q30.315624 51.708332 30.315624 49.598957Q30.315624 47.473957 29.815624 46.786457Q29.33125 46.083332 28.58125 46.083332Q27.8625 46.083332 27.425 46.692707Q26.878124 47.473957 26.878124 49.598957ZM33.39375 53.833332L33.39375 52.630207L34.596874 52.630207L34.596874 53.833332L33.39375 53.833332ZM35.8 49.598957Q35.8 48.067707 36.1125 47.145832Q36.425 46.208332 37.034374 45.708332Q37.659374 45.208332 38.596874 45.208332Q39.284374 45.208332 39.8 45.489582Q40.33125 45.770832 40.675 46.302082Q41.01875 46.817707 41.20625 47.567707Q41.39375 48.317707 41.39375 49.598957Q41.39375 51.114582 41.08125 52.036457Q40.784374 52.958332 40.159374 53.473957Q39.55 53.973957 38.596874 53.973957Q37.3625 53.973957 36.64375 53.083332Q35.8 52.020832 35.8 49.598957ZM36.878124 49.598957Q36.878124 51.708332 37.378124 52.411457Q37.878124 53.114582 38.596874 53.114582Q39.33125 53.114582 39.815624 52.411457Q40.315624 51.708332 40.315624 49.598957Q40.315624 47.473957 39.815624 46.786457Q39.33125 46.083332 38.58125 46.083332Q37.8625 46.083332 37.425 46.692707Q36.878124 47.473957 36.878124 49.598957ZM42.8 49.598957Q42.8 48.067707 43.1125 47.145832Q43.425 46.208332 44.034374 45.708332Q44.659374 45.208332 45.596874 45.208332Q46.284374 45.208332 46.8 45.489582Q47.33125 45.770832 47.675 46.302082Q48.01875 46.817707 48.20625 47.567707Q48.39375 48.317707 48.39375 49.598957Q48.39375 51.114582 48.08125 52.036457Q47.784374 52.958332 47.159374 53.473957Q46.55 53.973957 45.596874 53.973957Q44.3625 53.973957 43.64375 53.083332Q42.8 52.020832 42.8 49.598957ZM43.878124 49.598957Q43.878124 51.708332 44.378124 52.411457Q44.878124 53.114582 45.596874 53.114582Q46.33125 53.114582 46.815624 52.411457Q47.315624 51.708332 47.315624 49.598957Q47.315624 47.473957 46.815624 46.786457Q46.33125 46.083332 45.58125 46.083332Q44.8625 46.083332 44.425 46.692707Q43.878124 47.473957 43.878124 49.598957ZM50.003124 47.302082Q50.003124 46.380207 50.45625 45.739582Q50.925 45.098957 51.8 45.098957Q52.6125 45.098957 53.14375 45.677082Q53.675 46.255207 53.675 47.364582Q53.675 48.458332 53.128124 49.052082Q52.596874 49.630207 51.815624 49.630207Q51.034374 49.630207 50.51875 49.052082Q50.003124 48.473957 50.003124 47.302082ZM51.83125 45.817707Q51.440624 45.817707 51.175 46.161457Q50.925 46.505207 50.925 47.411457Q50.925 48.239582 51.175 48.583332Q51.440624 48.911457 51.83125 48.911457Q52.2375 48.911457 52.4875 48.567707Q52.753124 48.223957 52.753124 47.333332Q52.753124 46.489582 52.4875 46.161457Q52.221874 45.817707 51.83125 45.817707ZM51.83125 54.145832L56.534374 45.098957L57.39375 45.098957L52.70625 54.145832L51.83125 54.145832ZM55.55 51.817707Q55.55 50.895832 56.003124 50.255207Q56.471874 49.614582 57.3625 49.614582Q58.175 49.614582 58.70625 50.192707Q59.2375 50.755207 59.2375 51.880207Q59.2375 52.973957 58.690624 53.567707Q58.159374 54.145832 57.3625 54.145832Q56.596874 54.145832 56.065624 53.567707Q55.55 52.989582 55.55 51.817707ZM57.39375 50.333332Q56.9875 50.333332 56.721874 50.677082Q56.471874 51.020832 56.471874 51.927082Q56.471874 52.739582 56.7375 53.083332Q57.003124 53.427082 57.39375 53.427082Q57.784374 53.427082 58.05 53.083332Q58.315624 52.739582 58.315624 51.833332Q58.315624 51.005207 58.05 50.677082Q57.784374 50.333332 57.39375 50.333332Z" fill-rule="nonzero"/><path fill="#000000" d="M55.26875 211.7L54.221874 211.7L54.221874 204.98125Q53.83125 205.34062 53.20625 205.71562Q52.596874 206.075 52.1125 206.24687L52.1125 205.23125Q52.9875 204.80937 53.64375 204.23125Q54.315624 203.6375 54.596874 203.075L55.26875 203.075L55.26875 211.7ZM63.846874 210.68437L63.846874 211.7L58.159374 211.7Q58.159374 211.325 58.284374 210.96562Q58.503124 210.3875 58.971874 209.825Q59.45625 209.2625 60.3625 208.52812Q61.76875 207.37187 62.253124 206.7Q62.753124 206.02812 62.753124 205.43437Q62.753124 204.80937 62.3 204.3875Q61.846874 203.95 61.128124 203.95Q60.3625 203.95 59.909374 204.40312Q59.45625 204.85625 59.440624 205.66875L58.3625 205.55937Q58.471874 204.34062 59.190624 203.71562Q59.925 203.075 61.159374 203.075Q62.39375 203.075 63.1125 203.7625Q63.83125 204.45 63.83125 205.46562Q63.83125 205.98125 63.6125 206.48125Q63.409374 206.96562 62.909374 207.52812Q62.425 208.075 61.3 209.02812Q60.346874 209.825 60.065624 210.12187Q59.8 210.40312 59.628124 210.68437L63.846874 210.68437ZM65.87813 206.68437L65.87813 205.48125L67.08125 205.48125L67.08125 206.68437L65.87813 206.68437ZM65.87813 211.7L65.87813 210.49687L67.08125 210.49687L67.08125 211.7L65.87813 211.7ZM68.3 207.46562Q68.3 205.93437 68.6125 205.0125Q68.925 204.075 69.53438 203.575Q70.15938 203.075 71.09688 203.075Q71.78438 203.075 72.3 203.35625Q72.83125 203.6375 73.175 204.16875Q73.51875 204.68437 73.70625 205.43437Q73.89375 206.18437 73.89375 207.46562Q73.89375 208.98125 73.58125 209.90312Q73.28438 210.825 72.65938 211.34062Q72.05 211.84062 71.09688 211.84062Q69.8625 211.84062 69.14375 210.95Q68.3 209.8875 68.3 207.46562ZM69.37813 207.46562Q69.37813 209.575 69.87813 210.27812Q70.37813 210.98125 71.09688 210.98125Q71.83125 210.98125 72.31563 210.27812Q72.81563 209.575 72.81563 207.46562Q72.81563 205.34062 72.31563 204.65312Q71.83125 203.95 71.08125 203.95Q70.3625 203.95 69.925 204.55937Q69.37813 205.34062 69.37813 207.46562ZM75.3 207.46562Q75.3 205.93437 75.6125 205.0125Q75.925 204.075 76.53438 203.575Q77.15938 203.075 78.09688 203.075Q78.78438 203.075 79.3 203.35625Q79.83125 203.6375 80.175 204.16875Q80.51875 204.68437 80.70625 205.43437Q80.89375 206.18437 80.89375 207.46562Q80.89375 208.98125 80.58125 209.90312Q80.28438 210.825 79.65938 211.34062Q79.05 211.84062 78.09688 211.84062Q76.8625 211.84062 76.14375 210.95Q75.3 209.8875 75.3 207.46562ZM76.37813 207.46562Q76.37813 209.575 76.87813 210.27812Q77.37813 210.98125 78.09688 210.98125Q78.83125 210.98125 79.31563 210.27812Q79.81563 209.575 79.81563 207.46562Q79.81563 205.34062 79.31563 204.65312Q78.83125 203.95 78.08125 203.95Q77.3625 203.95 76.925 204.55937Q76.37813 205.34062 76.37813 207.46562Z" fill-rule="nonzero"/><path fill="#000000" d="M132.74875 211.7L131.70187 211.7L131.70187 204.98125Q131.31125 205.34062 130.68625 205.71562Q130.07687 206.075 129.5925 206.24687L129.5925 205.23125Q130.4675 204.80937 131.12375 204.23125Q131.79562 203.6375 132.07687 203.075L132.74875 203.075L132.74875 211.7ZM141.32687 210.68437L141.32687 211.7L135.63937 211.7Q135.63937 211.325 135.76437 210.96562Q135.98312 210.3875 136.45187 209.825Q136.93625 209.2625 137.8425 208.52812Q139.24875 207.37187 139.73312 206.7Q140.23312 206.02812 140.23312 205.43437Q140.23312 204.80937 139.78 204.3875Q139.32687 203.95 138.60812 203.95Q137.8425 203.95 137.38937 204.40312Q136.93625 204.85625 136.92062 205.66875L135.8425 205.55937Q135.95187 204.34062 136.67062 203.71562Q137.405 203.075 138.63937 203.075Q139.87375 203.075 140.5925 203.7625Q141.31125 204.45 141.31125 205.46562Q141.31125 205.98125 141.0925 206.48125Q140.88937 206.96562 140.38937 207.52812Q139.905 208.075 138.78 209.02812Q137.82687 209.825 137.54562 210.12187Q137.28 210.40312 137.10812 210.68437L141.32687 210.68437ZM143.35812 206.68437L143.35812 205.48125L144.56125 205.48125L144.56125 206.68437L143.35812 206.68437ZM143.35812 211.7L143.35812 210.49687L144.56125 210.49687L144.56125 211.7L143.35812 211.7ZM151.32687 210.68437L151.32687 211.7L145.63937 211.7Q145.63937 211.325 145.76437 210.96562Q145.98312 210.3875 146.45187 209.825Q146.93625 209.2625 147.8425 208.52812Q149.24875 207.37187 149.73312 206.7Q150.23312 206.02812 150.23312 205.43437Q150.23312 204.80937 149.78 204.3875Q149.32687 203.95 148.60812 203.95Q147.8425 203.95 147.38937 204.40312Q146.93625 204.85625 146.92062 205.66875L145.8425 205.55937Q145.95187 204.34062 146.67062 203.71562Q147.405 203.075 148.63937 203.075Q149.87375 203.075 150.5925 203.7625Q151.31125 204.45 151.31125 205.46562Q151.31125 205.98125 151.0925 206.48125Q150.88937 206.96562 150.38937 207.52812Q149.905 208.075 148.78 209.02812Q147.82687 209.825 147.54562 210.12187Q147.28 210.40312 147.10812 210.68437L151.32687 210.68437ZM152.78 207.46562Q152.78 205.93437 153.0925 205.0125Q153.405 204.075 154.01437 203.575Q154.63937 203.075 155.57687 203.075Q156.26437 203.075 156.78 203.35625Q157.31125 203.6375 157.655 204.16875Q157.99875 204.68437 158.18625 205.43437Q158.37375 206.18437 158.37375 207.46562Q158.37375 208.98125 158.06125 209.90312Q157.76437 210.825 157.13937 211.34062Q156.53 211.84062 155.57687 211.84062Q154.3425 211.84062 153.62375 210.95Q152.78 209.8875 152.78 207.46562ZM153.85812 207.46562Q153.85812 209.575 154.35812 210.27812Q154.85812 210.98125 155.57687 210.98125Q156.31125 210.98125 156.79562 210.27812Q157.29562 209.575 157.29562 207.46562Q157.29562 205.34062 156.79562 204.65312Q156.31125 203.95 155.56125 203.95Q154.8425 203.95 154.405 204.55937Q153.85812 205.34062 153.85812 207.46562Z" fill-rule="nonzero"/><path fill="#000000" d="M210.22874 211.7L209.18187 211.7L209.18187 204.98125Q208.79124 205.34062 208.16624 205.71562Q207.55687 206.075 207.0725 206.24687L207.0725 205.23125Q207.9475 204.80937 208.60374 204.23125Q209.27562 203.6375 209.55687 203.075L210.22874 203.075L210.22874 211.7ZM218.80687 210.68437L218.80687 211.7L213.11937 211.7Q213.11937 211.325 213.24437 210.96562Q213.46312 210.3875 213.93187 209.825Q214.41624 209.2625 215.3225 208.52812Q216.72874 207.37187 217.21312 206.7Q217.71312 206.02812 217.71312 205.43437Q217.71312 204.80937 217.26 204.3875Q216.80687 203.95 216.08812 203.95Q215.3225 203.95 214.86937 204.40312Q214.41624 204.85625 214.40062 205.66875L213.3225 205.55937Q213.43187 204.34062 214.15062 203.71562Q214.885 203.075 216.11937 203.075Q217.35374 203.075 218.0725 203.7625Q218.79124 204.45 218.79124 205.46562Q218.79124 205.98125 218.5725 206.48125Q218.36937 206.96562 217.86937 207.52812Q217.385 208.075 216.26 209.02812Q215.30687 209.825 215.02562 210.12187Q214.76 210.40312 214.58812 210.68437L218.80687 210.68437ZM220.83812 206.68437L220.83812 205.48125L222.04124 205.48125L222.04124 206.68437L220.83812 206.68437ZM220.83812 211.7L220.83812 210.49687L222.04124 210.49687L222.04124 211.7L220.83812 211.7ZM226.635 211.7L226.635 209.6375L222.91624 209.6375L222.91624 208.66875L226.83812 203.10625L227.6975 203.10625L227.6975 208.66875L228.85374 208.66875L228.85374 209.6375L227.6975 209.6375L227.6975 211.7L226.635 211.7ZM226.635 208.66875L226.635 204.80937L223.9475 208.66875L226.635 208.66875ZM230.26 207.46562Q230.26 205.93437 230.5725 205.0125Q230.885 204.075 231.49437 203.575Q232.11937 203.075 233.05687 203.075Q233.74437 203.075 234.26 203.35625Q234.79124 203.6375 235.135 204.16875Q235.47874 204.68437 235.66624 205.43437Q235.85374 206.18437 235.85374 207.46562Q235.85374 208.98125 235.54124 209.90312Q235.24437 210.825 234.61937 211.34062Q234.01 211.84062 233.05687 211.84062Q231.8225 211.84062 231.10374 210.95Q230.26 209.8875 230.26 207.46562ZM231.33812 207.46562Q231.33812 209.575 231.83812 210.27812Q232.33812 210.98125 233.05687 210.98125Q233.79124 210.98125 234.27562 210.27812Q234.77562 209.575 234.77562 207.46562Q234.77562 205.34062 234.27562 204.65312Q233.79124 203.95 233.04124 203.95Q232.3225 203.95 231.885 204.55937Q231.33812 205.34062 231.33812 207.46562Z" fill-rule="nonzero"/><path fill="#000000" d="M287.70874 211.7L286.66187 211.7L286.66187 204.98125Q286.27124 205.34062 285.64624 205.71562Q285.03687 206.075 284.5525 206.24687L284.5525 205.23125Q285.4275 204.80937 286.08374 204.23125Q286.7556 203.6375 287.03687 203.075L287.70874 203.075L287.70874 211.7ZM290.74 209.43437L291.8025 209.29375Q291.97437 210.18437 292.41187 210.59062Q292.84937 210.98125 293.47437 210.98125Q294.22437 210.98125 294.74 210.46562Q295.2556 209.95 295.2556 209.18437Q295.2556 208.46562 294.77124 207.99687Q294.3025 207.5125 293.5681 207.5125Q293.27124 207.5125 292.8181 207.6375L292.9431 206.7Q293.0525 206.71562 293.115 206.71562Q293.78687 206.71562 294.3181 206.37187Q294.865 206.0125 294.865 205.27812Q294.865 204.7 294.47437 204.325Q294.08374 203.93437 293.45874 203.93437Q292.84937 203.93437 292.4275 204.325Q292.02124 204.71562 291.91187 205.48125L290.84937 205.29375Q291.03687 204.24687 291.72437 203.66875Q292.41187 203.075 293.4275 203.075Q294.1306 203.075 294.72437 203.3875Q295.3181 203.68437 295.6306 204.2Q295.9431 204.71562 295.9431 205.30937Q295.9431 205.85625 295.64624 206.325Q295.34937 206.77812 294.77124 207.04375Q295.52124 207.21562 295.9431 207.77812Q296.365 208.325 296.365 209.16875Q296.365 210.29375 295.53687 211.075Q294.72437 211.85625 293.47437 211.85625Q292.34937 211.85625 291.59937 211.18437Q290.84937 210.49687 290.74 209.43437ZM298.3181 206.68437L298.3181 205.48125L299.52124 205.48125L299.52124 206.68437L298.3181 206.68437ZM298.3181 211.7L298.3181 210.49687L299.52124 210.49687L299.52124 211.7L298.3181 211.7ZM300.74 207.46562Q300.74 205.93437 301.0525 205.0125Q301.365 204.075 301.97437 203.575Q302.59937 203.075 303.53687 203.075Q304.22437 203.075 304.74 203.35625Q305.27124 203.6375 305.615 204.16875Q305.95874 204.68437 306.14624 205.43437Q306.33374 206.18437 306.33374 207.46562Q306.33374 208.98125 306.02124 209.90312Q305.72437 210.825 305.09937 211.34062Q304.49 211.84062 303.53687 211.84062Q302.3025 211.84062 301.58374 210.95Q300.74 209.8875 300.74 207.46562ZM301.8181 207.46562Q301.8181 209.575 302.3181 210.27812Q302.8181 210.98125 303.53687 210.98125Q304.27124 210.98125 304.7556 210.27812Q305.2556 209.575 305.2556 207.46562Q305.2556 205.34062 304.7556 204.65312Q304.27124 203.95 303.52124 203.95Q302.8025 203.95 302.365 204.55937Q301.8181 205.34062 301.8181 207.46562ZM307.74 207.46562Q307.74 205.93437 308.0525 205.0125Q308.365 204.075 308.97437 203.575Q309.59937 203.075 310.53687 203.075Q311.22437 203.075 311.74 203.35625Q312.27124 203.6375 312.615 204.16875Q312.95874 204.68437 313.14624 205.43437Q313.33374 206.18437 313.33374 207.46562Q313.33374 208.98125 313.02124 209.90312Q312.72437 210.825 312.09937 211.34062Q311.49 211.84062 310.53687 211.84062Q309.3025 211.84062 308.58374 210.95Q307.74 209.8875 307.74 207.46562ZM308.8181 207.46562Q308.8181 209.575 309.3181 210.27812Q309.8181 210.98125 310.53687 210.98125Q311.27124 210.98125 311.7556 210.27812Q312.2556 209.575 312.2556 207.46562Q312.2556 205.34062 311.7556 204.65312Q311.27124 203.95 310.52124 203.95Q309.8025 203.95 309.365 204.55937Q308.8181 205.34062 308.8181 207.46562Z" fill-rule="nonzero"/><path fill="#000000" d="M365.18875 211.7L364.14188 211.7L364.14188 204.98125Q363.75125 205.34062 363.12625 205.71562Q362.51688 206.075 362.0325 206.24687L362.0325 205.23125Q362.9075 204.80937 363.56375 204.23125Q364.23563 203.6375 364.51688 203.075L365.18875 203.075L365.18875 211.7ZM368.22 209.43437L369.2825 209.29375Q369.45438 210.18437 369.89188 210.59062Q370.32938 210.98125 370.95438 210.98125Q371.70438 210.98125 372.22 210.46562Q372.73563 209.95 372.73563 209.18437Q372.73563 208.46562 372.25125 207.99687Q371.7825 207.5125 371.04813 207.5125Q370.75125 207.5125 370.29813 207.6375L370.42313 206.7Q370.5325 206.71562 370.595 206.71562Q371.26688 206.71562 371.79813 206.37187Q372.345 206.0125 372.345 205.27812Q372.345 204.7 371.95438 204.325Q371.56375 203.93437 370.93875 203.93437Q370.32938 203.93437 369.9075 204.325Q369.50125 204.71562 369.39188 205.48125L368.32938 205.29375Q368.51688 204.24687 369.20438 203.66875Q369.89188 203.075 370.9075 203.075Q371.61063 203.075 372.20438 203.3875Q372.79813 203.68437 373.11063 204.2Q373.42313 204.71562 373.42313 205.30937Q373.42313 205.85625 373.12625 206.325Q372.82938 206.77812 372.25125 207.04375Q373.00125 207.21562 373.42313 207.77812Q373.845 208.325 373.845 209.16875Q373.845 210.29375 373.01688 211.075Q372.20438 211.85625 370.95438 211.85625Q369.82938 211.85625 369.07938 211.18437Q368.32938 210.49687 368.22 209.43437ZM375.79813 206.68437L375.79813 205.48125L377.00125 205.48125L377.00125 206.68437L375.79813 206.68437ZM375.79813 211.7L375.79813 210.49687L377.00125 210.49687L377.00125 211.7L375.79813 211.7ZM383.76688 210.68437L383.76688 211.7L378.07938 211.7Q378.07938 211.325 378.20438 210.96562Q378.42313 210.3875 378.89188 209.825Q379.37625 209.2625 380.2825 208.52812Q381.68875 207.37187 382.17313 206.7Q382.67313 206.02812 382.67313 205.43437Q382.67313 204.80937 382.22 204.3875Q381.76688 203.95 381.04813 203.95Q380.2825 203.95 379.82938 204.40312Q379.37625 204.85625 379.36063 205.66875L378.2825 205.55937Q378.39188 204.34062 379.11063 203.71562Q379.845 203.075 381.07938 203.075Q382.31375 203.075 383.0325 203.7625Q383.75125 204.45 383.75125 205.46562Q383.75125 205.98125 383.5325 206.48125Q383.32938 206.96562 382.82938 207.52812Q382.345 208.075 381.22 209.02812Q380.26688 209.825 379.98563 210.12187Q379.72 210.40312 379.54813 210.68437L383.76688 210.68437ZM385.22 207.46562Q385.22 205.93437 385.5325 205.0125Q385.845 204.075 386.45438 203.575Q387.07938 203.075 388.01688 203.075Q388.70438 203.075 389.22 203.35625Q389.75125 203.6375 390.095 204.16875Q390.43875 204.68437 390.62625 205.43437Q390.81375 206.18437 390.81375 207.46562Q390.81375 208.98125 390.50125 209.90312Q390.20438 210.825 389.57938 211.34062Q388.97 211.84062 388.01688 211.84062Q386.7825 211.84062 386.06375 210.95Q385.22 209.8875 385.22 207.46562ZM386.29813 207.46562Q386.29813 209.575 386.79813 210.27812Q387.29813 210.98125 388.01688 210.98125Q388.75125 210.98125 389.23563 210.27812Q389.73563 209.575 389.73563 207.46562Q389.73563 205.34062 389.23563 204.65312Q388.75125 203.95 388.00125 203.95Q387.2825 203.95 386.845 204.55937Q386.29813 205.34062 386.29813 207.46562Z" fill-rule="nonzero"/><path fill="#757575" d="M12.76875 30.3L12.76875 15.987499L14.659375 15.987499L14.659375 28.6125L21.70625 28.6125L21.70625 30.3L12.76875 30.3ZM23.628124 18.003124L23.628124 15.987499L25.39375 15.987499L25.39375 18.003124L23.628124 18.003124ZM23.628124 30.3L23.628124 19.925L25.39375 19.925L25.39375 30.3L23.628124 30.3ZM27.6125 30.3L27.6125 19.925L29.20625 19.925L29.20625 21.409374Q30.346874 19.690624 32.503124 19.690624Q33.440624 19.690624 34.221874 20.034374Q35.01875 20.3625 35.409374 20.909374Q35.8 21.45625 35.95625 22.20625Q36.05 22.70625 36.05 23.925L36.05 30.3L34.284374 30.3L34.284374 23.9875Q34.284374 22.909374 34.08125 22.378124Q33.878124 21.846874 33.346874 21.534374Q32.83125 21.221874 32.128124 21.221874Q31.003124 21.221874 30.190624 21.940624Q29.378124 22.64375 29.378124 24.628124L29.378124 30.3L27.6125 30.3ZM37.628124 30.3L37.628124 15.987499L39.39375 15.987499L39.39375 24.14375L43.55 19.925L45.815624 19.925L41.8625 23.76875L46.221874 30.3L44.05 30.3L40.628124 25.003124L39.39375 26.190624L39.39375 30.3L37.628124 30.3ZM63.2375 15.987499L65.12813 15.987499L65.12813 24.253124Q65.12813 26.409374 64.64375 27.690624Q64.15938 28.95625 62.878124 29.753124Q61.6125 30.55 59.534374 30.55Q57.51875 30.55 56.2375 29.8625Q54.971874 29.159374 54.425 27.846874Q53.878124 26.534374 53.878124 24.253124L53.878124 15.987499L55.76875 15.987499L55.76875 24.2375Q55.76875 26.1125 56.1125 27.003124Q56.45625 27.878124 57.3 28.3625Q58.14375 28.83125 59.378124 28.83125Q61.45625 28.83125 62.346874 27.89375Q63.2375 26.940624 63.2375 24.2375L63.2375 15.987499ZM70.45625 28.721874L70.70625 30.284374Q69.97188 30.440624 69.37813 30.440624Q68.425 30.440624 67.89375 30.14375Q67.37813 29.83125 67.15938 29.346874Q66.94063 28.846874 66.94063 27.26875L66.94063 21.3L65.65938 21.3L65.65938 19.925L66.94063 19.925L66.94063 17.3625L68.69063 16.3L68.69063 19.925L70.45625 19.925L70.45625 21.3L68.69063 21.3L68.69063 27.3625Q68.69063 28.1125 68.78438 28.33125Q68.87813 28.534374 69.08125 28.675Q69.3 28.8 69.69063 28.8Q69.97188 28.8 70.45625 28.721874ZM72.62813 18.003124L72.62813 15.987499L74.39375 15.987499L74.39375 18.003124L72.62813 18.003124ZM72.62813 30.3L72.62813 19.925L74.39375 19.925L74.39375 30.3L72.62813 30.3ZM76.58125 30.3L76.58125 15.987499L78.33125 15.987499L78.33125 30.3L76.58125 30.3ZM80.62813 18.003124L80.62813 15.987499L82.39375 15.987499L82.39375 18.003124L80.62813 18.003124ZM80.62813 30.3L80.62813 19.925L82.39375 19.925L82.39375 30.3L80.62813 30.3ZM83.69063 30.3L83.69063 28.878124L90.3 21.3Q89.175 21.346874 88.31563 21.346874L84.08125 21.346874L84.08125 19.925L92.56563 19.925L92.56563 21.096874L86.94063 27.675L85.8625 28.878124Q87.03438 28.784374 88.08125 28.784374L92.87813 28.784374L92.87813 30.3L83.69063 30.3ZM100.39375 29.01875Q99.40938 29.846874 98.50313 30.190624Q97.59688 30.534374 96.56563 30.534374Q94.8625 30.534374 93.94063 29.70625Q93.01875 28.8625 93.01875 27.565624Q93.01875 26.8 93.3625 26.175Q93.72188 25.55 94.28438 25.175Q94.84688 24.784374 95.55 24.58125Q96.06563 24.45625 97.1125 24.315624Q99.2375 24.065624 100.2375 23.721874Q100.25313 23.3625 100.25313 23.253124Q100.25313 22.190624 99.75313 21.7375Q99.08125 21.14375 97.75313 21.14375Q96.50313 21.14375 95.90938 21.58125Q95.33125 22.01875 95.05 23.128124L93.33125 22.89375Q93.56563 21.784374 94.09688 21.1125Q94.62813 20.425 95.64375 20.065624Q96.65938 19.690624 98.00313 19.690624Q99.33125 19.690624 100.15938 20.003124Q100.9875 20.315624 101.37813 20.8Q101.76875 21.26875 101.925 21.9875Q102.01875 22.440624 102.01875 23.6125L102.01875 25.95625Q102.01875 28.409374 102.12813 29.065624Q102.2375 29.70625 102.58125 30.3L100.7375 30.3Q100.47188 29.753124 100.39375 29.01875ZM100.2375 25.096874Q99.28438 25.4875 97.3625 25.753124Q96.28438 25.909374 95.83125 26.1125Q95.39375 26.3 95.14375 26.675Q94.89375 27.05 94.89375 27.51875Q94.89375 28.221874 95.425 28.690624Q95.95625 29.159374 96.9875 29.159374Q98.00313 29.159374 98.78438 28.721874Q99.58125 28.26875 99.95625 27.503124Q100.2375 26.89375 100.2375 25.7375L100.2375 25.096874ZM108.45625 28.721874L108.70625 30.284374Q107.97188 30.440624 107.37813 30.440624Q106.425 30.440624 105.89375 30.14375Q105.37813 29.83125 105.15938 29.346874Q104.94063 28.846874 104.94063 27.26875L104.94063 21.3L103.65938 21.3L103.65938 19.925L104.94063 19.925L104.94063 17.3625L106.69063 16.3L106.69063 19.925L108.45625 19.925L108.45625 21.3L106.69063 21.3L106.69063 27.3625Q106.69063 28.1125 106.78438 28.33125Q106.87813 28.534374 107.08125 28.675Q107.3 28.8 107.69063 28.8Q107.97188 28.8 108.45625 28.721874ZM110.62813 18.003124L110.62813 15.987499L112.39375 15.987499L112.39375 18.003124L110.62813 18.003124ZM110.62813 30.3L110.62813 19.925L112.39375 19.925L112.39375 30.3L110.62813 30.3ZM113.97188 25.1125Q113.97188 22.2375 115.56563 20.846874Q116.90938 19.690624 118.83125 19.690624Q120.97188 19.690624 122.31563 21.096874Q123.675 22.503124 123.675 24.971874Q123.675 26.971874 123.08125 28.128124Q122.4875 29.26875 121.33125 29.909374Q120.19063 30.534374 118.83125 30.534374Q116.64375 30.534374 115.3 29.14375Q113.97188 27.7375 113.97188 25.1125ZM115.76875 25.1125Q115.76875 27.1125 116.62813 28.096874Q117.50313 29.08125 118.83125 29.08125Q120.14375 29.08125 121.00313 28.096874Q121.87813 27.096874 121.87813 25.05Q121.87813 23.128124 121.00313 22.14375Q120.12813 21.14375 118.83125 21.14375Q117.50313 21.14375 116.62813 22.14375Q115.76875 23.128124 115.76875 25.1125ZM125.6125 30.3L125.6125 19.925L127.20625 19.925L127.20625 21.409374Q128.34688 19.690624 130.50313 19.690624Q131.44063 19.690624 132.22188 20.034374Q133.01875 20.3625 133.40938 20.909374Q133.8 21.45625 133.95625 22.20625Q134.05 22.70625 134.05 23.925L134.05 30.3L132.28438 30.3L132.28438 23.9875Q132.28438 22.909374 132.08125 22.378124Q131.87813 21.846874 131.34688 21.534374Q130.83125 21.221874 130.12813 21.221874Q129.00313 21.221874 128.19063 21.940624Q127.37813 22.64375 127.37813 24.628124L127.37813 30.3L125.6125 30.3ZM144.97188 34.503124Q143.51875 32.675 142.51875 30.221874Q141.51875 27.753124 141.51875 25.1125Q141.51875 22.784374 142.26875 20.659374Q143.14375 18.190624 144.97188 15.737499L146.2375 15.737499Q145.05 17.76875 144.675 18.64375Q144.08125 19.9875 143.7375 21.45625Q143.31563 23.284374 143.31563 25.128124Q143.31563 29.815624 146.2375 34.503124L144.97188 34.503124ZM148.12813 26.55L149.97188 26.39375Q150.175 27.7375 150.925 28.425Q151.675 29.096874 152.7375 29.096874Q154.00313 29.096874 154.87813 28.14375Q155.75313 27.190624 155.75313 25.596874Q155.75313 24.096874 154.90938 23.2375Q154.06563 22.3625 152.70625 22.3625Q151.84688 22.3625 151.15938 22.753124Q150.4875 23.128124 150.09688 23.753124L148.44063 23.534374L149.83125 16.175L156.95625 16.175L156.95625 17.8625L151.2375 17.8625L150.47188 21.70625Q151.75313 20.8 153.175 20.8Q155.05 20.8 156.33125 22.1125Q157.62813 23.409374 157.62813 25.440624Q157.62813 27.39375 156.4875 28.8Q155.1125 30.55 152.7375 30.55Q150.78438 30.55 149.53438 29.45625Q148.3 28.3625 148.12813 26.55ZM165.6125 30.3L165.6125 19.925L167.19063 19.925L167.19063 21.378124Q167.675 20.628124 168.4875 20.159374Q169.3 19.690624 170.33125 19.690624Q171.4875 19.690624 172.22188 20.175Q172.95625 20.64375 173.26875 21.503124Q174.50313 19.690624 176.47188 19.690624Q178.01875 19.690624 178.84688 20.55Q179.675 21.409374 179.675 23.175L179.675 30.3L177.925 30.3L177.925 23.76875Q177.925 22.70625 177.75313 22.253124Q177.58125 21.784374 177.12813 21.503124Q176.69063 21.221874 176.08125 21.221874Q174.9875 21.221874 174.25313 21.95625Q173.53438 22.675 173.53438 24.26875L173.53438 30.3L171.78438 30.3L171.78438 23.565624Q171.78438 22.39375 171.34688 21.815624Q170.925 21.221874 169.94063 21.221874Q169.20625 21.221874 168.56563 21.6125Q167.94063 22.003124 167.65938 22.753124Q167.37813 23.503124 167.37813 24.925L167.37813 30.3L165.6125 30.3ZM181.62813 18.003124L181.62813 15.987499L183.39375 15.987499L183.39375 18.003124L181.62813 18.003124ZM181.62813 30.3L181.62813 19.925L183.39375 19.925L183.39375 30.3L181.62813 30.3ZM185.6125 30.3L185.6125 19.925L187.20625 19.925L187.20625 21.409374Q188.34688 19.690624 190.50313 19.690624Q191.44063 19.690624 192.22188 20.034374Q193.01875 20.3625 193.40938 20.909374Q193.8 21.45625 193.95625 22.20625Q194.05 22.70625 194.05 23.925L194.05 30.3L192.28438 30.3L192.28438 23.9875Q192.28438 22.909374 192.08125 22.378124Q191.87813 21.846874 191.34688 21.534374Q190.83125 21.221874 190.12813 21.221874Q189.00313 21.221874 188.19063 21.940624Q187.37813 22.64375 187.37813 24.628124L187.37813 30.3L185.6125 30.3ZM202.40938 30.3L202.40938 28.76875Q201.20625 30.534374 199.12813 30.534374Q198.20625 30.534374 197.40938 30.190624Q196.6125 29.83125 196.22188 29.3Q195.84688 28.76875 195.69063 27.9875Q195.58125 27.471874 195.58125 26.346874L195.58125 19.925L197.33125 19.925L197.33125 25.675Q197.33125 27.05 197.44063 27.534374Q197.6125 28.221874 198.14375 28.628124Q198.69063 29.01875 199.47188 29.01875Q200.26875 29.01875 200.95625 28.6125Q201.65938 28.20625 201.94063 27.51875Q202.2375 26.815624 202.2375 25.4875L202.2375 19.925L203.9875 19.925L203.9875 30.3L202.40938 30.3ZM209.45625 28.721874L209.70625 30.284374Q208.97188 30.440624 208.37813 30.440624Q207.425 30.440624 206.89375 30.14375Q206.37813 29.83125 206.15938 29.346874Q205.94063 28.846874 205.94063 27.26875L205.94063 21.3L204.65938 21.3L204.65938 19.925L205.94063 19.925L205.94063 17.3625L207.69063 16.3L207.69063 19.925L209.45625 19.925L209.45625 21.3L207.69063 21.3L207.69063 27.3625Q207.69063 28.1125 207.78438 28.33125Q207.87813 28.534374 208.08125 28.675Q208.3 28.8 208.69063 28.8Q208.97188 28.8 209.45625 28.721874ZM218.72188 26.95625L220.53438 27.190624Q220.1125 28.76875 218.94063 29.659374Q217.78438 30.534374 215.97188 30.534374Q213.70625 30.534374 212.3625 29.14375Q211.03438 27.7375 211.03438 25.20625Q211.03438 22.58125 212.37813 21.14375Q213.72188 19.690624 215.87813 19.690624Q217.95625 19.690624 219.26875 21.1125Q220.59688 22.51875 220.59688 25.096874Q220.59688 25.253124 220.58125 25.565624L212.84688 25.565624Q212.94063 27.26875 213.81563 28.175Q214.69063 29.08125 215.9875 29.08125Q216.95625 29.08125 217.62813 28.58125Q218.31563 28.065624 218.72188 26.95625ZM212.94063 24.1125L218.7375 24.1125Q218.62813 22.815624 218.08125 22.159374Q217.2375 21.14375 215.89375 21.14375Q214.69063 21.14375 213.8625 21.95625Q213.03438 22.753124 212.94063 24.1125ZM223.76875 34.503124L222.51875 34.503124Q225.425 29.815624 225.425 25.128124Q225.425 23.284374 225.01875 21.4875Q224.675 20.01875 224.08125 18.675Q223.70625 17.784374 222.51875 15.737499L223.76875 15.737499Q225.6125 18.190624 226.4875 20.659374Q227.2375 22.784374 227.2375 25.1125Q227.2375 27.753124 226.22188 30.221874Q225.22188 32.675 223.76875 34.503124Z" fill-rule="nonzero"/></svg>