<svg version="1.1" viewBox="0.0 0.0 465.0 226.0" fill="none" stroke="none" stroke-linecap="square" stroke-miterlimit="10" width="465" height="226" xmlns:xlink="http://www.w3.org/1999/xlink" xmlns="http://www.w3.org/2000/svg"><path fill="#ffffff" d="M0 0L465.0 0L465.0 226.0L0 226.0L0 0Z" fill-rule="nonzero"/><path stroke="#cccccc" stroke-width="1.0" stroke-linecap="butt" d="M66.5 49.5L66.5 194.5" fill-rule="nonzero"/><path stroke="#cccccc" stroke-width="1.0" stroke-linecap="butt" d="M144.5 49.5L144.5 194.5" fill-rule="nonzero"/><path stroke="#cccccc" stroke-width="1.0" stroke-linecap="butt" d="M222.5 49.5L222.5 194.5" fill-rule="nonzero"/><path stroke="#cccccc" stroke-width="1.0" stroke-linecap="butt" d="M301.5 49.5L301.5 194.5" fill-rule="nonzero"/><path stroke="#cccccc" stroke-width="1.0" stroke-linecap="butt" d="M379.5 49.5L379.5 194.5" fill-rule="nonzero"/><path stroke="#333333" stroke-width="1.0" stroke-linecap="butt" d="M66.5 194.5L453.5 194.5" fill-rule="nonzero"/><path stroke="#cccccc" stroke-width="1.0" stroke-linecap="butt" d="M66.5 165.5L453.5 165.5" fill-rule="nonzero"/><path stroke="#cccccc" stroke-width="1.0" stroke-linecap="butt" d="M66.5 136.5L453.5 136.5" fill-rule="nonzero"/><path stroke="#cccccc" stroke-width="1.0" stroke-linecap="butt" d="M66.5 107.5L453.5 107.5" fill-rule="nonzero"/><path stroke="#cccccc" stroke-width="1.0" stroke-linecap="butt" d="M66.5 78.5L453.5 78.5" fill-rule="nonzero"/><path stroke="#cccccc" stroke-width="1.0" stroke-linecap="butt" d="M66.5 49.5L453.5 49.5" fill-rule="nonzero"/><clipPath id="id_0"><path d="M66.3 49.833332L453.7 49.833332L453.7 194.7L66.3 194.7L66.3 49.833332Z" clip-rule="nonzero"/></clipPath><path stroke="#4285f4" stroke-width="2.0" stroke-linecap="butt" clip-path="url(#id_0)" d="M66.3 51.282L70.213135 51.282L74.12626 51.282L78.03939 51.282L81.95252 194.7L85.865654 194.7L89.778786 51.282L93.69192 51.282L97.60505 51.282L101.51818 51.282L105.43131 51.282L109.344444 51.282L113.257576 51.282L117.17071 194.7L121.08384 194.7L124.99697 51.282L128.9101 51.282L132.82323 51.282L136.73636 51.282L140.64949 51.282L144.56262 51.282L148.47575 51.282L152.38889 51.282L156.30202 51.282L160.21515 51.282L164.12828 194.7L168.04141 194.7L171.95454 51.282L175.86768 51.282L179.7808 51.282L183.69394 51.282L187.60707 51.282L191.5202 51.282L195.43333 194.7L199.34647 194.7L203.2596 51.282L207.17273 51.282L211.08586 51.282L214.999 51.282L218.91212 51.282L222.82526 51.282L226.73839 51.282L230.65152 51.282L234.56465 51.282L238.47778 194.7L242.39091 194.7L246.30405 51.282L250.21718 51.282L254.13031 51.282L258.04343 51.282L261.95657 51.282L265.8697 51.282L269.78284 51.282L273.69595 51.282L277.6091 51.282L281.52222 194.7L285.43536 194.7L289.34848 51.282L293.26163 51.282L297.17474 51.282L301.0879 51.282L305.001 51.282L308.91415 51.282L312.82727 51.282L316.74042 194.7L320.65353 194.7L324.56668 51.282L328.4798 51.282L332.39294 51.282L336.30606 51.282L340.21918 51.282L344.13232 51.282L348.04544 51.282L351.9586 194.7L355.8717 194.7L359.78485 51.282L363.69797 51.282L367.6111 51.282L371.52423 51.282L375.43738 51.282L379.3505 51.282L383.26364 51.282L387.17676 51.282L391.0899 51.282L395.00302 51.282L398.91617 194.7L402.82928 194.7L406.74243 51.282L410.65555 51.282L414.5687 51.282L418.4818 51.282L422.39496 51.282L426.30807 51.282L430.22122 51.282L434.13434 51.282L438.0475 194.7L441.9606 194.7L445.87375 51.282L449.78687 51.282L453.7 51.282" fill-rule="nonzero"/><path fill="#000000" fill-opacity="0.0" clip-path="url(#id_0)" d="M69.3 51.282C69.3 52.938854 67.956856 54.282 66.3 54.282C64.64314 54.282 63.3 52.938854 63.3 51.282C63.3 49.625145 64.64314 48.282 66.3 48.282C67.956856 48.282 69.3 49.625145 69.3 51.282Z" fill-rule="nonzero"/><path fill="#000000" fill-opacity="0.0" clip-path="url(#id_0)" d="M73.213135 51.282C73.213135 52.938854 71.86999 54.282 70.213135 54.282C68.556274 54.282 67.213135 52.938854 67.213135 51.282C67.213135 49.625145 68.556274 48.282 70.213135 48.282C71.86999 48.282 73.213135 49.625145 73.213135 51.282Z" fill-rule="nonzero"/><path fill="#000000" fill-opacity="0.0" clip-path="url(#id_0)" d="M77.12626 51.282C77.12626 52.938854 75.78312 54.282 74.12626 54.282C72.469406 54.282 71.12626 52.938854 71.12626 51.282C71.12626 49.625145 72.469406 48.282 74.12626 48.282C75.78312 48.282 77.12626 49.625145 77.12626 51.282Z" fill-rule="nonzero"/><path fill="#000000" fill-opacity="0.0" clip-path="url(#id_0)" d="M81.03939 51.282C81.03939 52.938854 79.69625 54.282 78.03939 54.282C76.38254 54.282 75.03939 52.938854 75.03939 51.282C75.03939 49.625145 76.38254 48.282 78.03939 48.282C79.69625 48.282 81.03939 49.625145 81.03939 51.282Z" fill-rule="nonzero"/><path fill="#000000" fill-opacity="0.0" clip-path="url(#id_0)" d="M84.95252 194.7C84.95252 196.35686 83.60938 197.7 81.95252 197.7C80.29567 197.7 78.95252 196.35686 78.95252 194.7C78.95252 193.04315 80.29567 191.7 81.95252 191.7C83.60938 191.7 84.95252 193.04315 84.95252 194.7Z" fill-rule="nonzero"/><path fill="#000000" fill-opacity="0.0" clip-path="url(#id_0)" d="M88.865654 194.7C88.865654 196.35686 87.522514 197.7 85.865654 197.7C84.2088 197.7 82.865654 196.35686 82.865654 194.7C82.865654 193.04315 84.2088 191.7 85.865654 191.7C87.522514 191.7 88.865654 193.04315 88.865654 194.7Z" fill-rule="nonzero"/><path fill="#000000" fill-opacity="0.0" clip-path="url(#id_0)" d="M92.778786 51.282C92.778786 52.938854 91.43564 54.282 89.778786 54.282C88.12193 54.282 86.778786 52.938854 86.778786 51.282C86.778786 49.625145 88.12193 48.282 89.778786 48.282C91.43564 48.282 92.778786 49.625145 92.778786 51.282Z" fill-rule="nonzero"/><path fill="#000000" fill-opacity="0.0" clip-path="url(#id_0)" d="M96.69192 51.282C96.69192 52.938854 95.34877 54.282 93.69192 54.282C92.035065 54.282 90.69192 52.938854 90.69192 51.282C90.69192 49.625145 92.035065 48.282 93.69192 48.282C95.34877 48.282 96.69192 49.625145 96.69192 51.282Z" fill-rule="nonzero"/><path fill="#000000" fill-opacity="0.0" clip-path="url(#id_0)" d="M100.60505 51.282C100.60505 52.938854 99.2619 54.282 97.60505 54.282C95.9482 54.282 94.60505 52.938854 94.60505 51.282C94.60505 49.625145 95.9482 48.282 97.60505 48.282C99.2619 48.282 100.60505 49.625145 100.60505 51.282Z" fill-rule="nonzero"/><path fill="#000000" fill-opacity="0.0" clip-path="url(#id_0)" d="M104.51818 51.282C104.51818 52.938854 103.17503 54.282 101.51818 54.282C99.86133 54.282 98.51818 52.938854 98.51818 51.282C98.51818 49.625145 99.86133 48.282 101.51818 48.282C103.17503 48.282 104.51818 49.625145 104.51818 51.282Z" fill-rule="nonzero"/><path fill="#000000" fill-opacity="0.0" clip-path="url(#id_0)" d="M108.43131 51.282C108.43131 52.938854 107.088165 54.282 105.43131 54.282C103.77446 54.282 102.43131 52.938854 102.43131 51.282C102.43131 49.625145 103.77446 48.282 105.43131 48.282C107.088165 48.282 108.43131 49.625145 108.43131 51.282Z" fill-rule="nonzero"/><path fill="#000000" fill-opacity="0.0" clip-path="url(#id_0)" d="M112.344444 51.282C112.344444 52.938854 111.0013 54.282 109.344444 54.282C107.68759 54.282 106.344444 52.938854 106.344444 51.282C106.344444 49.625145 107.68759 48.282 109.344444 48.282C111.0013 48.282 112.344444 49.625145 112.344444 51.282Z" fill-rule="nonzero"/><path fill="#000000" fill-opacity="0.0" clip-path="url(#id_0)" d="M116.257576 51.282C116.257576 52.938854 114.91443 54.282 113.257576 54.282C111.60072 54.282 110.257576 52.938854 110.257576 51.282C110.257576 49.625145 111.60072 48.282 113.257576 48.282C114.91443 48.282 116.257576 49.625145 116.257576 51.282Z" fill-rule="nonzero"/><path fill="#000000" fill-opacity="0.0" clip-path="url(#id_0)" d="M120.17071 194.7C120.17071 196.35686 118.82756 197.7 117.17071 197.7C115.513855 197.7 114.17071 196.35686 114.17071 194.7C114.17071 193.04315 115.513855 191.7 117.17071 191.7C118.82756 191.7 120.17071 193.04315 120.17071 194.7Z" fill-rule="nonzero"/><path fill="#000000" fill-opacity="0.0" clip-path="url(#id_0)" d="M124.08384 194.7C124.08384 196.35686 122.74069 197.7 121.08384 197.7C119.42699 197.7 118.08384 196.35686 118.08384 194.7C118.08384 193.04315 119.42699 191.7 121.08384 191.7C122.74069 191.7 124.08384 193.04315 124.08384 194.7Z" fill-rule="nonzero"/><path fill="#000000" fill-opacity="0.0" clip-path="url(#id_0)" d="M127.99697 51.282C127.99697 52.938854 126.653824 54.282 124.99697 54.282C123.34012 54.282 121.99697 52.938854 121.99697 51.282C121.99697 49.625145 123.34012 48.282 124.99697 48.282C126.653824 48.282 127.99697 49.625145 127.99697 51.282Z" fill-rule="nonzero"/><path fill="#000000" fill-opacity="0.0" clip-path="url(#id_0)" d="M131.9101 51.282C131.9101 52.938854 130.56696 54.282 128.9101 54.282C127.25325 54.282 125.9101 52.938854 125.9101 51.282C125.9101 49.625145 127.25325 48.282 128.9101 48.282C130.56696 48.282 131.9101 49.625145 131.9101 51.282Z" fill-rule="nonzero"/><path fill="#000000" fill-opacity="0.0" clip-path="url(#id_0)" d="M135.82323 51.282C135.82323 52.938854 134.48009 54.282 132.82323 54.282C131.16638 54.282 129.82323 52.938854 129.82323 51.282C129.82323 49.625145 131.16638 48.282 132.82323 48.282C134.48009 48.282 135.82323 49.625145 135.82323 51.282Z" fill-rule="nonzero"/><path fill="#000000" fill-opacity="0.0" clip-path="url(#id_0)" d="M139.73636 51.282C139.73636 52.938854 138.39322 54.282 136.73636 54.282C135.07951 54.282 133.73636 52.938854 133.73636 51.282C133.73636 49.625145 135.07951 48.282 136.73636 48.282C138.39322 48.282 139.73636 49.625145 139.73636 51.282Z" fill-rule="nonzero"/><path fill="#000000" fill-opacity="0.0" clip-path="url(#id_0)" d="M143.64949 51.282C143.64949 52.938854 142.30635 54.282 140.64949 54.282C138.99265 54.282 137.64949 52.938854 137.64949 51.282C137.64949 49.625145 138.99265 48.282 140.64949 48.282C142.30635 48.282 143.64949 49.625145 143.64949 51.282Z" fill-rule="nonzero"/><path fill="#000000" fill-opacity="0.0" clip-path="url(#id_0)" d="M147.56262 51.282C147.56262 52.938854 146.21948 54.282 144.56262 54.282C142.90578 54.282 141.56262 52.938854 141.56262 51.282C141.56262 49.625145 142.90578 48.282 144.56262 48.282C146.21948 48.282 147.56262 49.625145 147.56262 51.282Z" fill-rule="nonzero"/><path fill="#000000" fill-opacity="0.0" clip-path="url(#id_0)" d="M151.47575 51.282C151.47575 52.938854 150.13261 54.282 148.47575 54.282C146.81891 54.282 145.47575 52.938854 145.47575 51.282C145.47575 49.625145 146.81891 48.282 148.47575 48.282C150.13261 48.282 151.47575 49.625145 151.47575 51.282Z" fill-rule="nonzero"/><path fill="#000000" fill-opacity="0.0" clip-path="url(#id_0)" d="M155.38889 51.282C155.38889 52.938854 154.04575 54.282 152.38889 54.282C150.73204 54.282 149.38889 52.938854 149.38889 51.282C149.38889 49.625145 150.73204 48.282 152.38889 48.282C154.04575 48.282 155.38889 49.625145 155.38889 51.282Z" fill-rule="nonzero"/><path fill="#000000" fill-opacity="0.0" clip-path="url(#id_0)" d="M159.30202 51.282C159.30202 52.938854 157.95888 54.282 156.30202 54.282C154.64517 54.282 153.30202 52.938854 153.30202 51.282C153.30202 49.625145 154.64517 48.282 156.30202 48.282C157.95888 48.282 159.30202 49.625145 159.30202 51.282Z" fill-rule="nonzero"/><path fill="#000000" fill-opacity="0.0" clip-path="url(#id_0)" d="M163.21515 51.282C163.21515 52.938854 161.87201 54.282 160.21515 54.282C158.5583 54.282 157.21515 52.938854 157.21515 51.282C157.21515 49.625145 158.5583 48.282 160.21515 48.282C161.87201 48.282 163.21515 49.625145 163.21515 51.282Z" fill-rule="nonzero"/><path fill="#000000" fill-opacity="0.0" clip-path="url(#id_0)" d="M167.12828 194.7C167.12828 196.35686 165.78514 197.7 164.12828 197.7C162.47144 197.7 161.12828 196.35686 161.12828 194.7C161.12828 193.04315 162.47144 191.7 164.12828 191.7C165.78514 191.7 167.12828 193.04315 167.12828 194.7Z" fill-rule="nonzero"/><path fill="#000000" fill-opacity="0.0" clip-path="url(#id_0)" d="M171.04141 194.7C171.04141 196.35686 169.69827 197.7 168.04141 197.7C166.38457 197.7 165.04141 196.35686 165.04141 194.7C165.04141 193.04315 166.38457 191.7 168.04141 191.7C169.69827 191.7 171.04141 193.04315 171.04141 194.7Z" fill-rule="nonzero"/><path fill="#000000" fill-opacity="0.0" clip-path="url(#id_0)" d="M174.95454 51.282C174.95454 52.938854 173.6114 54.282 171.95454 54.282C170.29768 54.282 168.95454 52.938854 168.95454 51.282C168.95454 49.625145 170.29768 48.282 171.95454 48.282C173.6114 48.282 174.95454 49.625145 174.95454 51.282Z" fill-rule="nonzero"/><path fill="#000000" fill-opacity="0.0" clip-path="url(#id_0)" d="M178.86768 51.282C178.86768 52.938854 177.52454 54.282 175.86768 54.282C174.21082 54.282 172.86768 52.938854 172.86768 51.282C172.86768 49.625145 174.21082 48.282 175.86768 48.282C177.52454 48.282 178.86768 49.625145 178.86768 51.282Z" fill-rule="nonzero"/><path fill="#000000" fill-opacity="0.0" clip-path="url(#id_0)" d="M182.7808 51.282C182.7808 52.938854 181.43767 54.282 179.7808 54.282C178.12395 54.282 176.7808 52.938854 176.7808 51.282C176.7808 49.625145 178.12395 48.282 179.7808 48.282C181.43767 48.282 182.7808 49.625145 182.7808 51.282Z" fill-rule="nonzero"/><path fill="#000000" fill-opacity="0.0" clip-path="url(#id_0)" d="M186.69394 51.282C186.69394 52.938854 185.3508 54.282 183.69394 54.282C182.03708 54.282 180.69394 52.938854 180.69394 51.282C180.69394 49.625145 182.03708 48.282 183.69394 48.282C185.3508 48.282 186.69394 49.625145 186.69394 51.282Z" fill-rule="nonzero"/><path fill="#000000" fill-opacity="0.0" clip-path="url(#id_0)" d="M190.60707 51.282C190.60707 52.938854 189.26393 54.282 187.60707 54.282C185.95021 54.282 184.60707 52.938854 184.60707 51.282C184.60707 49.625145 185.95021 48.282 187.60707 48.282C189.26393 48.282 190.60707 49.625145 190.60707 51.282Z" fill-rule="nonzero"/><path fill="#000000" fill-opacity="0.0" clip-path="url(#id_0)" d="M194.5202 51.282C194.5202 52.938854 193.17706 54.282 191.5202 54.282C189.86334 54.282 188.5202 52.938854 188.5202 51.282C188.5202 49.625145 189.86334 48.282 191.5202 48.282C193.17706 48.282 194.5202 49.625145 194.5202 51.282Z" fill-rule="nonzero"/><path fill="#000000" fill-opacity="0.0" clip-path="url(#id_0)" d="M198.43333 194.7C198.43333 196.35686 197.0902 197.7 195.43333 197.7C193.77647 197.7 192.43333 196.35686 192.43333 194.7C192.43333 193.04315 193.77647 191.7 195.43333 191.7C197.0902 191.7 198.43333 193.04315 198.43333 194.7Z" fill-rule="nonzero"/><path fill="#000000" fill-opacity="0.0" clip-path="url(#id_0)" d="M202.34647 194.7C202.34647 196.35686 201.00333 197.7 199.34647 197.7C197.6896 197.7 196.34647 196.35686 196.34647 194.7C196.34647 193.04315 197.6896 191.7 199.34647 191.7C201.00333 191.7 202.34647 193.04315 202.34647 194.7Z" fill-rule="nonzero"/><path fill="#000000" fill-opacity="0.0" clip-path="url(#id_0)" d="M206.2596 51.282C206.2596 52.938854 204.91644 54.282 203.2596 54.282C201.60274 54.282 200.2596 52.938854 200.2596 51.282C200.2596 49.625145 201.60274 48.282 203.2596 48.282C204.91644 48.282 206.2596 49.625145 206.2596 51.282Z" fill-rule="nonzero"/><path fill="#000000" fill-opacity="0.0" clip-path="url(#id_0)" d="M210.17273 51.282C210.17273 52.938854 208.82957 54.282 207.17273 54.282C205.51587 54.282 204.17273 52.938854 204.17273 51.282C204.17273 49.625145 205.51587 48.282 207.17273 48.282C208.82957 48.282 210.17273 49.625145 210.17273 51.282Z" fill-rule="nonzero"/><path fill="#000000" fill-opacity="0.0" clip-path="url(#id_0)" d="M214.08586 51.282C214.08586 52.938854 212.7427 54.282 211.08586 54.282C209.429 54.282 208.08586 52.938854 208.08586 51.282C208.08586 49.625145 209.429 48.282 211.08586 48.282C212.7427 48.282 214.08586 49.625145 214.08586 51.282Z" fill-rule="nonzero"/><path fill="#000000" fill-opacity="0.0" clip-path="url(#id_0)" d="M217.999 51.282C217.999 52.938854 216.65584 54.282 214.999 54.282C213.34213 54.282 211.999 52.938854 211.999 51.282C211.999 49.625145 213.34213 48.282 214.999 48.282C216.65584 48.282 217.999 49.625145 217.999 51.282Z" fill-rule="nonzero"/><path fill="#000000" fill-opacity="0.0" clip-path="url(#id_0)" d="M221.91212 51.282C221.91212 52.938854 220.56897 54.282 218.91212 54.282C217.25526 54.282 215.91212 52.938854 215.91212 51.282C215.91212 49.625145 217.25526 48.282 218.91212 48.282C220.56897 48.282 221.91212 49.625145 221.91212 51.282Z" fill-rule="nonzero"/><path fill="#000000" fill-opacity="0.0" clip-path="url(#id_0)" d="M225.82526 51.282C225.82526 52.938854 224.4821 54.282 222.82526 54.282C221.1684 54.282 219.82526 52.938854 219.82526 51.282C219.82526 49.625145 221.1684 48.282 222.82526 48.282C224.4821 48.282 225.82526 49.625145 225.82526 51.282Z" fill-rule="nonzero"/><path fill="#000000" fill-opacity="0.0" clip-path="url(#id_0)" d="M229.73839 51.282C229.73839 52.938854 228.39523 54.282 226.73839 54.282C225.08153 54.282 223.73839 52.938854 223.73839 51.282C223.73839 49.625145 225.08153 48.282 226.73839 48.282C228.39523 48.282 229.73839 49.625145 229.73839 51.282Z" fill-rule="nonzero"/><path fill="#000000" fill-opacity="0.0" clip-path="url(#id_0)" d="M233.65152 51.282C233.65152 52.938854 232.30836 54.282 230.65152 54.282C228.99466 54.282 227.65152 52.938854 227.65152 51.282C227.65152 49.625145 228.99466 48.282 230.65152 48.282C232.30836 48.282 233.65152 49.625145 233.65152 51.282Z" fill-rule="nonzero"/><path fill="#000000" fill-opacity="0.0" clip-path="url(#id_0)" d="M237.56465 51.282C237.56465 52.938854 236.2215 54.282 234.56465 54.282C232.90779 54.282 231.56465 52.938854 231.56465 51.282C231.56465 49.625145 232.90779 48.282 234.56465 48.282C236.2215 48.282 237.56465 49.625145 237.56465 51.282Z" fill-rule="nonzero"/><path fill="#000000" fill-opacity="0.0" clip-path="url(#id_0)" d="M241.47778 194.7C241.47778 196.35686 240.13463 197.7 238.47778 197.7C236.82092 197.7 235.47778 196.35686 235.47778 194.7C235.47778 193.04315 236.82092 191.7 238.47778 191.7C240.13463 191.7 241.47778 193.04315 241.47778 194.7Z" fill-rule="nonzero"/><path fill="#000000" fill-opacity="0.0" clip-path="url(#id_0)" d="M245.39091 194.7C245.39091 196.35686 244.04776 197.7 242.39091 197.7C240.73405 197.7 239.39091 196.35686 239.39091 194.7C239.39091 193.04315 240.73405 191.7 242.39091 191.7C244.04776 191.7 245.39091 193.04315 245.39091 194.7Z" fill-rule="nonzero"/><path fill="#000000" fill-opacity="0.0" clip-path="url(#id_0)" d="M249.30405 51.282C249.30405 52.938854 247.96089 54.282 246.30405 54.282C244.64719 54.282 243.30405 52.938854 243.30405 51.282C243.30405 49.625145 244.64719 48.282 246.30405 48.282C247.96089 48.282 249.30405 49.625145 249.30405 51.282Z" fill-rule="nonzero"/><path fill="#000000" fill-opacity="0.0" clip-path="url(#id_0)" d="M253.21718 51.282C253.21718 52.938854 251.87402 54.282 250.21718 54.282C248.56032 54.282 247.21718 52.938854 247.21718 51.282C247.21718 49.625145 248.56032 48.282 250.21718 48.282C251.87402 48.282 253.21718 49.625145 253.21718 51.282Z" fill-rule="nonzero"/><path fill="#000000" fill-opacity="0.0" clip-path="url(#id_0)" d="M257.1303 51.282C257.1303 52.938854 255.78716 54.282 254.13031 54.282C252.47345 54.282 251.13031 52.938854 251.13031 51.282C251.13031 49.625145 252.47345 48.282 254.13031 48.282C255.78716 48.282 257.1303 49.625145 257.1303 51.282Z" fill-rule="nonzero"/><path fill="#000000" fill-opacity="0.0" clip-path="url(#id_0)" d="M261.04343 51.282C261.04343 52.938854 259.7003 54.282 258.04343 54.282C256.38657 54.282 255.04344 52.938854 255.04344 51.282C255.04344 49.625145 256.38657 48.282 258.04343 48.282C259.7003 48.282 261.04343 49.625145 261.04343 51.282Z" fill-rule="nonzero"/><path fill="#000000" fill-opacity="0.0" clip-path="url(#id_0)" d="M264.95657 51.282C264.95657 52.938854 263.61343 54.282 261.95657 54.282C260.2997 54.282 258.95657 52.938854 258.95657 51.282C258.95657 49.625145 260.2997 48.282 261.95657 48.282C263.61343 48.282 264.95657 49.625145 264.95657 51.282Z" fill-rule="nonzero"/><path fill="#000000" fill-opacity="0.0" clip-path="url(#id_0)" d="M268.8697 51.282C268.8697 52.938854 267.52655 54.282 265.8697 54.282C264.21283 54.282 262.8697 52.938854 262.8697 51.282C262.8697 49.625145 264.21283 48.282 265.8697 48.282C267.52655 48.282 268.8697 49.625145 268.8697 51.282Z" fill-rule="nonzero"/><path fill="#000000" fill-opacity="0.0" clip-path="url(#id_0)" d="M272.78284 51.282C272.78284 52.938854 271.4397 54.282 269.78284 54.282C268.12598 54.282 266.78284 52.938854 266.78284 51.282C266.78284 49.625145 268.12598 48.282 269.78284 48.282C271.4397 48.282 272.78284 49.625145 272.78284 51.282Z" fill-rule="nonzero"/><path fill="#000000" fill-opacity="0.0" clip-path="url(#id_0)" d="M276.69595 51.282C276.69595 52.938854 275.3528 54.282 273.69595 54.282C272.0391 54.282 270.69595 52.938854 270.69595 51.282C270.69595 49.625145 272.0391 48.282 273.69595 48.282C275.3528 48.282 276.69595 49.625145 276.69595 51.282Z" fill-rule="nonzero"/><path fill="#000000" fill-opacity="0.0" clip-path="url(#id_0)" d="M280.6091 51.282C280.6091 52.938854 279.26593 54.282 277.6091 54.282C275.95224 54.282 274.6091 52.938854 274.6091 51.282C274.6091 49.625145 275.95224 48.282 277.6091 48.282C279.26593 48.282 280.6091 49.625145 280.6091 51.282Z" fill-rule="nonzero"/><path fill="#000000" fill-opacity="0.0" clip-path="url(#id_0)" d="M284.52222 194.7C284.52222 196.35686 283.17908 197.7 281.52222 197.7C279.86536 197.7 278.52222 196.35686 278.52222 194.7C278.52222 193.04315 279.86536 191.7 281.52222 191.7C283.17908 191.7 284.52222 193.04315 284.52222 194.7Z" fill-rule="nonzero"/><path fill="#000000" fill-opacity="0.0" clip-path="url(#id_0)" d="M288.43536 194.7C288.43536 196.35686 287.0922 197.7 285.43536 197.7C283.7785 197.7 282.43536 196.35686 282.43536 194.7C282.43536 193.04315 283.7785 191.7 285.43536 191.7C287.0922 191.7 288.43536 193.04315 288.43536 194.7Z" fill-rule="nonzero"/><path fill="#000000" fill-opacity="0.0" clip-path="url(#id_0)" d="M292.34848 51.282C292.34848 52.938854 291.00534 54.282 289.34848 54.282C287.69162 54.282 286.34848 52.938854 286.34848 51.282C286.34848 49.625145 287.69162 48.282 289.34848 48.282C291.00534 48.282 292.34848 49.625145 292.34848 51.282Z" fill-rule="nonzero"/><path fill="#000000" fill-opacity="0.0" clip-path="url(#id_0)" d="M296.26163 51.282C296.26163 52.938854 294.91846 54.282 293.26163 54.282C291.60477 54.282 290.26163 52.938854 290.26163 51.282C290.26163 49.625145 291.60477 48.282 293.26163 48.282C294.91846 48.282 296.26163 49.625145 296.26163 51.282Z" fill-rule="nonzero"/><path fill="#000000" fill-opacity="0.0" clip-path="url(#id_0)" d="M300.17474 51.282C300.17474 52.938854 298.8316 54.282 297.17474 54.282C295.51788 54.282 294.17474 52.938854 294.17474 51.282C294.17474 49.625145 295.51788 48.282 297.17474 48.282C298.8316 48.282 300.17474 49.625145 300.17474 51.282Z" fill-rule="nonzero"/><path fill="#000000" fill-opacity="0.0" clip-path="url(#id_0)" d="M304.0879 51.282C304.0879 52.938854 302.74472 54.282 301.0879 54.282C299.43103 54.282 298.0879 52.938854 298.0879 51.282C298.0879 49.625145 299.43103 48.282 301.0879 48.282C302.74472 48.282 304.0879 49.625145 304.0879 51.282Z" fill-rule="nonzero"/><path fill="#000000" fill-opacity="0.0" clip-path="url(#id_0)" d="M308.001 51.282C308.001 52.938854 306.65787 54.282 305.001 54.282C303.34415 54.282 302.001 52.938854 302.001 51.282C302.001 49.625145 303.34415 48.282 305.001 48.282C306.65787 48.282 308.001 49.625145 308.001 51.282Z" fill-rule="nonzero"/><path fill="#000000" fill-opacity="0.0" clip-path="url(#id_0)" d="M311.91415 51.282C311.91415 52.938854 310.57098 54.282 308.91415 54.282C307.2573 54.282 305.91415 52.938854 305.91415 51.282C305.91415 49.625145 307.2573 48.282 308.91415 48.282C310.57098 48.282 311.91415 49.625145 311.91415 51.282Z" fill-rule="nonzero"/><path fill="#000000" fill-opacity="0.0" clip-path="url(#id_0)" d="M315.82727 51.282C315.82727 52.938854 314.48413 54.282 312.82727 54.282C311.1704 54.282 309.82727 52.938854 309.82727 51.282C309.82727 49.625145 311.1704 48.282 312.82727 48.282C314.48413 48.282 315.82727 49.625145 315.82727 51.282Z" fill-rule="nonzero"/><path fill="#000000" fill-opacity="0.0" clip-path="url(#id_0)" d="M319.74042 194.7C319.74042 196.35686 318.39725 197.7 316.74042 197.7C315.08356 197.7 313.74042 196.35686 313.74042 194.7C313.74042 193.04315 315.08356 191.7 316.74042 191.7C318.39725 191.7 319.74042 193.04315 319.74042 194.7Z" fill-rule="nonzero"/><path fill="#000000" fill-opacity="0.0" clip-path="url(#id_0)" d="M323.65353 194.7C323.65353 196.35686 322.3104 197.7 320.65353 197.7C318.99667 197.7 317.65353 196.35686 317.65353 194.7C317.65353 193.04315 318.99667 191.7 320.65353 191.7C322.3104 191.7 323.65353 193.04315 323.65353 194.7Z" fill-rule="nonzero"/><path fill="#000000" fill-opacity="0.0" clip-path="url(#id_0)" d="M327.56668 51.282C327.56668 52.938854 326.2235 54.282 324.56668 54.282C322.90982 54.282 321.56668 52.938854 321.56668 51.282C321.56668 49.625145 322.90982 48.282 324.56668 48.282C326.2235 48.282 327.56668 49.625145 327.56668 51.282Z" fill-rule="nonzero"/><path fill="#000000" fill-opacity="0.0" clip-path="url(#id_0)" d="M331.4798 51.282C331.4798 52.938854 330.13666 54.282 328.4798 54.282C326.82294 54.282 325.4798 52.938854 325.4798 51.282C325.4798 49.625145 326.82294 48.282 328.4798 48.282C330.13666 48.282 331.4798 49.625145 331.4798 51.282Z" fill-rule="nonzero"/><path fill="#000000" fill-opacity="0.0" clip-path="url(#id_0)" d="M335.39294 51.282C335.39294 52.938854 334.04977 54.282 332.39294 54.282C330.73608 54.282 329.39294 52.938854 329.39294 51.282C329.39294 49.625145 330.73608 48.282 332.39294 48.282C334.04977 48.282 335.39294 49.625145 335.39294 51.282Z" fill-rule="nonzero"/><path fill="#000000" fill-opacity="0.0" clip-path="url(#id_0)" d="M339.30606 51.282C339.30606 52.938854 337.96292 54.282 336.30606 54.282C334.6492 54.282 333.30606 52.938854 333.30606 51.282C333.30606 49.625145 334.6492 48.282 336.30606 48.282C337.96292 48.282 339.30606 49.625145 339.30606 51.282Z" fill-rule="nonzero"/><path fill="#000000" fill-opacity="0.0" clip-path="url(#id_0)" d="M343.21918 51.282C343.21918 52.938854 341.87604 54.282 340.21918 54.282C338.56235 54.282 337.21918 52.938854 337.21918 51.282C337.21918 49.625145 338.56235 48.282 340.21918 48.282C341.87604 48.282 343.21918 49.625145 343.21918 51.282Z" fill-rule="nonzero"/><path fill="#000000" fill-opacity="0.0" clip-path="url(#id_0)" d="M347.13232 51.282C347.13232 52.938854 345.78918 54.282 344.13232 54.282C342.47546 54.282 341.13232 52.938854 341.13232 51.282C341.13232 49.625145 342.47546 48.282 344.13232 48.282C345.78918 48.282 347.13232 49.625145 347.13232 51.282Z" fill-rule="nonzero"/><path fill="#000000" fill-opacity="0.0" clip-path="url(#id_0)" d="M351.04544 51.282C351.04544 52.938854 349.7023 54.282 348.04544 54.282C346.3886 54.282 345.04544 52.938854 345.04544 51.282C345.04544 49.625145 346.3886 48.282 348.04544 48.282C349.7023 48.282 351.04544 49.625145 351.04544 51.282Z" fill-rule="nonzero"/><path fill="#000000" fill-opacity="0.0" clip-path="url(#id_0)" d="M354.9586 194.7C354.9586 196.35686 353.61545 197.7 351.9586 197.7C350.30173 197.7 348.9586 196.35686 348.9586 194.7C348.9586 193.04315 350.30173 191.7 351.9586 191.7C353.61545 191.7 354.9586 193.04315 354.9586 194.7Z" fill-rule="nonzero"/><path fill="#000000" fill-opacity="0.0" clip-path="url(#id_0)" d="M358.8717 194.7C358.8717 196.35686 357.52856 197.7 355.8717 197.7C354.21487 197.7 352.8717 196.35686 352.8717 194.7C352.8717 193.04315 354.21487 191.7 355.8717 191.7C357.52856 191.7 358.8717 193.04315 358.8717 194.7Z" fill-rule="nonzero"/><path fill="#000000" fill-opacity="0.0" clip-path="url(#id_0)" d="M362.78485 51.282C362.78485 52.938854 361.4417 54.282 359.78485 54.282C358.128 54.282 356.78485 52.938854 356.78485 51.282C356.78485 49.625145 358.128 48.282 359.78485 48.282C361.4417 48.282 362.78485 49.625145 362.78485 51.282Z" fill-rule="nonzero"/><path fill="#000000" fill-opacity="0.0" clip-path="url(#id_0)" d="M366.69797 51.282C366.69797 52.938854 365.35483 54.282 363.69797 54.282C362.04114 54.282 360.69797 52.938854 360.69797 51.282C360.69797 49.625145 362.04114 48.282 363.69797 48.282C365.35483 48.282 366.69797 49.625145 366.69797 51.282Z" fill-rule="nonzero"/><path fill="#000000" fill-opacity="0.0" clip-path="url(#id_0)" d="M370.6111 51.282C370.6111 52.938854 369.26797 54.282 367.6111 54.282C365.95425 54.282 364.6111 52.938854 364.6111 51.282C364.6111 49.625145 365.95425 48.282 367.6111 48.282C369.26797 48.282 370.6111 49.625145 370.6111 51.282Z" fill-rule="nonzero"/><path fill="#000000" fill-opacity="0.0" clip-path="url(#id_0)" d="M374.52423 51.282C374.52423 52.938854 373.1811 54.282 371.52423 54.282C369.8674 54.282 368.52423 52.938854 368.52423 51.282C368.52423 49.625145 369.8674 48.282 371.52423 48.282C373.1811 48.282 374.52423 49.625145 374.52423 51.282Z" fill-rule="nonzero"/><path fill="#000000" fill-opacity="0.0" clip-path="url(#id_0)" d="M378.43738 51.282C378.43738 52.938854 377.09424 54.282 375.43738 54.282C373.78052 54.282 372.43738 52.938854 372.43738 51.282C372.43738 49.625145 373.78052 48.282 375.43738 48.282C377.09424 48.282 378.43738 49.625145 378.43738 51.282Z" fill-rule="nonzero"/><path fill="#000000" fill-opacity="0.0" clip-path="url(#id_0)" d="M382.3505 51.282C382.3505 52.938854 381.00735 54.282 379.3505 54.282C377.69366 54.282 376.3505 52.938854 376.3505 51.282C376.3505 49.625145 377.69366 48.282 379.3505 48.282C381.00735 48.282 382.3505 49.625145 382.3505 51.282Z" fill-rule="nonzero"/><path fill="#000000" fill-opacity="0.0" clip-path="url(#id_0)" d="M386.26364 51.282C386.26364 52.938854 384.9205 54.282 383.26364 54.282C381.60678 54.282 380.26364 52.938854 380.26364 51.282C380.26364 49.625145 381.60678 48.282 383.26364 48.282C384.9205 48.282 386.26364 49.625145 386.26364 51.282Z" fill-rule="nonzero"/><path fill="#000000" fill-opacity="0.0" clip-path="url(#id_0)" d="M390.17676 51.282C390.17676 52.938854 388.83362 54.282 387.17676 54.282C385.51993 54.282 384.17676 52.938854 384.17676 51.282C384.17676 49.625145 385.51993 48.282 387.17676 48.282C388.83362 48.282 390.17676 49.625145 390.17676 51.282Z" fill-rule="nonzero"/><path fill="#000000" fill-opacity="0.0" clip-path="url(#id_0)" d="M394.0899 51.282C394.0899 52.938854 392.74677 54.282 391.0899 54.282C389.43304 54.282 388.0899 52.938854 388.0899 51.282C388.0899 49.625145 389.43304 48.282 391.0899 48.282C392.74677 48.282 394.0899 49.625145 394.0899 51.282Z" fill-rule="nonzero"/><path fill="#000000" fill-opacity="0.0" clip-path="url(#id_0)" d="M398.00302 51.282C398.00302 52.938854 396.65988 54.282 395.00302 54.282C393.34616 54.282 392.00302 52.938854 392.00302 51.282C392.00302 49.625145 393.34616 48.282 395.00302 48.282C396.65988 48.282 398.00302 49.625145 398.00302 51.282Z" fill-rule="nonzero"/><path fill="#000000" fill-opacity="0.0" clip-path="url(#id_0)" d="M401.91617 194.7C401.91617 196.35686 400.57303 197.7 398.91617 197.7C397.2593 197.7 395.91617 196.35686 395.91617 194.7C395.91617 193.04315 397.2593 191.7 398.91617 191.7C400.57303 191.7 401.91617 193.04315 401.91617 194.7Z" fill-rule="nonzero"/><path fill="#000000" fill-opacity="0.0" clip-path="url(#id_0)" d="M405.82928 194.7C405.82928 196.35686 404.48615 197.7 402.82928 197.7C401.17242 197.7 399.82928 196.35686 399.82928 194.7C399.82928 193.04315 401.17242 191.7 402.82928 191.7C404.48615 191.7 405.82928 193.04315 405.82928 194.7Z" fill-rule="nonzero"/><path fill="#000000" fill-opacity="0.0" clip-path="url(#id_0)" d="M409.74243 51.282C409.74243 52.938854 408.3993 54.282 406.74243 54.282C405.08557 54.282 403.74243 52.938854 403.74243 51.282C403.74243 49.625145 405.08557 48.282 406.74243 48.282C408.3993 48.282 409.74243 49.625145 409.74243 51.282Z" fill-rule="nonzero"/><path fill="#000000" fill-opacity="0.0" clip-path="url(#id_0)" d="M413.65555 51.282C413.65555 52.938854 412.3124 54.282 410.65555 54.282C408.9987 54.282 407.65555 52.938854 407.65555 51.282C407.65555 49.625145 408.9987 48.282 410.65555 48.282C412.3124 48.282 413.65555 49.625145 413.65555 51.282Z" fill-rule="nonzero"/><path fill="#000000" fill-opacity="0.0" clip-path="url(#id_0)" d="M417.5687 51.282C417.5687 52.938854 416.22556 54.282 414.5687 54.282C412.91183 54.282 411.5687 52.938854 411.5687 51.282C411.5687 49.625145 412.91183 48.282 414.5687 48.282C416.22556 48.282 417.5687 49.625145 417.5687 51.282Z" fill-rule="nonzero"/><path fill="#000000" fill-opacity="0.0" clip-path="url(#id_0)" d="M421.4818 51.282C421.4818 52.938854 420.13867 54.282 418.4818 54.282C416.82495 54.282 415.4818 52.938854 415.4818 51.282C415.4818 49.625145 416.82495 48.282 418.4818 48.282C420.13867 48.282 421.4818 49.625145 421.4818 51.282Z" fill-rule="nonzero"/><path fill="#000000" fill-opacity="0.0" clip-path="url(#id_0)" d="M425.39496 51.282C425.39496 52.938854 424.05182 54.282 422.39496 54.282C420.7381 54.282 419.39496 52.938854 419.39496 51.282C419.39496 49.625145 420.7381 48.282 422.39496 48.282C424.05182 48.282 425.39496 49.625145 425.39496 51.282Z" fill-rule="nonzero"/><path fill="#000000" fill-opacity="0.0" clip-path="url(#id_0)" d="M429.30807 51.282C429.30807 52.938854 427.96494 54.282 426.30807 54.282C424.6512 54.282 423.30807 52.938854 423.30807 51.282C423.30807 49.625145 424.6512 48.282 426.30807 48.282C427.96494 48.282 429.30807 49.625145 429.30807 51.282Z" fill-rule="nonzero"/><path fill="#000000" fill-opacity="0.0" clip-path="url(#id_0)" d="M433.22122 51.282C433.22122 52.938854 431.87805 54.282 430.22122 54.282C428.56436 54.282 427.22122 52.938854 427.22122 51.282C427.22122 49.625145 428.56436 48.282 430.22122 48.282C431.87805 48.282 433.22122 49.625145 433.22122 51.282Z" fill-rule="nonzero"/><path fill="#000000" fill-opacity="0.0" clip-path="url(#id_0)" d="M437.13434 51.282C437.13434 52.938854 435.7912 54.282 434.13434 54.282C432.47748 54.282 431.13434 52.938854 431.13434 51.282C431.13434 49.625145 432.47748 48.282 434.13434 48.282C435.7912 48.282 437.13434 49.625145 437.13434 51.282Z" fill-rule="nonzero"/><path fill="#000000" fill-opacity="0.0" clip-path="url(#id_0)" d="M441.0475 194.7C441.0475 196.35686 439.7043 197.7 438.0475 197.7C436.39062 197.7 435.0475 196.35686 435.0475 194.7C435.0475 193.04315 436.39062 191.7 438.0475 191.7C439.7043 191.7 441.0475 193.04315 441.0475 194.7Z" fill-rule="nonzero"/><path fill="#000000" fill-opacity="0.0" clip-path="url(#id_0)" d="M444.9606 194.7C444.9606 196.35686 443.61746 197.7 441.9606 197.7C440.30374 197.7 438.9606 196.35686 438.9606 194.7C438.9606 193.04315 440.30374 191.7 441.9606 191.7C443.61746 191.7 444.9606 193.04315 444.9606 194.7Z" fill-rule="nonzero"/><path fill="#000000" fill-opacity="0.0" clip-path="url(#id_0)" d="M448.87375 51.282C448.87375 52.938854 447.53058 54.282 445.87375 54.282C444.2169 54.282 442.87375 52.938854 442.87375 51.282C442.87375 49.625145 444.2169 48.282 445.87375 48.282C447.53058 48.282 448.87375 49.625145 448.87375 51.282Z" fill-rule="nonzero"/><path fill="#000000" fill-opacity="0.0" clip-path="url(#id_0)" d="M452.78687 51.282C452.78687 52.938854 451.44373 54.282 449.78687 54.282C448.13 54.282 446.78687 52.938854 446.78687 51.282C446.78687 49.625145 448.13 48.282 449.78687 48.282C451.44373 48.282 452.78687 49.625145 452.78687 51.282Z" fill-rule="nonzero"/><path fill="#000000" fill-opacity="0.0" clip-path="url(#id_0)" d="M456.7 51.282C456.7 52.938854 455.35684 54.282 453.7 54.282C452.04315 54.282 450.7 52.938854 450.7 51.282C450.7 49.625145 452.04315 48.282 453.7 48.282C455.35684 48.282 456.7 49.625145 456.7 51.282Z" fill-rule="nonzero"/><path fill="#000000" d="M25.8 194.46562Q25.8 192.93437 26.1125 192.0125Q26.425 191.075 27.034374 190.575Q27.659374 190.075 28.596874 190.075Q29.284374 190.075 29.8 190.35625Q30.33125 190.6375 30.675 191.16875Q31.01875 191.68437 31.20625 192.43437Q31.39375 193.18437 31.39375 194.46562Q31.39375 195.98125 31.08125 196.90312Q30.784374 197.825 30.159374 198.34062Q29.55 198.84062 28.596874 198.84062Q27.3625 198.84062 26.64375 197.95Q25.8 196.8875 25.8 194.46562ZM26.878124 194.46562Q26.878124 196.575 27.378124 197.27812Q27.878124 197.98125 28.596874 197.98125Q29.33125 197.98125 29.815624 197.27812Q30.315624 196.575 30.315624 194.46562Q30.315624 192.34062 29.815624 191.65312Q29.33125 190.95 28.58125 190.95Q27.8625 190.95 27.425 191.55937Q26.878124 192.34062 26.878124 194.46562ZM33.39375 198.7L33.39375 197.49687L34.596874 197.49687L34.596874 198.7L33.39375 198.7ZM35.8 194.46562Q35.8 192.93437 36.1125 192.0125Q36.425 191.075 37.034374 190.575Q37.659374 190.075 38.596874 190.075Q39.284374 190.075 39.8 190.35625Q40.33125 190.6375 40.675 191.16875Q41.01875 191.68437 41.20625 192.43437Q41.39375 193.18437 41.39375 194.46562Q41.39375 195.98125 41.08125 196.90312Q40.784374 197.825 40.159374 198.34062Q39.55 198.84062 38.596874 198.84062Q37.3625 198.84062 36.64375 197.95Q35.8 196.8875 35.8 194.46562ZM36.878124 194.46562Q36.878124 196.575 37.378124 197.27812Q37.878124 197.98125 38.596874 197.98125Q39.33125 197.98125 39.815624 197.27812Q40.315624 196.575 40.315624 194.46562Q40.315624 192.34062 39.815624 191.65312Q39.33125 190.95 38.58125 190.95Q37.8625 190.95 37.425 191.55937Q36.878124 192.34062 36.878124 194.46562ZM42.8 194.46562Q42.8 192.93437 43.1125 192.0125Q43.425 191.075 44.034374 190.575Q44.659374 190.075 45.596874 190.075Q46.284374 190.075 46.8 190.35625Q47.33125 190.6375 47.675 191.16875Q48.01875 191.68437 48.20625 192.43437Q48.39375 193.18437 48.39375 194.46562Q48.39375 195.98125 48.08125 196.90312Q47.784374 197.825 47.159374 198.34062Q46.55 198.84062 45.596874 198.84062Q44.3625 198.84062 43.64375 197.95Q42.8 196.8875 42.8 194.46562ZM43.878124 194.46562Q43.878124 196.575 44.378124 197.27812Q44.878124 197.98125 45.596874 197.98125Q46.33125 197.98125 46.815624 197.27812Q47.315624 196.575 47.315624 194.46562Q47.315624 192.34062 46.815624 191.65312Q46.33125 190.95 45.58125 190.95Q44.8625 190.95 44.425 191.55937Q43.878124 192.34062 43.878124 194.46562ZM50.003124 192.16875Q50.003124 191.24687 50.45625 190.60625Q50.925 189.96562 51.8 189.96562Q52.6125 189.96562 53.14375 190.54375Q53.675 191.12187 53.675 192.23125Q53.675 193.325 53.128124 193.91875Q52.596874 194.49687 51.815624 194.49687Q51.034374 194.49687 50.51875 193.91875Q50.003124 193.34062 50.003124 192.16875ZM51.83125 190.68437Q51.440624 190.68437 51.175 191.02812Q50.925 191.37187 50.925 192.27812Q50.925 193.10625 51.175 193.45Q51.440624 193.77812 51.83125 193.77812Q52.2375 193.77812 52.4875 193.43437Q52.753124 193.09062 52.753124 192.2Q52.753124 191.35625 52.4875 191.02812Q52.221874 190.68437 51.83125 190.68437ZM51.83125 199.0125L56.534374 189.96562L57.39375 189.96562L52.70625 199.0125L51.83125 199.0125ZM55.55 196.68437Q55.55 195.7625 56.003124 195.12187Q56.471874 194.48125 57.3625 194.48125Q58.175 194.48125 58.70625 195.05937Q59.2375 195.62187 59.2375 196.74687Q59.2375 197.84062 58.690624 198.43437Q58.159374 199.0125 57.3625 199.0125Q56.596874 199.0125 56.065624 198.43437Q55.55 197.85625 55.55 196.68437ZM57.39375 195.2Q56.9875 195.2 56.721874 195.54375Q56.471874 195.8875 56.471874 196.79375Q56.471874 197.60625 56.7375 197.95Q57.003124 198.29375 57.39375 198.29375Q57.784374 198.29375 58.05 197.95Q58.315624 197.60625 58.315624 196.7Q58.315624 195.87187 58.05 195.54375Q57.784374 195.2 57.39375 195.2Z" fill-rule="nonzero"/><path fill="#000000" d="M24.346874 168.71104L24.346874 169.72667L18.659374 169.72667Q18.659374 169.35167 18.784374 168.9923Q19.003124 168.41417 19.471874 167.85167Q19.95625 167.28917 20.8625 166.5548Q22.26875 165.39854 22.753124 164.72667Q23.253124 164.0548 23.253124 163.46104Q23.253124 162.83604 22.8 162.41417Q22.346874 161.97667 21.628124 161.97667Q20.8625 161.97667 20.409374 162.4298Q19.95625 162.88292 19.940624 163.69542L18.8625 163.58604Q18.971874 162.3673 19.690624 161.7423Q20.425 161.10167 21.659374 161.10167Q22.89375 161.10167 23.6125 161.78917Q24.33125 162.47667 24.33125 163.4923Q24.33125 164.00792 24.1125 164.50792Q23.909374 164.9923 23.409374 165.5548Q22.925 166.10167 21.8 167.0548Q20.846874 167.85167 20.565624 168.14854Q20.3 168.4298 20.128124 168.71104L24.346874 168.71104ZM25.8 165.4923Q25.8 163.96104 26.1125 163.03917Q26.425 162.10167 27.034374 161.60167Q27.659374 161.10167 28.596874 161.10167Q29.284374 161.10167 29.8 161.38292Q30.33125 161.66417 30.675 162.19542Q31.01875 162.71104 31.20625 163.46104Q31.39375 164.21104 31.39375 165.4923Q31.39375 167.00792 31.08125 167.9298Q30.784374 168.85167 30.159374 169.3673Q29.55 169.8673 28.596874 169.8673Q27.3625 169.8673 26.64375 168.97667Q25.8 167.91417 25.8 165.4923ZM26.878124 165.4923Q26.878124 167.60167 27.378124 168.3048Q27.878124 169.00792 28.596874 169.00792Q29.33125 169.00792 29.815624 168.3048Q30.315624 167.60167 30.315624 165.4923Q30.315624 163.3673 29.815624 162.6798Q29.33125 161.97667 28.58125 161.97667Q27.8625 161.97667 27.425 162.58604Q26.878124 163.3673 26.878124 165.4923ZM33.39375 169.72667L33.39375 168.52354L34.596874 168.52354L34.596874 169.72667L33.39375 169.72667ZM35.8 165.4923Q35.8 163.96104 36.1125 163.03917Q36.425 162.10167 37.034374 161.60167Q37.659374 161.10167 38.596874 161.10167Q39.284374 161.10167 39.8 161.38292Q40.33125 161.66417 40.675 162.19542Q41.01875 162.71104 41.20625 163.46104Q41.39375 164.21104 41.39375 165.4923Q41.39375 167.00792 41.08125 167.9298Q40.784374 168.85167 40.159374 169.3673Q39.55 169.8673 38.596874 169.8673Q37.3625 169.8673 36.64375 168.97667Q35.8 167.91417 35.8 165.4923ZM36.878124 165.4923Q36.878124 167.60167 37.378124 168.3048Q37.878124 169.00792 38.596874 169.00792Q39.33125 169.00792 39.815624 168.3048Q40.315624 167.60167 40.315624 165.4923Q40.315624 163.3673 39.815624 162.6798Q39.33125 161.97667 38.58125 161.97667Q37.8625 161.97667 37.425 162.58604Q36.878124 163.3673 36.878124 165.4923ZM42.8 165.4923Q42.8 163.96104 43.1125 163.03917Q43.425 162.10167 44.034374 161.60167Q44.659374 161.10167 45.596874 161.10167Q46.284374 161.10167 46.8 161.38292Q47.33125 161.66417 47.675 162.19542Q48.01875 162.71104 48.20625 163.46104Q48.39375 164.21104 48.39375 165.4923Q48.39375 167.00792 48.08125 167.9298Q47.784374 168.85167 47.159374 169.3673Q46.55 169.8673 45.596874 169.8673Q44.3625 169.8673 43.64375 168.97667Q42.8 167.91417 42.8 165.4923ZM43.878124 165.4923Q43.878124 167.60167 44.378124 168.3048Q44.878124 169.00792 45.596874 169.00792Q46.33125 169.00792 46.815624 168.3048Q47.315624 167.60167 47.315624 165.4923Q47.315624 163.3673 46.815624 162.6798Q46.33125 161.97667 45.58125 161.97667Q44.8625 161.97667 44.425 162.58604Q43.878124 163.3673 43.878124 165.4923ZM50.003124 163.19542Q50.003124 162.27354 50.45625 161.63292Q50.925 160.9923 51.8 160.9923Q52.6125 160.9923 53.14375 161.57042Q53.675 162.14854 53.675 163.25792Q53.675 164.35167 53.128124 164.94542Q52.596874 165.52354 51.815624 165.52354Q51.034374 165.52354 50.51875 164.94542Q50.003124 164.3673 50.003124 163.19542ZM51.83125 161.71104Q51.440624 161.71104 51.175 162.0548Q50.925 162.39854 50.925 163.3048Q50.925 164.13292 51.175 164.47667Q51.440624 164.8048 51.83125 164.8048Q52.2375 164.8048 52.4875 164.46104Q52.753124 164.1173 52.753124 163.22667Q52.753124 162.38292 52.4875 162.0548Q52.221874 161.71104 51.83125 161.71104ZM51.83125 170.03917L56.534374 160.9923L57.39375 160.9923L52.70625 170.03917L51.83125 170.03917ZM55.55 167.71104Q55.55 166.78917 56.003124 166.14854Q56.471874 165.50792 57.3625 165.50792Q58.175 165.50792 58.70625 166.08604Q59.2375 166.64854 59.2375 167.77354Q59.2375 168.8673 58.690624 169.46104Q58.159374 170.03917 57.3625 170.03917Q56.596874 170.03917 56.065624 169.46104Q55.55 168.88292 55.55 167.71104ZM57.39375 166.22667Q56.9875 166.22667 56.721874 166.57042Q56.471874 166.91417 56.471874 167.82042Q56.471874 168.63292 56.7375 168.97667Q57.003124 169.32042 57.39375 169.32042Q57.784374 169.32042 58.05 168.97667Q58.315624 168.63292 58.315624 167.72667Q58.315624 166.89854 58.05 166.57042Q57.784374 166.22667 57.39375 166.22667Z" fill-rule="nonzero"/><path fill="#000000" d="M22.175 140.75333L22.175 138.69083L18.45625 138.69083L18.45625 137.72208L22.378124 132.15958L23.2375 132.15958L23.2375 137.72208L24.39375 137.72208L24.39375 138.69083L23.2375 138.69083L23.2375 140.75333L22.175 140.75333ZM22.175 137.72208L22.175 133.8627L19.4875 137.72208L22.175 137.72208ZM25.8 136.51895Q25.8 134.9877 26.1125 134.06583Q26.425 133.12833 27.034374 132.62833Q27.659374 132.12833 28.596874 132.12833Q29.284374 132.12833 29.8 132.40958Q30.33125 132.69083 30.675 133.22208Q31.01875 133.7377 31.20625 134.4877Q31.39375 135.2377 31.39375 136.51895Q31.39375 138.03458 31.08125 138.95645Q30.784374 139.87833 30.159374 140.39395Q29.55 140.89395 28.596874 140.89395Q27.3625 140.89395 26.64375 140.00333Q25.8 138.94083 25.8 136.51895ZM26.878124 136.51895Q26.878124 138.62833 27.378124 139.33145Q27.878124 140.03458 28.596874 140.03458Q29.33125 140.03458 29.815624 139.33145Q30.315624 138.62833 30.315624 136.51895Q30.315624 134.39395 29.815624 133.70645Q29.33125 133.00333 28.58125 133.00333Q27.8625 133.00333 27.425 133.6127Q26.878124 134.39395 26.878124 136.51895ZM33.39375 140.75333L33.39375 139.5502L34.596874 139.5502L34.596874 140.75333L33.39375 140.75333ZM35.8 136.51895Q35.8 134.9877 36.1125 134.06583Q36.425 133.12833 37.034374 132.62833Q37.659374 132.12833 38.596874 132.12833Q39.284374 132.12833 39.8 132.40958Q40.33125 132.69083 40.675 133.22208Q41.01875 133.7377 41.20625 134.4877Q41.39375 135.2377 41.39375 136.51895Q41.39375 138.03458 41.08125 138.95645Q40.784374 139.87833 40.159374 140.39395Q39.55 140.89395 38.596874 140.89395Q37.3625 140.89395 36.64375 140.00333Q35.8 138.94083 35.8 136.51895ZM36.878124 136.51895Q36.878124 138.62833 37.378124 139.33145Q37.878124 140.03458 38.596874 140.03458Q39.33125 140.03458 39.815624 139.33145Q40.315624 138.62833 40.315624 136.51895Q40.315624 134.39395 39.815624 133.70645Q39.33125 133.00333 38.58125 133.00333Q37.8625 133.00333 37.425 133.6127Q36.878124 134.39395 36.878124 136.51895ZM42.8 136.51895Q42.8 134.9877 43.1125 134.06583Q43.425 133.12833 44.034374 132.62833Q44.659374 132.12833 45.596874 132.12833Q46.284374 132.12833 46.8 132.40958Q47.33125 132.69083 47.675 133.22208Q48.01875 133.7377 48.20625 134.4877Q48.39375 135.2377 48.39375 136.51895Q48.39375 138.03458 48.08125 138.95645Q47.784374 139.87833 47.159374 140.39395Q46.55 140.89395 45.596874 140.89395Q44.3625 140.89395 43.64375 140.00333Q42.8 138.94083 42.8 136.51895ZM43.878124 136.51895Q43.878124 138.62833 44.378124 139.33145Q44.878124 140.03458 45.596874 140.03458Q46.33125 140.03458 46.815624 139.33145Q47.315624 138.62833 47.315624 136.51895Q47.315624 134.39395 46.815624 133.70645Q46.33125 133.00333 45.58125 133.00333Q44.8625 133.00333 44.425 133.6127Q43.878124 134.39395 43.878124 136.51895ZM50.003124 134.22208Q50.003124 133.3002 50.45625 132.65958Q50.925 132.01895 51.8 132.01895Q52.6125 132.01895 53.14375 132.59708Q53.675 133.1752 53.675 134.28458Q53.675 135.37833 53.128124 135.97208Q52.596874 136.5502 51.815624 136.5502Q51.034374 136.5502 50.51875 135.97208Q50.003124 135.39395 50.003124 134.22208ZM51.83125 132.7377Q51.440624 132.7377 51.175 133.08145Q50.925 133.4252 50.925 134.33145Q50.925 135.15958 51.175 135.50333Q51.440624 135.83145 51.83125 135.83145Q52.2375 135.83145 52.4875 135.4877Q52.753124 135.14395 52.753124 134.25333Q52.753124 133.40958 52.4875 133.08145Q52.221874 132.7377 51.83125 132.7377ZM51.83125 141.06583L56.534374 132.01895L57.39375 132.01895L52.70625 141.06583L51.83125 141.06583ZM55.55 138.7377Q55.55 137.81583 56.003124 137.1752Q56.471874 136.53458 57.3625 136.53458Q58.175 136.53458 58.70625 137.1127Q59.2375 137.6752 59.2375 138.8002Q59.2375 139.89395 58.690624 140.4877Q58.159374 141.06583 57.3625 141.06583Q56.596874 141.06583 56.065624 140.4877Q55.55 139.90958 55.55 138.7377ZM57.39375 137.25333Q56.9875 137.25333 56.721874 137.59708Q56.471874 137.94083 56.471874 138.84708Q56.471874 139.65958 56.7375 140.00333Q57.003124 140.34708 57.39375 140.34708Q57.784374 140.34708 58.05 140.00333Q58.315624 139.65958 58.315624 138.75333Q58.315624 137.9252 58.05 137.59708Q57.784374 137.25333 57.39375 137.25333Z" fill-rule="nonzero"/><path fill="#000000" d="M24.26875 105.29562L23.221874 105.37375Q23.08125 104.74875 22.83125 104.4675Q22.39375 104.01437 21.76875 104.01437Q21.26875 104.01437 20.878124 104.29562Q20.39375 104.67062 20.096874 105.37375Q19.815624 106.06125 19.8 107.3425Q20.175 106.76437 20.721874 106.48312Q21.284374 106.20187 21.89375 106.20187Q22.940624 106.20187 23.675 106.98312Q24.425 107.76437 24.425 108.98312Q24.425 109.79562 24.065624 110.49875Q23.721874 111.18625 23.1125 111.56125Q22.503124 111.92062 21.7375 111.92062Q20.409374 111.92062 19.58125 110.95187Q18.753124 109.98312 18.753124 107.76437Q18.753124 105.26437 19.675 104.13937Q20.471874 103.155 21.83125 103.155Q22.846874 103.155 23.4875 103.73312Q24.14375 104.29562 24.26875 105.29562ZM19.971874 108.99875Q19.971874 109.54562 20.190624 110.04562Q20.425 110.53 20.83125 110.79562Q21.253124 111.06125 21.721874 111.06125Q22.378124 111.06125 22.8625 110.53Q23.346874 109.98312 23.346874 109.06125Q23.346874 108.17062 22.8625 107.655Q22.39375 107.13937 21.675 107.13937Q20.95625 107.13937 20.45625 107.655Q19.971874 108.17062 19.971874 108.99875ZM25.8 107.54562Q25.8 106.01437 26.1125 105.0925Q26.425 104.155 27.034374 103.655Q27.659374 103.155 28.596874 103.155Q29.284374 103.155 29.8 103.43625Q30.33125 103.7175 30.675 104.24875Q31.01875 104.76437 31.20625 105.51437Q31.39375 106.26437 31.39375 107.54562Q31.39375 109.06125 31.08125 109.98312Q30.784374 110.905 30.159374 111.42062Q29.55 111.92062 28.596874 111.92062Q27.3625 111.92062 26.64375 111.03Q25.8 109.9675 25.8 107.54562ZM26.878124 107.54562Q26.878124 109.655 27.378124 110.35812Q27.878124 111.06125 28.596874 111.06125Q29.33125 111.06125 29.815624 110.35812Q30.315624 109.655 30.315624 107.54562Q30.315624 105.42062 29.815624 104.73312Q29.33125 104.03 28.58125 104.03Q27.8625 104.03 27.425 104.63937Q26.878124 105.42062 26.878124 107.54562ZM33.39375 111.78L33.39375 110.57687L34.596874 110.57687L34.596874 111.78L33.39375 111.78ZM35.8 107.54562Q35.8 106.01437 36.1125 105.0925Q36.425 104.155 37.034374 103.655Q37.659374 103.155 38.596874 103.155Q39.284374 103.155 39.8 103.43625Q40.33125 103.7175 40.675 104.24875Q41.01875 104.76437 41.20625 105.51437Q41.39375 106.26437 41.39375 107.54562Q41.39375 109.06125 41.08125 109.98312Q40.784374 110.905 40.159374 111.42062Q39.55 111.92062 38.596874 111.92062Q37.3625 111.92062 36.64375 111.03Q35.8 109.9675 35.8 107.54562ZM36.878124 107.54562Q36.878124 109.655 37.378124 110.35812Q37.878124 111.06125 38.596874 111.06125Q39.33125 111.06125 39.815624 110.35812Q40.315624 109.655 40.315624 107.54562Q40.315624 105.42062 39.815624 104.73312Q39.33125 104.03 38.58125 104.03Q37.8625 104.03 37.425 104.63937Q36.878124 105.42062 36.878124 107.54562ZM42.8 107.54562Q42.8 106.01437 43.1125 105.0925Q43.425 104.155 44.034374 103.655Q44.659374 103.155 45.596874 103.155Q46.284374 103.155 46.8 103.43625Q47.33125 103.7175 47.675 104.24875Q48.01875 104.76437 48.20625 105.51437Q48.39375 106.26437 48.39375 107.54562Q48.39375 109.06125 48.08125 109.98312Q47.784374 110.905 47.159374 111.42062Q46.55 111.92062 45.596874 111.92062Q44.3625 111.92062 43.64375 111.03Q42.8 109.9675 42.8 107.54562ZM43.878124 107.54562Q43.878124 109.655 44.378124 110.35812Q44.878124 111.06125 45.596874 111.06125Q46.33125 111.06125 46.815624 110.35812Q47.315624 109.655 47.315624 107.54562Q47.315624 105.42062 46.815624 104.73312Q46.33125 104.03 45.58125 104.03Q44.8625 104.03 44.425 104.63937Q43.878124 105.42062 43.878124 107.54562ZM50.003124 105.24875Q50.003124 104.32687 50.45625 103.68625Q50.925 103.04562 51.8 103.04562Q52.6125 103.04562 53.14375 103.62375Q53.675 104.20187 53.675 105.31125Q53.675 106.405 53.128124 106.99875Q52.596874 107.57687 51.815624 107.57687Q51.034374 107.57687 50.51875 106.99875Q50.003124 106.42062 50.003124 105.24875ZM51.83125 103.76437Q51.440624 103.76437 51.175 104.10812Q50.925 104.45187 50.925 105.35812Q50.925 106.18625 51.175 106.53Q51.440624 106.85812 51.83125 106.85812Q52.2375 106.85812 52.4875 106.51437Q52.753124 106.17062 52.753124 105.28Q52.753124 104.43625 52.4875 104.10812Q52.221874 103.76437 51.83125 103.76437ZM51.83125 112.0925L56.534374 103.04562L57.39375 103.04562L52.70625 112.0925L51.83125 112.0925ZM55.55 109.76437Q55.55 108.8425 56.003124 108.20187Q56.471874 107.56125 57.3625 107.56125Q58.175 107.56125 58.70625 108.13937Q59.2375 108.70187 59.2375 109.82687Q59.2375 110.92062 58.690624 111.51437Q58.159374 112.0925 57.3625 112.0925Q56.596874 112.0925 56.065624 111.51437Q55.55 110.93625 55.55 109.76437ZM57.39375 108.28Q56.9875 108.28 56.721874 108.62375Q56.471874 108.9675 56.471874 109.87375Q56.471874 110.68625 56.7375 111.03Q57.003124 111.37375 57.39375 111.37375Q57.784374 111.37375 58.05 111.03Q58.315624 110.68625 58.315624 109.78Q58.315624 108.95187 58.05 108.62375Q57.784374 108.28 57.39375 108.28Z" fill-rule="nonzero"/><path fill="#000000" d="M20.425 78.15041Q19.76875 77.90041 19.440624 77.46291Q19.128124 77.00979 19.128124 76.40041Q19.128124 75.46291 19.8 74.82229Q20.4875 74.18166 21.596874 74.18166Q22.721874 74.18166 23.409374 74.83791Q24.096874 75.49416 24.096874 76.43166Q24.096874 77.02541 23.784374 77.46291Q23.471874 77.90041 22.83125 78.15041Q23.628124 78.40041 24.034374 78.97854Q24.440624 79.55666 24.440624 80.35354Q24.440624 81.44729 23.659374 82.19729Q22.89375 82.94729 21.6125 82.94729Q20.346874 82.94729 19.565624 82.19729Q18.784374 81.44729 18.784374 80.32229Q18.784374 79.47854 19.20625 78.91604Q19.64375 78.35354 20.425 78.15041ZM20.20625 76.35354Q20.20625 76.96291 20.596874 77.35354Q21.003124 77.74416 21.628124 77.74416Q22.2375 77.74416 22.628124 77.36916Q23.01875 76.97854 23.01875 76.41604Q23.01875 75.83791 22.6125 75.44729Q22.20625 75.04104 21.6125 75.04104Q21.003124 75.04104 20.596874 75.43166Q20.20625 75.82229 20.20625 76.35354ZM19.878124 80.32229Q19.878124 80.77541 20.08125 81.19729Q20.3 81.61916 20.721874 81.85354Q21.14375 82.08791 21.628124 82.08791Q22.378124 82.08791 22.8625 81.60354Q23.3625 81.11916 23.3625 80.36916Q23.3625 79.60354 22.8625 79.10354Q22.3625 78.60354 21.596874 78.60354Q20.846874 78.60354 20.3625 79.10354Q19.878124 79.58791 19.878124 80.32229ZM25.8 78.57229Q25.8 77.04104 26.1125 76.11916Q26.425 75.18166 27.034374 74.68166Q27.659374 74.18166 28.596874 74.18166Q29.284374 74.18166 29.8 74.46291Q30.33125 74.74416 30.675 75.27541Q31.01875 75.79104 31.20625 76.54104Q31.39375 77.29104 31.39375 78.57229Q31.39375 80.08791 31.08125 81.00979Q30.784374 81.93166 30.159374 82.44729Q29.55 82.94729 28.596874 82.94729Q27.3625 82.94729 26.64375 82.05666Q25.8 80.99416 25.8 78.57229ZM26.878124 78.57229Q26.878124 80.68166 27.378124 81.38479Q27.878124 82.08791 28.596874 82.08791Q29.33125 82.08791 29.815624 81.38479Q30.315624 80.68166 30.315624 78.57229Q30.315624 76.44729 29.815624 75.75979Q29.33125 75.05666 28.58125 75.05666Q27.8625 75.05666 27.425 75.66604Q26.878124 76.44729 26.878124 78.57229ZM33.39375 82.80666L33.39375 81.60354L34.596874 81.60354L34.596874 82.80666L33.39375 82.80666ZM35.8 78.57229Q35.8 77.04104 36.1125 76.11916Q36.425 75.18166 37.034374 74.68166Q37.659374 74.18166 38.596874 74.18166Q39.284374 74.18166 39.8 74.46291Q40.33125 74.74416 40.675 75.27541Q41.01875 75.79104 41.20625 76.54104Q41.39375 77.29104 41.39375 78.57229Q41.39375 80.08791 41.08125 81.00979Q40.784374 81.93166 40.159374 82.44729Q39.55 82.94729 38.596874 82.94729Q37.3625 82.94729 36.64375 82.05666Q35.8 80.99416 35.8 78.57229ZM36.878124 78.57229Q36.878124 80.68166 37.378124 81.38479Q37.878124 82.08791 38.596874 82.08791Q39.33125 82.08791 39.815624 81.38479Q40.315624 80.68166 40.315624 78.57229Q40.315624 76.44729 39.815624 75.75979Q39.33125 75.05666 38.58125 75.05666Q37.8625 75.05666 37.425 75.66604Q36.878124 76.44729 36.878124 78.57229ZM42.8 78.57229Q42.8 77.04104 43.1125 76.11916Q43.425 75.18166 44.034374 74.68166Q44.659374 74.18166 45.596874 74.18166Q46.284374 74.18166 46.8 74.46291Q47.33125 74.74416 47.675 75.27541Q48.01875 75.79104 48.20625 76.54104Q48.39375 77.29104 48.39375 78.57229Q48.39375 80.08791 48.08125 81.00979Q47.784374 81.93166 47.159374 82.44729Q46.55 82.94729 45.596874 82.94729Q44.3625 82.94729 43.64375 82.05666Q42.8 80.99416 42.8 78.57229ZM43.878124 78.57229Q43.878124 80.68166 44.378124 81.38479Q44.878124 82.08791 45.596874 82.08791Q46.33125 82.08791 46.815624 81.38479Q47.315624 80.68166 47.315624 78.57229Q47.315624 76.44729 46.815624 75.75979Q46.33125 75.05666 45.58125 75.05666Q44.8625 75.05666 44.425 75.66604Q43.878124 76.44729 43.878124 78.57229ZM50.003124 76.27541Q50.003124 75.35354 50.45625 74.71291Q50.925 74.07229 51.8 74.07229Q52.6125 74.07229 53.14375 74.65041Q53.675 75.22854 53.675 76.33791Q53.675 77.43166 53.128124 78.02541Q52.596874 78.60354 51.815624 78.60354Q51.034374 78.60354 50.51875 78.02541Q50.003124 77.44729 50.003124 76.27541ZM51.83125 74.79104Q51.440624 74.79104 51.175 75.13479Q50.925 75.47854 50.925 76.38479Q50.925 77.21291 51.175 77.55666Q51.440624 77.88479 51.83125 77.88479Q52.2375 77.88479 52.4875 77.54104Q52.753124 77.19729 52.753124 76.30666Q52.753124 75.46291 52.4875 75.13479Q52.221874 74.79104 51.83125 74.79104ZM51.83125 83.11916L56.534374 74.07229L57.39375 74.07229L52.70625 83.11916L51.83125 83.11916ZM55.55 80.79104Q55.55 79.86916 56.003124 79.22854Q56.471874 78.58791 57.3625 78.58791Q58.175 78.58791 58.70625 79.16604Q59.2375 79.72854 59.2375 80.85354Q59.2375 81.94729 58.690624 82.54104Q58.159374 83.11916 57.3625 83.11916Q56.596874 83.11916 56.065624 82.54104Q55.55 81.96291 55.55 80.79104ZM57.39375 79.30666Q56.9875 79.30666 56.721874 79.65041Q56.471874 79.99416 56.471874 80.90041Q56.471874 81.71291 56.7375 82.05666Q57.003124 82.40041 57.39375 82.40041Q57.784374 82.40041 58.05 82.05666Q58.315624 81.71291 58.315624 80.80666Q58.315624 79.97854 58.05 79.65041Q57.784374 79.30666 57.39375 79.30666Z" fill-rule="nonzero"/><path fill="#000000" d="M15.76875 53.833332L14.721875 53.833332L14.721875 47.114582Q14.33125 47.473957 13.70625 47.848957Q13.096875 48.208332 12.6125 48.380207L12.6125 47.364582Q13.4875 46.942707 14.14375 46.364582Q14.815625 45.770832 15.096875 45.208332L15.76875 45.208332L15.76875 53.833332ZM18.8 49.598957Q18.8 48.067707 19.1125 47.145832Q19.425 46.208332 20.034374 45.708332Q20.659374 45.208332 21.596874 45.208332Q22.284374 45.208332 22.8 45.489582Q23.33125 45.770832 23.675 46.302082Q24.01875 46.817707 24.20625 47.567707Q24.39375 48.317707 24.39375 49.598957Q24.39375 51.114582 24.08125 52.036457Q23.784374 52.958332 23.159374 53.473957Q22.55 53.973957 21.596874 53.973957Q20.3625 53.973957 19.64375 53.083332Q18.8 52.020832 18.8 49.598957ZM19.878124 49.598957Q19.878124 51.708332 20.378124 52.411457Q20.878124 53.114582 21.596874 53.114582Q22.33125 53.114582 22.815624 52.411457Q23.315624 51.708332 23.315624 49.598957Q23.315624 47.473957 22.815624 46.786457Q22.33125 46.083332 21.58125 46.083332Q20.8625 46.083332 20.425 46.692707Q19.878124 47.473957 19.878124 49.598957ZM25.8 49.598957Q25.8 48.067707 26.1125 47.145832Q26.425 46.208332 27.034374 45.708332Q27.659374 45.208332 28.596874 45.208332Q29.284374 45.208332 29.8 45.489582Q30.33125 45.770832 30.675 46.302082Q31.01875 46.817707 31.20625 47.567707Q31.39375 48.317707 31.39375 49.598957Q31.39375 51.114582 31.08125 52.036457Q30.784374 52.958332 30.159374 53.473957Q29.55 53.973957 28.596874 53.973957Q27.3625 53.973957 26.64375 53.083332Q25.8 52.020832 25.8 49.598957ZM26.878124 49.598957Q26.878124 51.708332 27.378124 52.411457Q27.878124 53.114582 28.596874 53.114582Q29.33125 53.114582 29.815624 52.411457Q30.315624 51.708332 30.315624 49.598957Q30.315624 47.473957 29.815624 46.786457Q29.33125 46.083332 28.58125 46.083332Q27.8625 46.083332 27.425 46.692707Q26.878124 47.473957 26.878124 49.598957ZM33.39375 53.833332L33.39375 52.630207L34.596874 52.630207L34.596874 53.833332L33.39375 53.833332ZM35.8 49.598957Q35.8 48.067707 36.1125 47.145832Q36.425 46.208332 37.034374 45.708332Q37.659374 45.208332 38.596874 45.208332Q39.284374 45.208332 39.8 45.489582Q40.33125 45.770832 40.675 46.302082Q41.01875 46.817707 41.20625 47.567707Q41.39375 48.317707 41.39375 49.598957Q41.39375 51.114582 41.08125 52.036457Q40.784374 52.958332 40.159374 53.473957Q39.55 53.973957 38.596874 53.973957Q37.3625 53.973957 36.64375 53.083332Q35.8 52.020832 35.8 49.598957ZM36.878124 49.598957Q36.878124 51.708332 37.378124 52.411457Q37.878124 53.114582 38.596874 53.114582Q39.33125 53.114582 39.815624 52.411457Q40.315624 51.708332 40.315624 49.598957Q40.315624 47.473957 39.815624 46.786457Q39.33125 46.083332 38.58125 46.083332Q37.8625 46.083332 37.425 46.692707Q36.878124 47.473957 36.878124 49.598957ZM42.8 49.598957Q42.8 48.067707 43.1125 47.145832Q43.425 46.208332 44.034374 45.708332Q44.659374 45.208332 45.596874 45.208332Q46.284374 45.208332 46.8 45.489582Q47.33125 45.770832 47.675 46.302082Q48.01875 46.817707 48.20625 47.567707Q48.39375 48.317707 48.39375 49.598957Q48.39375 51.114582 48.08125 52.036457Q47.784374 52.958332 47.159374 53.473957Q46.55 53.973957 45.596874 53.973957Q44.3625 53.973957 43.64375 53.083332Q42.8 52.020832 42.8 49.598957ZM43.878124 49.598957Q43.878124 51.708332 44.378124 52.411457Q44.878124 53.114582 45.596874 53.114582Q46.33125 53.114582 46.815624 52.411457Q47.315624 51.708332 47.315624 49.598957Q47.315624 47.473957 46.815624 46.786457Q46.33125 46.083332 45.58125 46.083332Q44.8625 46.083332 44.425 46.692707Q43.878124 47.473957 43.878124 49.598957ZM50.003124 47.302082Q50.003124 46.380207 50.45625 45.739582Q50.925 45.098957 51.8 45.098957Q52.6125 45.098957 53.14375 45.677082Q53.675 46.255207 53.675 47.364582Q53.675 48.458332 53.128124 49.052082Q52.596874 49.630207 51.815624 49.630207Q51.034374 49.630207 50.51875 49.052082Q50.003124 48.473957 50.003124 47.302082ZM51.83125 45.817707Q51.440624 45.817707 51.175 46.161457Q50.925 46.505207 50.925 47.411457Q50.925 48.239582 51.175 48.583332Q51.440624 48.911457 51.83125 48.911457Q52.2375 48.911457 52.4875 48.567707Q52.753124 48.223957 52.753124 47.333332Q52.753124 46.489582 52.4875 46.161457Q52.221874 45.817707 51.83125 45.817707ZM51.83125 54.145832L56.534374 45.098957L57.39375 45.098957L52.70625 54.145832L51.83125 54.145832ZM55.55 51.817707Q55.55 50.895832 56.003124 50.255207Q56.471874 49.614582 57.3625 49.614582Q58.175 49.614582 58.70625 50.192707Q59.2375 50.755207 59.2375 51.880207Q59.2375 52.973957 58.690624 53.567707Q58.159374 54.145832 57.3625 54.145832Q56.596874 54.145832 56.065624 53.567707Q55.55 52.989582 55.55 51.817707ZM57.39375 50.333332Q56.9875 50.333332 56.721874 50.677082Q56.471874 51.020832 56.471874 51.927082Q56.471874 52.739582 56.7375 53.083332Q57.003124 53.427082 57.39375 53.427082Q57.784374 53.427082 58.05 53.083332Q58.315624 52.739582 58.315624 51.833332Q58.315624 51.005207 58.05 50.677082Q57.784374 50.333332 57.39375 50.333332Z" fill-rule="nonzero"/><path fill="#000000" d="M46.76875 211.7L45.721874 211.7L45.721874 204.98125Q45.33125 205.34062 44.70625 205.71562Q44.096874 206.075 43.6125 206.24687L43.6125 205.23125Q44.4875 204.80937 45.14375 204.23125Q45.815624 203.6375 46.096874 203.075L46.76875 203.075L46.76875 211.7ZM55.346874 210.68437L55.346874 211.7L49.659374 211.7Q49.659374 211.325 49.784374 210.96562Q50.003124 210.3875 50.471874 209.825Q50.95625 209.2625 51.8625 208.52812Q53.26875 207.37187 53.753124 206.7Q54.253124 206.02812 54.253124 205.43437Q54.253124 204.80937 53.8 204.3875Q53.346874 203.95 52.628124 203.95Q51.8625 203.95 51.409374 204.40312Q50.95625 204.85625 50.940624 205.66875L49.8625 205.55937Q49.971874 204.34062 50.690624 203.71562Q51.425 203.075 52.659374 203.075Q53.89375 203.075 54.6125 203.7625Q55.33125 204.45 55.33125 205.46562Q55.33125 205.98125 55.1125 206.48125Q54.909374 206.96562 54.409374 207.52812Q53.925 208.075 52.8 209.02812Q51.846874 209.825 51.565624 210.12187Q51.3 210.40312 51.128124 210.68437L55.346874 210.68437ZM57.378124 206.68437L57.378124 205.48125L58.58125 205.48125L58.58125 206.68437L57.378124 206.68437ZM57.378124 211.7L57.378124 210.49687L58.58125 210.49687L58.58125 211.7L57.378124 211.7ZM59.8 207.46562Q59.8 205.93437 60.1125 205.0125Q60.425 204.075 61.034374 203.575Q61.659374 203.075 62.596874 203.075Q63.284374 203.075 63.8 203.35625Q64.33125 203.6375 64.675 204.16875Q65.01875 204.68437 65.20625 205.43437Q65.39375 206.18437 65.39375 207.46562Q65.39375 208.98125 65.08125 209.90312Q64.78438 210.825 64.15938 211.34062Q63.55 211.84062 62.596874 211.84062Q61.3625 211.84062 60.64375 210.95Q59.8 209.8875 59.8 207.46562ZM60.878124 207.46562Q60.878124 209.575 61.378124 210.27812Q61.878124 210.98125 62.596874 210.98125Q63.33125 210.98125 63.815624 210.27812Q64.31563 209.575 64.31563 207.46562Q64.31563 205.34062 63.815624 204.65312Q63.33125 203.95 62.58125 203.95Q61.8625 203.95 61.425 204.55937Q60.878124 205.34062 60.878124 207.46562ZM66.8 207.46562Q66.8 205.93437 67.1125 205.0125Q67.425 204.075 68.03438 203.575Q68.65938 203.075 69.59688 203.075Q70.28438 203.075 70.8 203.35625Q71.33125 203.6375 71.675 204.16875Q72.01875 204.68437 72.20625 205.43437Q72.39375 206.18437 72.39375 207.46562Q72.39375 208.98125 72.08125 209.90312Q71.78438 210.825 71.15938 211.34062Q70.55 211.84062 69.59688 211.84062Q68.3625 211.84062 67.64375 210.95Q66.8 209.8875 66.8 207.46562ZM67.87813 207.46562Q67.87813 209.575 68.37813 210.27812Q68.87813 210.98125 69.59688 210.98125Q70.33125 210.98125 70.81563 210.27812Q71.31563 209.575 71.31563 207.46562Q71.31563 205.34062 70.81563 204.65312Q70.33125 203.95 69.58125 203.95Q68.8625 203.95 68.425 204.55937Q67.87813 205.34062 67.87813 207.46562ZM74.37813 206.68437L74.37813 205.48125L75.58125 205.48125L75.58125 206.68437L74.37813 206.68437ZM74.37813 211.7L74.37813 210.49687L75.58125 210.49687L75.58125 211.7L74.37813 211.7ZM76.8 207.46562Q76.8 205.93437 77.1125 205.0125Q77.425 204.075 78.03438 203.575Q78.65938 203.075 79.59688 203.075Q80.28438 203.075 80.8 203.35625Q81.33125 203.6375 81.675 204.16875Q82.01875 204.68437 82.20625 205.43437Q82.39375 206.18437 82.39375 207.46562Q82.39375 208.98125 82.08125 209.90312Q81.78438 210.825 81.15938 211.34062Q80.55 211.84062 79.59688 211.84062Q78.3625 211.84062 77.64375 210.95Q76.8 209.8875 76.8 207.46562ZM77.87813 207.46562Q77.87813 209.575 78.37813 210.27812Q78.87813 210.98125 79.59688 210.98125Q80.33125 210.98125 80.81563 210.27812Q81.31563 209.575 81.31563 207.46562Q81.31563 205.34062 80.81563 204.65312Q80.33125 203.95 79.58125 203.95Q78.8625 203.95 78.425 204.55937Q77.87813 205.34062 77.87813 207.46562ZM83.8 207.46562Q83.8 205.93437 84.1125 205.0125Q84.425 204.075 85.03438 203.575Q85.65938 203.075 86.59688 203.075Q87.28438 203.075 87.8 203.35625Q88.33125 203.6375 88.675 204.16875Q89.01875 204.68437 89.20625 205.43437Q89.39375 206.18437 89.39375 207.46562Q89.39375 208.98125 89.08125 209.90312Q88.78438 210.825 88.15938 211.34062Q87.55 211.84062 86.59688 211.84062Q85.3625 211.84062 84.64375 210.95Q83.8 209.8875 83.8 207.46562ZM84.87813 207.46562Q84.87813 209.575 85.37813 210.27812Q85.87813 210.98125 86.59688 210.98125Q87.33125 210.98125 87.81563 210.27812Q88.31563 209.575 88.31563 207.46562Q88.31563 205.34062 87.81563 204.65312Q87.33125 203.95 86.58125 203.95Q85.8625 203.95 85.425 204.55937Q84.87813 205.34062 84.87813 207.46562Z" fill-rule="nonzero"/><path fill="#000000" d="M125.03138 211.7L123.984505 211.7L123.984505 204.98125Q123.59388 205.34062 122.96888 205.71562Q122.359505 206.075 121.87513 206.24687L121.87513 205.23125Q122.75013 204.80937 123.40638 204.23125Q124.078255 203.6375 124.359505 203.075L125.03138 203.075L125.03138 211.7ZM133.6095 210.68437L133.6095 211.7L127.922005 211.7Q127.922005 211.325 128.047 210.96562Q128.26575 210.3875 128.7345 209.825Q129.21887 209.2625 130.12512 208.52812Q131.53137 207.37187 132.01575 206.7Q132.51575 206.02812 132.51575 205.43437Q132.51575 204.80937 132.06262 204.3875Q131.6095 203.95 130.89075 203.95Q130.12512 203.95 129.672 204.40312Q129.21887 204.85625 129.20325 205.66875L128.12512 205.55937Q128.2345 204.34062 128.95325 203.71562Q129.68762 203.075 130.922 203.075Q132.15637 203.075 132.87512 203.7625Q133.59387 204.45 133.59387 205.46562Q133.59387 205.98125 133.37512 206.48125Q133.172 206.96562 132.672 207.52812Q132.18762 208.075 131.06262 209.02812Q130.1095 209.825 129.82825 210.12187Q129.56262 210.40312 129.39075 210.68437L133.6095 210.68437ZM135.64075 206.68437L135.64075 205.48125L136.84387 205.48125L136.84387 206.68437L135.64075 206.68437ZM135.64075 211.7L135.64075 210.49687L136.84387 210.49687L136.84387 211.7L135.64075 211.7ZM138.06262 207.46562Q138.06262 205.93437 138.37512 205.0125Q138.68762 204.075 139.297 203.575Q139.922 203.075 140.8595 203.075Q141.547 203.075 142.06262 203.35625Q142.59387 203.6375 142.93762 204.16875Q143.28137 204.68437 143.46887 205.43437Q143.65637 206.18437 143.65637 207.46562Q143.65637 208.98125 143.34387 209.90312Q143.047 210.825 142.422 211.34062Q141.81262 211.84062 140.8595 211.84062Q139.62512 211.84062 138.90637 210.95Q138.06262 209.8875 138.06262 207.46562ZM139.14075 207.46562Q139.14075 209.575 139.64075 210.27812Q140.14075 210.98125 140.8595 210.98125Q141.59387 210.98125 142.07825 210.27812Q142.57825 209.575 142.57825 207.46562Q142.57825 205.34062 142.07825 204.65312Q141.59387 203.95 140.84387 203.95Q140.12512 203.95 139.68762 204.55937Q139.14075 205.34062 139.14075 207.46562ZM145.06262 207.46562Q145.06262 205.93437 145.37512 205.0125Q145.68762 204.075 146.297 203.575Q146.922 203.075 147.8595 203.075Q148.547 203.075 149.06262 203.35625Q149.59387 203.6375 149.93762 204.16875Q150.28137 204.68437 150.46887 205.43437Q150.65637 206.18437 150.65637 207.46562Q150.65637 208.98125 150.34387 209.90312Q150.047 210.825 149.422 211.34062Q148.81262 211.84062 147.8595 211.84062Q146.62512 211.84062 145.90637 210.95Q145.06262 209.8875 145.06262 207.46562ZM146.14075 207.46562Q146.14075 209.575 146.64075 210.27812Q147.14075 210.98125 147.8595 210.98125Q148.59387 210.98125 149.07825 210.27812Q149.57825 209.575 149.57825 207.46562Q149.57825 205.34062 149.07825 204.65312Q148.59387 203.95 147.84387 203.95Q147.12512 203.95 146.68762 204.55937Q146.14075 205.34062 146.14075 207.46562ZM152.64075 206.68437L152.64075 205.48125L153.84387 205.48125L153.84387 206.68437L152.64075 206.68437ZM152.64075 211.7L152.64075 210.49687L153.84387 210.49687L153.84387 211.7L152.64075 211.7ZM160.6095 210.68437L160.6095 211.7L154.922 211.7Q154.922 211.325 155.047 210.96562Q155.26575 210.3875 155.7345 209.825Q156.21887 209.2625 157.12512 208.52812Q158.53137 207.37187 159.01575 206.7Q159.51575 206.02812 159.51575 205.43437Q159.51575 204.80937 159.06262 204.3875Q158.6095 203.95 157.89075 203.95Q157.12512 203.95 156.672 204.40312Q156.21887 204.85625 156.20325 205.66875L155.12512 205.55937Q155.2345 204.34062 155.95325 203.71562Q156.68762 203.075 157.922 203.075Q159.15637 203.075 159.87512 203.7625Q160.59387 204.45 160.59387 205.46562Q160.59387 205.98125 160.37512 206.48125Q160.172 206.96562 159.672 207.52812Q159.18762 208.075 158.06262 209.02812Q157.1095 209.825 156.82825 210.12187Q156.56262 210.40312 156.39075 210.68437L160.6095 210.68437ZM162.06262 207.46562Q162.06262 205.93437 162.37512 205.0125Q162.68762 204.075 163.297 203.575Q163.922 203.075 164.8595 203.075Q165.547 203.075 166.06262 203.35625Q166.59387 203.6375 166.93762 204.16875Q167.28137 204.68437 167.46887 205.43437Q167.65637 206.18437 167.65637 207.46562Q167.65637 208.98125 167.34387 209.90312Q167.047 210.825 166.422 211.34062Q165.81262 211.84062 164.8595 211.84062Q163.62512 211.84062 162.90637 210.95Q162.06262 209.8875 162.06262 207.46562ZM163.14075 207.46562Q163.14075 209.575 163.64075 210.27812Q164.14075 210.98125 164.8595 210.98125Q165.59387 210.98125 166.07825 210.27812Q166.57825 209.575 166.57825 207.46562Q166.57825 205.34062 166.07825 204.65312Q165.59387 203.95 164.84387 203.95Q164.12512 203.95 163.68762 204.55937Q163.14075 205.34062 163.14075 207.46562Z" fill-rule="nonzero"/><path fill="#000000" d="M203.294 211.7L202.24713 211.7L202.24713 204.98125Q201.8565 205.34062 201.2315 205.71562Q200.62213 206.075 200.13776 206.24687L200.13776 205.23125Q201.01276 204.80937 201.669 204.23125Q202.34088 203.6375 202.62213 203.075L203.294 203.075L203.294 211.7ZM211.87213 210.68437L211.87213 211.7L206.18463 211.7Q206.18463 211.325 206.30963 210.96562Q206.52838 210.3875 206.99713 209.825Q207.4815 209.2625 208.38776 208.52812Q209.794 207.37187 210.27838 206.7Q210.77838 206.02812 210.77838 205.43437Q210.77838 204.80937 210.32526 204.3875Q209.87213 203.95 209.15338 203.95Q208.38776 203.95 207.93463 204.40312Q207.4815 204.85625 207.46588 205.66875L206.38776 205.55937Q206.49713 204.34062 207.21588 203.71562Q207.95026 203.075 209.18463 203.075Q210.419 203.075 211.13776 203.7625Q211.8565 204.45 211.8565 205.46562Q211.8565 205.98125 211.63776 206.48125Q211.43463 206.96562 210.93463 207.52812Q210.45026 208.075 209.32526 209.02812Q208.37213 209.825 208.09088 210.12187Q207.82526 210.40312 207.65338 210.68437L211.87213 210.68437ZM213.90338 206.68437L213.90338 205.48125L215.1065 205.48125L215.1065 206.68437L213.90338 206.68437ZM213.90338 211.7L213.90338 210.49687L215.1065 210.49687L215.1065 211.7L213.90338 211.7ZM216.32526 207.46562Q216.32526 205.93437 216.63776 205.0125Q216.95026 204.075 217.55963 203.575Q218.18463 203.075 219.12213 203.075Q219.80963 203.075 220.32526 203.35625Q220.8565 203.6375 221.20026 204.16875Q221.544 204.68437 221.7315 205.43437Q221.919 206.18437 221.919 207.46562Q221.919 208.98125 221.6065 209.90312Q221.30963 210.825 220.68463 211.34062Q220.07526 211.84062 219.12213 211.84062Q217.88776 211.84062 217.169 210.95Q216.32526 209.8875 216.32526 207.46562ZM217.40338 207.46562Q217.40338 209.575 217.90338 210.27812Q218.40338 210.98125 219.12213 210.98125Q219.8565 210.98125 220.34088 210.27812Q220.84088 209.575 220.84088 207.46562Q220.84088 205.34062 220.34088 204.65312Q219.8565 203.95 219.1065 203.95Q218.38776 203.95 217.95026 204.55937Q217.40338 205.34062 217.40338 207.46562ZM223.32526 207.46562Q223.32526 205.93437 223.63776 205.0125Q223.95026 204.075 224.55963 203.575Q225.18463 203.075 226.12213 203.075Q226.80963 203.075 227.32526 203.35625Q227.8565 203.6375 228.20026 204.16875Q228.544 204.68437 228.7315 205.43437Q228.919 206.18437 228.919 207.46562Q228.919 208.98125 228.6065 209.90312Q228.30963 210.825 227.68463 211.34062Q227.07526 211.84062 226.12213 211.84062Q224.88776 211.84062 224.169 210.95Q223.32526 209.8875 223.32526 207.46562ZM224.40338 207.46562Q224.40338 209.575 224.90338 210.27812Q225.40338 210.98125 226.12213 210.98125Q226.8565 210.98125 227.34088 210.27812Q227.84088 209.575 227.84088 207.46562Q227.84088 205.34062 227.34088 204.65312Q226.8565 203.95 226.1065 203.95Q225.38776 203.95 224.95026 204.55937Q224.40338 205.34062 224.40338 207.46562ZM230.90338 206.68437L230.90338 205.48125L232.1065 205.48125L232.1065 206.68437L230.90338 206.68437ZM230.90338 211.7L230.90338 210.49687L232.1065 210.49687L232.1065 211.7L230.90338 211.7ZM236.70026 211.7L236.70026 209.6375L232.9815 209.6375L232.9815 208.66875L236.90338 203.10625L237.76276 203.10625L237.76276 208.66875L238.919 208.66875L238.919 209.6375L237.76276 209.6375L237.76276 211.7L236.70026 211.7ZM236.70026 208.66875L236.70026 204.80937L234.01276 208.66875L236.70026 208.66875ZM240.32526 207.46562Q240.32526 205.93437 240.63776 205.0125Q240.95026 204.075 241.55963 203.575Q242.18463 203.075 243.12213 203.075Q243.80963 203.075 244.32526 203.35625Q244.8565 203.6375 245.20026 204.16875Q245.544 204.68437 245.7315 205.43437Q245.919 206.18437 245.919 207.46562Q245.919 208.98125 245.6065 209.90312Q245.30963 210.825 244.68463 211.34062Q244.07526 211.84062 243.12213 211.84062Q241.88776 211.84062 241.169 210.95Q240.32526 209.8875 240.32526 207.46562ZM241.40338 207.46562Q241.40338 209.575 241.90338 210.27812Q242.40338 210.98125 243.12213 210.98125Q243.8565 210.98125 244.34088 210.27812Q244.84088 209.575 244.84088 207.46562Q244.84088 205.34062 244.34088 204.65312Q243.8565 203.95 243.1065 203.95Q242.38776 203.95 241.95026 204.55937Q241.40338 205.34062 241.40338 207.46562Z" fill-rule="nonzero"/><path fill="#000000" d="M281.55664 211.7L280.50977 211.7L280.50977 204.98125Q280.11914 205.34062 279.49414 205.71562Q278.88477 206.075 278.4004 206.24687L278.4004 205.23125Q279.2754 204.80937 279.93164 204.23125Q280.60352 203.6375 280.88477 203.075L281.55664 203.075L281.55664 211.7ZM290.13477 210.68437L290.13477 211.7L284.44727 211.7Q284.44727 211.325 284.57227 210.96562Q284.79102 210.3875 285.25977 209.825Q285.74414 209.2625 286.6504 208.52812Q288.05664 207.37187 288.54102 206.7Q289.04102 206.02812 289.04102 205.43437Q289.04102 204.80937 288.5879 204.3875Q288.13477 203.95 287.41602 203.95Q286.6504 203.95 286.19727 204.40312Q285.74414 204.85625 285.72852 205.66875L284.6504 205.55937Q284.75977 204.34062 285.47852 203.71562Q286.2129 203.075 287.44727 203.075Q288.68164 203.075 289.4004 203.7625Q290.11914 204.45 290.11914 205.46562Q290.11914 205.98125 289.9004 206.48125Q289.69727 206.96562 289.19727 207.52812Q288.7129 208.075 287.5879 209.02812Q286.63477 209.825 286.35352 210.12187Q286.0879 210.40312 285.91602 210.68437L290.13477 210.68437ZM292.16602 206.68437L292.16602 205.48125L293.36914 205.48125L293.36914 206.68437L292.16602 206.68437ZM292.16602 211.7L292.16602 210.49687L293.36914 210.49687L293.36914 211.7L292.16602 211.7ZM294.5879 207.46562Q294.5879 205.93437 294.9004 205.0125Q295.2129 204.075 295.82227 203.575Q296.44727 203.075 297.38477 203.075Q298.07227 203.075 298.5879 203.35625Q299.11914 203.6375 299.4629 204.16875Q299.80664 204.68437 299.99414 205.43437Q300.18164 206.18437 300.18164 207.46562Q300.18164 208.98125 299.86914 209.90312Q299.57227 210.825 298.94727 211.34062Q298.3379 211.84062 297.38477 211.84062Q296.1504 211.84062 295.43164 210.95Q294.5879 209.8875 294.5879 207.46562ZM295.66602 207.46562Q295.66602 209.575 296.16602 210.27812Q296.66602 210.98125 297.38477 210.98125Q298.11914 210.98125 298.60352 210.27812Q299.10352 209.575 299.10352 207.46562Q299.10352 205.34062 298.60352 204.65312Q298.11914 203.95 297.36914 203.95Q296.6504 203.95 296.2129 204.55937Q295.66602 205.34062 295.66602 207.46562ZM305.55664 211.7L304.50977 211.7L304.50977 204.98125Q304.11914 205.34062 303.49414 205.71562Q302.88477 206.075 302.4004 206.24687L302.4004 205.23125Q303.2754 204.80937 303.93164 204.23125Q304.60352 203.6375 304.88477 203.075L305.55664 203.075L305.55664 211.7ZM309.16602 206.68437L309.16602 205.48125L310.36914 205.48125L310.36914 206.68437L309.16602 206.68437ZM309.16602 211.7L309.16602 210.49687L310.36914 210.49687L310.36914 211.7L309.16602 211.7ZM311.5879 207.46562Q311.5879 205.93437 311.9004 205.0125Q312.2129 204.075 312.82227 203.575Q313.44727 203.075 314.38477 203.075Q315.07227 203.075 315.5879 203.35625Q316.11914 203.6375 316.4629 204.16875Q316.80664 204.68437 316.99414 205.43437Q317.18164 206.18437 317.18164 207.46562Q317.18164 208.98125 316.86914 209.90312Q316.57227 210.825 315.94727 211.34062Q315.3379 211.84062 314.38477 211.84062Q313.1504 211.84062 312.43164 210.95Q311.5879 209.8875 311.5879 207.46562ZM312.66602 207.46562Q312.66602 209.575 313.16602 210.27812Q313.66602 210.98125 314.38477 210.98125Q315.11914 210.98125 315.60352 210.27812Q316.10352 209.575 316.10352 207.46562Q316.10352 205.34062 315.60352 204.65312Q315.11914 203.95 314.36914 203.95Q313.6504 203.95 313.2129 204.55937Q312.66602 205.34062 312.66602 207.46562ZM318.5879 207.46562Q318.5879 205.93437 318.9004 205.0125Q319.2129 204.075 319.82227 203.575Q320.44727 203.075 321.38477 203.075Q322.07227 203.075 322.5879 203.35625Q323.11914 203.6375 323.4629 204.16875Q323.80664 204.68437 323.99414 205.43437Q324.18164 206.18437 324.18164 207.46562Q324.18164 208.98125 323.86914 209.90312Q323.57227 210.825 322.94727 211.34062Q322.3379 211.84062 321.38477 211.84062Q320.1504 211.84062 319.43164 210.95Q318.5879 209.8875 318.5879 207.46562ZM319.66602 207.46562Q319.66602 209.575 320.16602 210.27812Q320.66602 210.98125 321.38477 210.98125Q322.11914 210.98125 322.60352 210.27812Q323.10352 209.575 323.10352 207.46562Q323.10352 205.34062 322.60352 204.65312Q322.11914 203.95 321.36914 203.95Q320.6504 203.95 320.2129 204.55937Q319.66602 205.34062 319.66602 207.46562Z" fill-rule="nonzero"/><path fill="#000000" d="M359.81924 211.7L358.77237 211.7L358.77237 204.98125Q358.38174 205.34062 357.75674 205.71562Q357.14737 206.075 356.663 206.24687L356.663 205.23125Q357.538 204.80937 358.19424 204.23125Q358.86612 203.6375 359.14737 203.075L359.81924 203.075L359.81924 211.7ZM368.39737 210.68437L368.39737 211.7L362.70987 211.7Q362.70987 211.325 362.83487 210.96562Q363.05362 210.3875 363.52237 209.825Q364.00674 209.2625 364.913 208.52812Q366.31924 207.37187 366.80362 206.7Q367.30362 206.02812 367.30362 205.43437Q367.30362 204.80937 366.8505 204.3875Q366.39737 203.95 365.67862 203.95Q364.913 203.95 364.45987 204.40312Q364.00674 204.85625 363.99112 205.66875L362.913 205.55937Q363.02237 204.34062 363.74112 203.71562Q364.4755 203.075 365.70987 203.075Q366.94424 203.075 367.663 203.7625Q368.38174 204.45 368.38174 205.46562Q368.38174 205.98125 368.163 206.48125Q367.95987 206.96562 367.45987 207.52812Q366.9755 208.075 365.8505 209.02812Q364.89737 209.825 364.61612 210.12187Q364.3505 210.40312 364.17862 210.68437L368.39737 210.68437ZM370.42862 206.68437L370.42862 205.48125L371.63174 205.48125L371.63174 206.68437L370.42862 206.68437ZM370.42862 211.7L370.42862 210.49687L371.63174 210.49687L371.63174 211.7L370.42862 211.7ZM372.8505 207.46562Q372.8505 205.93437 373.163 205.0125Q373.4755 204.075 374.08487 203.575Q374.70987 203.075 375.64737 203.075Q376.33487 203.075 376.8505 203.35625Q377.38174 203.6375 377.7255 204.16875Q378.06924 204.68437 378.25674 205.43437Q378.44424 206.18437 378.44424 207.46562Q378.44424 208.98125 378.13174 209.90312Q377.83487 210.825 377.20987 211.34062Q376.6005 211.84062 375.64737 211.84062Q374.413 211.84062 373.69424 210.95Q372.8505 209.8875 372.8505 207.46562ZM373.92862 207.46562Q373.92862 209.575 374.42862 210.27812Q374.92862 210.98125 375.64737 210.98125Q376.38174 210.98125 376.86612 210.27812Q377.36612 209.575 377.36612 207.46562Q377.36612 205.34062 376.86612 204.65312Q376.38174 203.95 375.63174 203.95Q374.913 203.95 374.4755 204.55937Q373.92862 205.34062 373.92862 207.46562ZM383.81924 211.7L382.77237 211.7L382.77237 204.98125Q382.38174 205.34062 381.75674 205.71562Q381.14737 206.075 380.663 206.24687L380.663 205.23125Q381.538 204.80937 382.19424 204.23125Q382.86612 203.6375 383.14737 203.075L383.81924 203.075L383.81924 211.7ZM387.42862 206.68437L387.42862 205.48125L388.63174 205.48125L388.63174 206.68437L387.42862 206.68437ZM387.42862 211.7L387.42862 210.49687L388.63174 210.49687L388.63174 211.7L387.42862 211.7ZM395.39737 210.68437L395.39737 211.7L389.70987 211.7Q389.70987 211.325 389.83487 210.96562Q390.05362 210.3875 390.52237 209.825Q391.00674 209.2625 391.913 208.52812Q393.31924 207.37187 393.80362 206.7Q394.30362 206.02812 394.30362 205.43437Q394.30362 204.80937 393.8505 204.3875Q393.39737 203.95 392.67862 203.95Q391.913 203.95 391.45987 204.40312Q391.00674 204.85625 390.99112 205.66875L389.913 205.55937Q390.02237 204.34062 390.74112 203.71562Q391.4755 203.075 392.70987 203.075Q393.94424 203.075 394.663 203.7625Q395.38174 204.45 395.38174 205.46562Q395.38174 205.98125 395.163 206.48125Q394.95987 206.96562 394.45987 207.52812Q393.9755 208.075 392.8505 209.02812Q391.89737 209.825 391.61612 210.12187Q391.3505 210.40312 391.17862 210.68437L395.39737 210.68437ZM396.8505 207.46562Q396.8505 205.93437 397.163 205.0125Q397.4755 204.075 398.08487 203.575Q398.70987 203.075 399.64737 203.075Q400.33487 203.075 400.8505 203.35625Q401.38174 203.6375 401.7255 204.16875Q402.06924 204.68437 402.25674 205.43437Q402.44424 206.18437 402.44424 207.46562Q402.44424 208.98125 402.13174 209.90312Q401.83487 210.825 401.20987 211.34062Q400.6005 211.84062 399.64737 211.84062Q398.413 211.84062 397.69424 210.95Q396.8505 209.8875 396.8505 207.46562ZM397.92862 207.46562Q397.92862 209.575 398.42862 210.27812Q398.92862 210.98125 399.64737 210.98125Q400.38174 210.98125 400.86612 210.27812Q401.36612 209.575 401.36612 207.46562Q401.36612 205.34062 400.86612 204.65312Q400.38174 203.95 399.63174 203.95Q398.913 203.95 398.4755 204.55937Q397.92862 205.34062 397.92862 207.46562Z" fill-rule="nonzero"/><path fill="#757575" d="M12.76875 30.3L12.76875 15.987499L14.659375 15.987499L14.659375 28.6125L21.70625 28.6125L21.70625 30.3L12.76875 30.3ZM23.628124 18.003124L23.628124 15.987499L25.39375 15.987499L25.39375 18.003124L23.628124 18.003124ZM23.628124 30.3L23.628124 19.925L25.39375 19.925L25.39375 30.3L23.628124 30.3ZM27.6125 30.3L27.6125 19.925L29.20625 19.925L29.20625 21.409374Q30.346874 19.690624 32.503124 19.690624Q33.440624 19.690624 34.221874 20.034374Q35.01875 20.3625 35.409374 20.909374Q35.8 21.45625 35.95625 22.20625Q36.05 22.70625 36.05 23.925L36.05 30.3L34.284374 30.3L34.284374 23.9875Q34.284374 22.909374 34.08125 22.378124Q33.878124 21.846874 33.346874 21.534374Q32.83125 21.221874 32.128124 21.221874Q31.003124 21.221874 30.190624 21.940624Q29.378124 22.64375 29.378124 24.628124L29.378124 30.3L27.6125 30.3ZM37.628124 30.3L37.628124 15.987499L39.39375 15.987499L39.39375 24.14375L43.55 19.925L45.815624 19.925L41.8625 23.76875L46.221874 30.3L44.05 30.3L40.628124 25.003124L39.39375 26.190624L39.39375 30.3L37.628124 30.3ZM63.2375 15.987499L65.12813 15.987499L65.12813 24.253124Q65.12813 26.409374 64.64375 27.690624Q64.15938 28.95625 62.878124 29.753124Q61.6125 30.55 59.534374 30.55Q57.51875 30.55 56.2375 29.8625Q54.971874 29.159374 54.425 27.846874Q53.878124 26.534374 53.878124 24.253124L53.878124 15.987499L55.76875 15.987499L55.76875 24.2375Q55.76875 26.1125 56.1125 27.003124Q56.45625 27.878124 57.3 28.3625Q58.14375 28.83125 59.378124 28.83125Q61.45625 28.83125 62.346874 27.89375Q63.2375 26.940624 63.2375 24.2375L63.2375 15.987499ZM70.45625 28.721874L70.70625 30.284374Q69.97188 30.440624 69.37813 30.440624Q68.425 30.440624 67.89375 30.14375Q67.37813 29.83125 67.15938 29.346874Q66.94063 28.846874 66.94063 27.26875L66.94063 21.3L65.65938 21.3L65.65938 19.925L66.94063 19.925L66.94063 17.3625L68.69063 16.3L68.69063 19.925L70.45625 19.925L70.45625 21.3L68.69063 21.3L68.69063 27.3625Q68.69063 28.1125 68.78438 28.33125Q68.87813 28.534374 69.08125 28.675Q69.3 28.8 69.69063 28.8Q69.97188 28.8 70.45625 28.721874ZM72.62813 18.003124L72.62813 15.987499L74.39375 15.987499L74.39375 18.003124L72.62813 18.003124ZM72.62813 30.3L72.62813 19.925L74.39375 19.925L74.39375 30.3L72.62813 30.3ZM76.58125 30.3L76.58125 15.987499L78.33125 15.987499L78.33125 30.3L76.58125 30.3ZM80.62813 18.003124L80.62813 15.987499L82.39375 15.987499L82.39375 18.003124L80.62813 18.003124ZM80.62813 30.3L80.62813 19.925L82.39375 19.925L82.39375 30.3L80.62813 30.3ZM83.69063 30.3L83.69063 28.878124L90.3 21.3Q89.175 21.346874 88.31563 21.346874L84.08125 21.346874L84.08125 19.925L92.56563 19.925L92.56563 21.096874L86.94063 27.675L85.8625 28.878124Q87.03438 28.784374 88.08125 28.784374L92.87813 28.784374L92.87813 30.3L83.69063 30.3ZM100.39375 29.01875Q99.40938 29.846874 98.50313 30.190624Q97.59688 30.534374 96.56563 30.534374Q94.8625 30.534374 93.94063 29.70625Q93.01875 28.8625 93.01875 27.565624Q93.01875 26.8 93.3625 26.175Q93.72188 25.55 94.28438 25.175Q94.84688 24.784374 95.55 24.58125Q96.06563 24.45625 97.1125 24.315624Q99.2375 24.065624 100.2375 23.721874Q100.25313 23.3625 100.25313 23.253124Q100.25313 22.190624 99.75313 21.7375Q99.08125 21.14375 97.75313 21.14375Q96.50313 21.14375 95.90938 21.58125Q95.33125 22.01875 95.05 23.128124L93.33125 22.89375Q93.56563 21.784374 94.09688 21.1125Q94.62813 20.425 95.64375 20.065624Q96.65938 19.690624 98.00313 19.690624Q99.33125 19.690624 100.15938 20.003124Q100.9875 20.315624 101.37813 20.8Q101.76875 21.26875 101.925 21.9875Q102.01875 22.440624 102.01875 23.6125L102.01875 25.95625Q102.01875 28.409374 102.12813 29.065624Q102.2375 29.70625 102.58125 30.3L100.7375 30.3Q100.47188 29.753124 100.39375 29.01875ZM100.2375 25.096874Q99.28438 25.4875 97.3625 25.753124Q96.28438 25.909374 95.83125 26.1125Q95.39375 26.3 95.14375 26.675Q94.89375 27.05 94.89375 27.51875Q94.89375 28.221874 95.425 28.690624Q95.95625 29.159374 96.9875 29.159374Q98.00313 29.159374 98.78438 28.721874Q99.58125 28.26875 99.95625 27.503124Q100.2375 26.89375 100.2375 25.7375L100.2375 25.096874ZM108.45625 28.721874L108.70625 30.284374Q107.97188 30.440624 107.37813 30.440624Q106.425 30.440624 105.89375 30.14375Q105.37813 29.83125 105.15938 29.346874Q104.94063 28.846874 104.94063 27.26875L104.94063 21.3L103.65938 21.3L103.65938 19.925L104.94063 19.925L104.94063 17.3625L106.69063 16.3L106.69063 19.925L108.45625 19.925L108.45625 21.3L106.69063 21.3L106.69063 27.3625Q106.69063 28.1125 106.78438 28.33125Q106.87813 28.534374 107.08125 28.675Q107.3 28.8 107.69063 28.8Q107.97188 28.8 108.45625 28.721874ZM110.62813 18.003124L110.62813 15.987499L112.39375 15.987499L112.39375 18.003124L110.62813 18.003124ZM110.62813 30.3L110.62813 19.925L112.39375 19.925L112.39375 30.3L110.62813 30.3ZM113.97188 25.1125Q113.97188 22.2375 115.56563 20.846874Q116.90938 19.690624 118.83125 19.690624Q120.97188 19.690624 122.31563 21.096874Q123.675 22.503124 123.675 24.971874Q123.675 26.971874 123.08125 28.128124Q122.4875 29.26875 121.33125 29.909374Q120.19063 30.534374 118.83125 30.534374Q116.64375 30.534374 115.3 29.14375Q113.97188 27.7375 113.97188 25.1125ZM115.76875 25.1125Q115.76875 27.1125 116.62813 28.096874Q117.50313 29.08125 118.83125 29.08125Q120.14375 29.08125 121.00313 28.096874Q121.87813 27.096874 121.87813 25.05Q121.87813 23.128124 121.00313 22.14375Q120.12813 21.14375 118.83125 21.14375Q117.50313 21.14375 116.62813 22.14375Q115.76875 23.128124 115.76875 25.1125ZM125.6125 30.3L125.6125 19.925L127.20625 19.925L127.20625 21.409374Q128.34688 19.690624 130.50313 19.690624Q131.44063 19.690624 132.22188 20.034374Q133.01875 20.3625 133.40938 20.909374Q133.8 21.45625 133.95625 22.20625Q134.05 22.70625 134.05 23.925L134.05 30.3L132.28438 30.3L132.28438 23.9875Q132.28438 22.909374 132.08125 22.378124Q131.87813 21.846874 131.34688 21.534374Q130.83125 21.221874 130.12813 21.221874Q129.00313 21.221874 128.19063 21.940624Q127.37813 22.64375 127.37813 24.628124L127.37813 30.3L125.6125 30.3ZM144.97188 34.503124Q143.51875 32.675 142.51875 30.221874Q141.51875 27.753124 141.51875 25.1125Q141.51875 22.784374 142.26875 20.659374Q143.14375 18.190624 144.97188 15.737499L146.2375 15.737499Q145.05 17.76875 144.675 18.64375Q144.08125 19.9875 143.7375 21.45625Q143.31563 23.284374 143.31563 25.128124Q143.31563 29.815624 146.2375 34.503124L144.97188 34.503124ZM148.84688 30.3L148.84688 15.987499L154.2375 15.987499Q155.675 15.987499 156.425 16.1125Q157.47188 16.3 158.19063 16.8Q158.90938 17.284374 159.33125 18.175Q159.76875 19.065624 159.76875 20.128124Q159.76875 21.95625 158.59688 23.221874Q157.44063 24.471874 154.40938 24.471874L150.7375 24.471874L150.7375 30.3L148.84688 30.3ZM150.7375 22.784374L154.44063 22.784374Q156.26875 22.784374 157.03438 22.1125Q157.81563 21.425 157.81563 20.175Q157.81563 19.284374 157.3625 18.64375Q156.90938 18.003124 156.175 17.8Q155.69063 17.675 154.39375 17.675L150.7375 17.675L150.7375 22.784374ZM168.72188 26.95625L170.53438 27.190624Q170.1125 28.76875 168.94063 29.659374Q167.78438 30.534374 165.97188 30.534374Q163.70625 30.534374 162.3625 29.14375Q161.03438 27.7375 161.03438 25.20625Q161.03438 22.58125 162.37813 21.14375Q163.72188 19.690624 165.87813 19.690624Q167.95625 19.690624 169.26875 21.1125Q170.59688 22.51875 170.59688 25.096874Q170.59688 25.253124 170.58125 25.565624L162.84688 25.565624Q162.94063 27.26875 163.81563 28.175Q164.69063 29.08125 165.9875 29.08125Q166.95625 29.08125 167.62813 28.58125Q168.31563 28.065624 168.72188 26.95625ZM162.94063 24.1125L168.7375 24.1125Q168.62813 22.815624 168.08125 22.159374Q167.2375 21.14375 165.89375 21.14375Q164.69063 21.14375 163.8625 21.95625Q163.03438 22.753124 162.94063 24.1125ZM172.59688 30.3L172.59688 19.925L174.175 19.925L174.175 21.503124Q174.78438 20.39375 175.3 20.05Q175.81563 19.690624 176.425 19.690624Q177.31563 19.690624 178.2375 20.253124L177.62813 21.89375Q176.9875 21.503124 176.34688 21.503124Q175.76875 21.503124 175.3 21.8625Q174.84688 22.20625 174.64375 22.815624Q174.3625 23.753124 174.3625 24.8625L174.3625 30.3L172.59688 30.3ZM185.20625 25.70625L186.9875 25.55Q187.1125 26.6125 187.56563 27.3Q188.03438 27.9875 189.00313 28.425Q189.9875 28.846874 191.22188 28.846874Q192.3 28.846874 193.12813 28.534374Q193.95625 28.20625 194.3625 27.64375Q194.76875 27.08125 194.76875 26.409374Q194.76875 25.7375 194.37813 25.2375Q193.9875 24.7375 193.09688 24.39375Q192.51875 24.159374 190.53438 23.690624Q188.56563 23.221874 187.78438 22.8Q186.75313 22.26875 186.25313 21.471874Q185.75313 20.675 185.75313 19.690624Q185.75313 18.596874 186.3625 17.659374Q186.97188 16.721874 188.15938 16.2375Q189.34688 15.737499 190.78438 15.737499Q192.37813 15.737499 193.59688 16.253124Q194.81563 16.76875 195.45625 17.76875Q196.1125 18.753124 196.15938 20.01875L194.34688 20.159374Q194.20625 18.8 193.3625 18.1125Q192.51875 17.409374 190.8625 17.409374Q189.14375 17.409374 188.34688 18.05Q187.56563 18.675 187.56563 19.55Q187.56563 20.33125 188.12813 20.83125Q188.675 21.33125 190.9875 21.846874Q193.3 22.3625 194.15938 22.753124Q195.40938 23.33125 196.00313 24.221874Q196.59688 25.096874 196.59688 26.253124Q196.59688 27.39375 195.94063 28.409374Q195.28438 29.425 194.05 29.9875Q192.83125 30.55 191.3 30.55Q189.3625 30.55 188.05 29.9875Q186.7375 29.409374 185.9875 28.26875Q185.2375 27.128124 185.20625 25.70625ZM205.72188 26.95625L207.53438 27.190624Q207.1125 28.76875 205.94063 29.659374Q204.78438 30.534374 202.97188 30.534374Q200.70625 30.534374 199.3625 29.14375Q198.03438 27.7375 198.03438 25.20625Q198.03438 22.58125 199.37813 21.14375Q200.72188 19.690624 202.87813 19.690624Q204.95625 19.690624 206.26875 21.1125Q207.59688 22.51875 207.59688 25.096874Q207.59688 25.253124 207.58125 25.565624L199.84688 25.565624Q199.94063 27.26875 200.81563 28.175Q201.69063 29.08125 202.9875 29.08125Q203.95625 29.08125 204.62813 28.58125Q205.31563 28.065624 205.72188 26.95625ZM199.94063 24.1125L205.7375 24.1125Q205.62813 22.815624 205.08125 22.159374Q204.2375 21.14375 202.89375 21.14375Q201.69063 21.14375 200.8625 21.95625Q200.03438 22.753124 199.94063 24.1125ZM216.39375 26.503124L218.1125 26.721874Q217.83125 28.51875 216.65938 29.534374Q215.50313 30.534374 213.8 30.534374Q211.675 30.534374 210.37813 29.14375Q209.08125 27.753124 209.08125 25.159374Q209.08125 23.471874 209.62813 22.221874Q210.19063 20.95625 211.33125 20.33125Q212.47188 19.690624 213.81563 19.690624Q215.50313 19.690624 216.56563 20.55Q217.64375 21.409374 217.95625 22.971874L216.2375 23.2375Q216.00313 22.190624 215.37813 21.675Q214.75313 21.14375 213.87813 21.14375Q212.55 21.14375 211.72188 22.096874Q210.89375 23.05 210.89375 25.096874Q210.89375 27.190624 211.69063 28.14375Q212.4875 29.08125 213.78438 29.08125Q214.81563 29.08125 215.50313 28.45625Q216.20625 27.815624 216.39375 26.503124ZM218.97188 25.1125Q218.97188 22.2375 220.56563 20.846874Q221.90938 19.690624 223.83125 19.690624Q225.97188 19.690624 227.31563 21.096874Q228.675 22.503124 228.675 24.971874Q228.675 26.971874 228.08125 28.128124Q227.4875 29.26875 226.33125 29.909374Q225.19063 30.534374 223.83125 30.534374Q221.64375 30.534374 220.3 29.14375Q218.97188 27.7375 218.97188 25.1125ZM220.76875 25.1125Q220.76875 27.1125 221.62813 28.096874Q222.50313 29.08125 223.83125 29.08125Q225.14375 29.08125 226.00313 28.096874Q226.87813 27.096874 226.87813 25.05Q226.87813 23.128124 226.00313 22.14375Q225.12813 21.14375 223.83125 21.14375Q222.50313 21.14375 221.62813 22.14375Q220.76875 23.128124 220.76875 25.1125ZM230.6125 30.3L230.6125 19.925L232.20625 19.925L232.20625 21.409374Q233.34688 19.690624 235.50313 19.690624Q236.44063 19.690624 237.22188 20.034374Q238.01875 20.3625 238.40938 20.909374Q238.8 21.45625 238.95625 22.20625Q239.05 22.70625 239.05 23.925L239.05 30.3L237.28438 30.3L237.28438 23.9875Q237.28438 22.909374 237.08125 22.378124Q236.87813 21.846874 236.34688 21.534374Q235.83125 21.221874 235.12813 21.221874Q234.00313 21.221874 233.19063 21.940624Q232.37813 22.64375 232.37813 24.628124L232.37813 30.3L230.6125 30.3ZM247.34688 30.3L247.34688 28.9875Q246.3625 30.534374 244.44063 30.534374Q243.20625 30.534374 242.15938 29.846874Q241.12813 29.159374 240.55 27.940624Q239.9875 26.721874 239.9875 25.128124Q239.9875 23.565624 240.50313 22.3Q241.01875 21.034374 242.05 20.3625Q243.09688 19.690624 244.3625 19.690624Q245.3 19.690624 246.03438 20.096874Q246.76875 20.4875 247.2375 21.1125L247.2375 15.987499L248.97188 15.987499L248.97188 30.3L247.34688 30.3ZM241.78438 25.128124Q241.78438 27.1125 242.62813 28.096874Q243.47188 29.08125 244.6125 29.08125Q245.76875 29.08125 246.56563 28.14375Q247.37813 27.20625 247.37813 25.26875Q247.37813 23.14375 246.55 22.14375Q245.7375 21.14375 244.53438 21.14375Q243.3625 21.14375 242.56563 22.1125Q241.78438 23.065624 241.78438 25.128124ZM252.76875 34.503124L251.51875 34.503124Q254.425 29.815624 254.425 25.128124Q254.425 23.284374 254.01875 21.4875Q253.675 20.01875 253.08125 18.675Q252.70625 17.784374 251.51875 15.737499L252.76875 15.737499Q254.6125 18.190624 255.4875 20.659374Q256.2375 22.784374 256.2375 25.1125Q256.2375 27.753124 255.22188 30.221874Q254.22188 32.675 252.76875 34.503124Z" fill-rule="nonzero"/></svg>